<svg xmlns="http://www.w3.org/2000/svg" width="838" height="471" fill="none"><g opacity=".4"><path fill="#F3F2F1" d="M707.599 115.138c0 1.52-29.942 95.809-29.942 95.809l14.971-15.207-21.569 65.902 14.21-19.771-16.748 82.63 8.12-8.618-14.209 58.299 12.179-15.209-12.179 43.596 96.423-7.097-22.837-82.124 13.793 15.209-17.853-59.818 9.136 5.068-20.808-77.054 9.643 6.591z"/><path fill="#DADBD8" d="M721.961 267.549c-.011.01-.122-.082-.325-.269-.236-.228-.525-.504-.876-.839l-3.233-3.213-11.146-11.307.46-.141c-.632 3.695-1.324 7.739-2.045 11.968l-1.199 6.911-.171.979-.369-.921c-2.907-7.228-4.61-13.856-5.535-18.626a87 87 0 0 1-.926-5.637c-.088-.663-.136-1.177-.172-1.525-.032-.348-.04-.531-.022-.533.017-.002.059.176.123.519l.267 1.51c.229 1.314.576 3.223 1.088 5.591a113 113 0 0 0 5.7 18.489l-.54.058 1.186-6.913c.737-4.226 1.439-8.268 2.083-11.962l.091-.525.367.383c4.441 4.623 8.245 8.585 10.997 11.452l3.123 3.319.814.9c.182.207.271.321.26.332M719.825 310.066c.018.008-.071.254-.257.716-.213.512-.492 1.18-.838 2.015-.777 1.8-1.859 4.309-3.188 7.394l-10.813 24.544-.353.804-.19-.857-.488-2.198-3.946-17.962.462.086-8.82 12.972-2.522 3.634-.683.949q-.24.32-.258.311c-.012-.008.054-.129.189-.357.165-.263.37-.59.618-.991l2.405-3.715 8.645-13.087.332-.502.131.588 4.011 17.948.486 2.199-.545-.055 10.975-24.471 3.353-7.323.934-1.971c.22-.449.343-.679.36-.671M718.248 189.05c-.025.015-.277-.325-.723-.974l-1.889-2.815-6.488-9.954.483-.088a132 132 0 0 0-2.422 19.68l-.05 1.047-.467-.938c-2.435-4.887-3.875-9.367-4.682-12.573a52 52 0 0 1-.818-3.78c-.152-.888-.208-1.371-.179-1.377.032-.006.15.466.356 1.34.209.873.519 2.145.969 3.73a69.3 69.3 0 0 0 4.842 12.416l-.516.112a120 120 0 0 1 2.448-19.764l.134-.641.348.552 6.311 10.067 1.762 2.896c.401.676.606 1.048.581 1.064"/><path fill="#E7E8E5" d="M172.575 471h-17.348V370.179h17.348z"/><path fill="#E7E8E5" d="M160.202 38.631c0 1.848-36.379 116.409-36.379 116.409l18.189-18.477-26.205 80.069 17.264-24.021-20.347 100.394 9.865-10.469-17.265 70.831 14.799-18.479-14.799 52.969 117.154-8.622-27.747-99.778 16.758 18.477-21.691-72.679 11.1 6.159-25.281-93.62 11.715 8.007z"/><path fill="#DADBD8" d="M177.647 226.728c-.014.013-.147-.1-.394-.325-.287-.277-.638-.612-1.065-1.021-.974-.968-2.293-2.28-3.928-3.903-3.389-3.439-8.073-8.192-13.542-13.737l.558-.173-2.485 14.541-1.457 8.397-.205 1.19-.45-1.118c-3.532-8.782-5.601-16.836-6.724-22.631-.567-2.9-.92-5.237-1.125-6.85-.109-.805-.167-1.43-.209-1.852-.04-.423-.049-.645-.028-.647.021-.004.072.214.15.63.087.486.193 1.091.323 1.834.28 1.597.701 3.917 1.324 6.795a137 137 0 0 0 6.925 22.463l-.656.07 1.441-8.4 2.531-14.534.111-.637.446.465 13.36 13.914 3.794 4.034.99 1.093c.221.251.328.389.315.402M175.057 278.386c.021.009-.086.308-.312.871l-1.018 2.447-3.874 8.984-13.136 29.822-.43.977-.231-1.044-.592-2.671-4.796-21.822.563.105c-4.385 6.449-8.075 11.874-10.716 15.76l-3.065 4.416c-.336.466-.61.846-.83 1.154q-.29.389-.314.377c-.014-.011.066-.157.231-.433l.751-1.206 2.92-4.513c2.59-3.921 6.208-9.394 10.505-15.9l.403-.61.159.715c1.444 6.457 3.108 13.906 4.873 21.806l.591 2.671-.662-.066 13.336-29.733 4.072-8.896 1.135-2.396c.266-.544.416-.825.437-.815M173.136 131.354c-.029.019-.336-.395-.878-1.184l-2.294-3.42-7.883-12.094.585-.107a161 161 0 0 0-2.075 13.2 163 163 0 0 0-.867 10.71l-.06 1.273-.567-1.139c-2.959-5.939-4.708-11.381-5.689-15.277a63 63 0 0 1-.994-4.593c-.183-1.078-.253-1.665-.217-1.672.039-.007.182.567.432 1.628.255 1.06.631 2.606 1.177 4.531a84.2 84.2 0 0 0 5.884 15.086l-.627.136c.134-3.341.398-6.986.83-10.763a146 146 0 0 1 2.145-13.25l.163-.78.421.672c3.095 4.934 5.735 9.146 7.669 12.231l2.141 3.518c.487.823.735 1.274.704 1.294"/><path fill="#E7E8E5" d="M67.252 471h-17.35V370.179h17.35z"/><path fill="#E7E8E5" d="M54.878 38.631c0 1.848-36.38 116.409-36.38 116.409l18.19-18.477-26.205 80.069 17.264-24.021L7.4 293.005l9.866-10.469L0 353.367l14.799-18.479L0 387.857l117.154-8.622-27.747-99.779 16.757 18.478-21.69-72.679 11.1 6.159-25.281-93.62 11.715 8.007z"/><path fill="#DADBD8" d="M72.323 226.728c-.013.013-.148-.1-.394-.325l-1.065-1.021-3.928-3.903-13.541-13.737.557-.173-2.485 14.541-1.457 8.397-.205 1.19-.45-1.118c-3.533-8.782-5.602-16.836-6.724-22.631-.567-2.9-.92-5.237-1.126-6.85-.108-.805-.166-1.43-.208-1.852-.04-.423-.05-.645-.028-.647.02-.004.072.214.15.63l.324 1.834c.278 1.597.7 3.917 1.323 6.795a137 137 0 0 0 6.924 22.463l-.656.07 1.442-8.4 2.53-14.534.111-.637.447.465 13.36 13.914 3.794 4.034.99 1.093c.22.251.328.389.315.402M69.734 278.386c.022.009-.086.308-.312.871l-1.018 2.447-3.874 8.984-13.136 29.822-.43.977-.231-1.044-.592-2.671-4.796-21.822.563.105-10.717 15.76-3.064 4.416c-.336.466-.61.846-.83 1.154q-.29.389-.313.377-.02-.018.23-.433l.751-1.206 2.92-4.513 10.506-15.9.402-.61.16.715 4.872 21.806.591 2.671-.661-.066 13.334-29.733 4.074-8.896 1.135-2.396c.265-.544.415-.825.436-.815M67.813 131.354c-.03.019-.337-.395-.88-1.184l-2.294-3.42-7.882-12.094.585-.107a161 161 0 0 0-2.076 13.2 162 162 0 0 0-.865 10.71l-.061 1.273-.567-1.139c-2.958-5.939-4.71-11.381-5.689-15.277a63 63 0 0 1-.995-4.593c-.183-1.078-.252-1.665-.217-1.672.04-.007.182.567.433 1.628.255 1.06.63 2.606 1.177 4.531a84 84 0 0 0 5.883 15.086l-.627.136c.135-3.341.398-6.986.832-10.763.547-4.751 1.3-9.243 2.143-13.25l.164-.78.421.672 7.668 12.231 2.141 3.518c.488.823.736 1.274.706 1.294"/><path fill="#E7E8E5" d="M775.721 27.329c0 1.848-36.379 116.408-36.379 116.408l18.19-18.476-26.206 80.069 17.265-24.021-20.348 100.395 9.865-10.471-17.264 70.831 14.798-18.478-14.798 52.97 117.155-8.622-27.747-99.781 16.756 18.478-21.69-72.678 11.099 6.159-25.28-93.62 11.715 8.007z"/><path fill="#DADBD8" d="M793.169 212.506c-.013.014-.149-.098-.395-.325l-1.064-1.021-3.929-3.903-13.54-13.737.556-.173-2.484 14.543-1.457 8.396-.206 1.189-.45-1.118c-3.531-8.782-5.602-16.836-6.724-22.631a107 107 0 0 1-1.125-6.849c-.109-.804-.166-1.431-.209-1.852-.038-.423-.049-.646-.028-.648s.072.214.151.63l.324 1.835c.278 1.597.699 3.916 1.322 6.794a137 137 0 0 0 6.926 22.463l-.657.07c.466-2.708.947-5.518 1.442-8.399l2.53-14.534.111-.638.447.465 13.359 13.914 3.795 4.034.99 1.093c.22.252.329.389.315.402M790.577 264.165c.02.009-.087.307-.313.87-.26.621-.597 1.434-1.019 2.449l-3.873 8.984-13.136 29.82-.43.978-.231-1.044-.593-2.67c-1.736-7.907-3.376-15.361-4.794-21.823l.561.104-10.717 15.761-3.063 4.416-.83 1.153q-.29.39-.313.377c-.015-.009.064-.157.23-.433.199-.32.448-.717.751-1.206l2.92-4.512 10.506-15.9.401-.611.161.715c1.442 6.457 3.106 13.908 4.872 21.808l.591 2.669-.661-.066 13.335-29.732 4.072-8.897 1.136-2.396c.266-.544.415-.825.437-.814M788.656 117.132c-.03.019-.337-.395-.879-1.182l-2.295-3.421-7.881-12.095.586-.107a161 161 0 0 0-2.078 13.2 162 162 0 0 0-.864 10.711l-.062 1.272-.567-1.137c-2.957-5.941-4.708-11.382-5.688-15.278a62 62 0 0 1-.994-4.593c-.185-1.079-.253-1.666-.218-1.673.04-.007.182.567.433 1.628.254 1.062.63 2.607 1.176 4.532a84.3 84.3 0 0 0 5.885 15.086l-.628.134a145.57 145.57 0 0 1 2.975-24.011l.163-.78.422.672 7.668 12.23 2.142 3.518c.487.824.734 1.274.704 1.294"/><path fill="#E7E8E5" d="M300.929 123.578c.664-4.813-6.138-8.773-11.25-9.184-2.436-.197-4.967.175-7.276-.628-5.003-1.743-7.002-8.199-11.883-10.254-3.65-1.538-7.851-.169-11.389 1.609s-7.035 4.017-10.987 4.27c-3.439.22-7.172-1.053-10.18.624-2.242 1.25-3.415 3.83-5.482 5.352-2.022 1.489-4.658 1.805-7.166 1.941s-5.104.161-7.387 1.206c-2.285 1.043-4.174 3.456-3.699 5.919zM633.812 133.674c.467-3.385-4.314-6.169-7.909-6.458-1.714-.138-3.493.124-5.117-.441-3.518-1.226-4.923-5.765-8.354-7.211-2.567-1.081-5.52-.118-8.008 1.133s-4.945 2.824-7.724 3.001c-2.419.155-5.044-.74-7.158.44-1.577.878-2.402 2.692-3.855 3.762-1.421 1.047-3.274 1.269-5.038 1.364-1.763.097-3.588.114-5.194.848-1.606.735-2.934 2.431-2.601 4.163z"/><path fill="#DADBD8" d="M519.715 61.04c-.017.044-.463-.12-1.295-.287a10.5 10.5 0 0 0-3.555-.094c-1.483.21-3.23.815-4.758 2.081-1.525 1.242-2.83 3.116-3.352 5.333l-.015.059-.204.79-.303-.75c-.855-2.108-2.373-3.789-4.02-4.862-1.65-1.093-3.427-1.553-4.916-1.667-3.025-.206-4.795.737-4.816.611-.012-.025.402-.264 1.223-.53a10.4 10.4 0 0 1 3.616-.457c1.543.07 3.416.51 5.16 1.631a10.95 10.95 0 0 1 4.247 5.076l-.507.04.017-.062c.551-2.347 1.941-4.31 3.561-5.594a9.75 9.75 0 0 1 5.018-2.072c1.556-.175 2.822.034 3.652.265.835.235 1.258.465 1.247.49M675.646 40.216c0 10.483-8.509 18.982-19.004 18.982s-19.003-8.499-19.003-18.982c0-10.484 8.508-18.982 19.003-18.982s19.004 8.498 19.004 18.981M655.561 61.297c.162 0 .292 3.526.292 7.877 0 4.35-.13 7.876-.292 7.876-.16 0-.291-3.526-.291-7.876s.131-7.877.291-7.877M644.938 58.71c.122.106-1.252 1.923-3.071 4.06-1.818 2.138-3.392 3.786-3.516 3.682-.122-.104 1.253-1.921 3.072-4.06 1.819-2.137 3.392-3.786 3.515-3.681M634.121 47.385c.077.14-3.397 2.171-7.757 4.532-4.361 2.363-7.958 4.163-8.035 4.022s3.396-2.171 7.758-4.533c4.36-2.362 7.957-4.162 8.034-4.021M630.332 33.864c.009.16-2.742.483-6.146.72-3.406.237-6.174.3-6.186.14-.01-.161 2.74-.484 6.146-.722 3.405-.236 6.174-.3 6.186-.138M636.612 24.655c-.112.116-3.092-2.612-6.656-6.092s-6.363-6.394-6.25-6.51c.114-.114 3.093 2.612 6.658 6.094 3.564 3.479 6.361 6.393 6.248 6.508M648.308 17.507c-.148.064-.908-1.36-1.698-3.18s-1.309-3.347-1.161-3.411.908 1.36 1.697 3.18 1.309 3.347 1.162 3.41M658.766 0c.162.002.236 3.724.166 8.311-.07 4.589-.258 8.306-.418 8.303-.162-.002-.235-3.724-.165-8.312.069-4.586.257-8.304.417-8.302M677.928 11.173c.133.091-1.044 2.024-2.627 4.318s-2.974 4.079-3.107 3.988c-.132-.091 1.042-2.024 2.627-4.319 1.582-2.293 2.975-4.079 3.107-3.987M695.995 15.751c.084.138-4.015 2.819-9.156 5.99-5.144 3.173-9.38 5.632-9.465 5.496-.084-.137 4.015-2.819 9.158-5.992 5.142-3.17 9.378-5.631 9.463-5.494M673.593 66.761c-.122.094-1.373-1.379-2.476-3.475-1.111-2.094-1.623-3.957-1.477-4.004.157-.057.903 1.681 1.994 3.731 1.078 2.054 2.095 3.65 1.959 3.748M692.56 63.283c-.079.141-4.159-1.977-9.11-4.727-4.955-2.754-8.906-5.098-8.828-5.24.078-.14 4.156 1.976 9.111 4.73 4.953 2.752 8.905 5.096 8.827 5.237M690.535 48.997c-.061.15-2.612-.76-5.698-2.03-3.088-1.27-5.539-2.419-5.478-2.568s2.613.76 5.7 2.03c3.086 1.27 5.538 2.42 5.476 2.568M693.702 34.992c.017.161-2.924.594-6.568.97-3.645.376-6.613.55-6.63.39s2.925-.593 6.57-.97c3.644-.374 6.612-.55 6.628-.39"/><path fill="#8C8F8F" d="m179.09 383.703-.031-.445z"/><path fill="#7E8182" d="m177.039 354.318-.011-.147-.005-.083z"/><path fill="#17282F" d="M423.794 64.572c.028.029-.361.428-1.024 1.18a26 26 0 0 0-2.512 3.409c-1.9 2.996-3.799 7.765-3.734 13.234l-.001.165-.461.039c-.794-5.38-3.619-9.665-6.1-12.144-2.494-2.531-4.522-3.514-4.454-3.608q.013-.019.366.167c.228.13.583.296.998.575.852.523 2.031 1.385 3.321 2.636 1.293 1.246 2.66 2.923 3.824 5.005a21.7 21.7 0 0 1 2.504 7.302l-.461.038.001-.17c-.068-5.582 1.925-10.425 3.921-13.415.992-1.515 1.947-2.635 2.655-3.353.343-.372.647-.624.84-.806q.297-.27.317-.254M493.007 112.689c-.016.046-.801-.277-2.282-.605a18.3 18.3 0 0 0-6.372-.245c-2.664.356-5.822 1.426-8.585 3.698-2.759 2.231-5.118 5.607-6.06 9.612l-.027.106-.177.687-.264-.651c-1.543-3.806-4.283-6.83-7.257-8.752-2.979-1.957-6.185-2.769-8.859-2.95a19.6 19.6 0 0 0-6.332.579c-1.461.385-2.233.724-2.251.68-.006-.015.183-.106.552-.266.365-.162.92-.372 1.651-.588 1.454-.437 3.661-.879 6.4-.732 2.72.144 6.009.937 9.071 2.92 3.053 1.946 5.872 5.032 7.454 8.936l-.441.035.03-.109c.969-4.118 3.401-7.571 6.241-9.839 2.847-2.309 6.095-3.371 8.812-3.691 2.737-.328 4.977.014 6.455.395.743.186 1.307.379 1.679.53.376.15.568.235.562.25M541.324 99.048c.03.029-.436.5-1.224 1.387a30 30 0 0 0-2.99 4.033c-2.258 3.548-4.516 9.203-4.439 15.692l-.003.198-.459.037a25.8 25.8 0 0 0-2.872-8.499 26.5 26.5 0 0 0-4.373-5.901c-1.477-1.493-2.824-2.546-3.793-3.212-.967-.667-1.526-1.004-1.506-1.04.008-.014.155.057.429.205.269.156.687.356 1.177.688 1.007.623 2.399 1.647 3.922 3.128 1.527 1.479 3.142 3.465 4.516 5.927a25.7 25.7 0 0 1 2.958 8.638l-.461.037.002-.201c-.079-6.602 2.271-12.331 4.626-15.873 1.172-1.795 2.297-3.123 3.133-3.978.404-.441.762-.74.988-.96.232-.212.359-.317.369-.306"/></g><path fill="#382F05" d="M546.675 446.248a4.863 4.863 0 0 1-4.863 4.863h-.537a4.863 4.863 0 1 1 0-9.726h.537a4.863 4.863 0 0 1 4.863 4.863M587.769 446.248a4.863 4.863 0 0 1-4.863 4.863h-.533a4.863 4.863 0 0 1 0-9.727h.533a4.864 4.864 0 0 1 4.863 4.864"/><path fill="#A88C0D" d="M549.183 304.06c0-.735.546-1.334 1.216-1.334h20.933c.67 0 1.217.599 1.217 1.334v36.941h3.708V304.06c0-2.97-2.21-5.384-4.925-5.384h-20.933c-2.715 0-4.924 2.414-4.924 5.384v36.941h3.708z"/><path fill="#EECB2A" d="m587.734 443.699-50.086-2.808c-2.678 0-4.846-2.28-4.846-5.089l-4.749-89.089c-.15-6.232 6.917-7.215 9.595-7.215h54.505c2.678 0 4.846 2.279 4.846 5.088v91.216c.024 4.727-4.63 7.818-9.265 7.897"/><path fill="#FFDC3D" d="M586.259 443.688h-52.243a5.976 5.976 0 0 1-5.975-5.978v-89.434a5.98 5.98 0 0 1 5.975-5.98h52.243a5.98 5.98 0 0 1 5.981 5.98v89.434a5.98 5.98 0 0 1-5.981 5.978"/><path fill="#EECB2A" d="M580.323 443.689h-39.819v-52.054c0-10.111 8.197-18.307 18.307-18.307h3.205c10.109 0 18.307 8.196 18.307 18.307z"/><path fill="#61520E" d="M561.757 335.672c5.043 0 9.317 2.237 9.493 4.922h4.045c-.147-4.419-6.152-7.978-13.538-7.978s-13.386 3.559-13.538 7.978h4.051c.17-2.685 4.444-4.922 9.487-4.922M569.497 303.029h-17.015a2.21 2.21 0 0 1-2.211-2.213v-.743a2.21 2.21 0 0 1 2.211-2.212h17.015c1.216 0 2.21.989 2.21 2.212v.743a2.215 2.215 0 0 1-2.21 2.213"/><path fill="#17282F" d="M474.324 181.592c-1.313-5.967-2.598-11.972.866-18.527 2.796-5.304 7.642-8.357 13.245-9.021 15.878-1.884 17.276 12.302 32.355 18.512 6.442 2.652 13.053 1.894 18.81 5.323 10.398 6.191 6.566 13.685-.329 29.865-16.879 39.62-45.922 16.678-51.045 8.876-3.804-5.804-13.058-31.187-13.902-35.028"/><path fill="#F48C7F" d="m484.038 211.489 1.616-8.477s-4.792 1.144-7.844 5.886-8.166 20.768-9.036 21.241c-.869.475-10.529-14.4-12.216-16.745-2.089-2.899-2.866-6.228-4.173-8.757-1.313-2.529-5.919-3.39-7.658-3.074-1.745.316 2.393 7.713 2.393 7.713s10.465 18.177 13.956 28.134c3.484 9.958 14.382 14.699 16.127 13.276 1.745-1.422 6.835-39.197 6.835-39.197"/><path fill="#403E38" d="m482.14 236.938-13.327-7.603s6.053-25.505 16.841-26.322z"/><path fill="#F7A491" d="M452.265 206.03s-.437-1.914-1.608-2.305c-1.176-.392-3.221-.044-3.349 0-.134.043-2.394-1.175-2.394-1.175l1.87 3.48s3.652 4.306 4.869 2.697c1.224-1.61.612-2.697.612-2.697"/><path fill="#F48C7F" d="M444.261 202.71s-1.319 6.713-.986 8.119c.339 1.411 1.173.654 1.331.348.654-1.262 1.103-5.567 1.103-5.567z"/><path fill="#F48C7F" d="M447.105 208.292s-.629 4.163-1.276 4.654c-.419.319-.955.13-1.13-.711s.839-5.973.839-5.973z"/><path fill="#184655" d="m450.95 220.105 2.191-1.068-9.307-19.08a2.435 2.435 0 0 0-1.121 3.257z"/><path fill="#F7A491" d="M537.818 431.863s1.133 11.477 4.04 13.585c2.907 2.105 6.782 9.903 4.842 14.119-.606 1.317-1.812 2.076-3.194 2.502-4.082 1.257-8.43-.859-10.168-4.762-.968-2.18-1.823-5.089-1.993-8.751-.436-9.326-3.344-14.069-3.344-14.069zM493.16 436.559s-.919 11.582-.177 15.344c.405 2.017 2.618 6.166 1.603 8.061-1.016 1.898-2.179 2.373-2.179 2.373l-26.37.423c-1.432.021-.485-.898.673-1.749 1.894-1.39 3.428-2.309 9.48-5.232.394-.191 1.831-1.102 2.35-1.42 1.318-.8 2.635-2.06 3.771-3.323 1.893-2.102 2.059-12.303 2.059-12.303z"/><path fill="#0575A1" d="M472.56 282.615s-3.321 18.804-1.141 31.129c2.179 12.329 12.645 126.597 12.645 126.597l11.624.654s2.435-47.731 1.998-54.368c-.432-6.639-3.882-17.749-3.882-17.749l1.157-38.537-14.671-50.629z"/><path fill="#0180B2" d="M506.719 278.659s9.158 13.751 11.338 25.13-1.604 46.349 2.591 61.263c2.27 8.072 10.875 20.538 12.179 30.969 1.31 10.431 6.443 37.753 6.443 37.753l-11.626 2.301-27.006-68.241-21.191-61.676-5.426-31.767z"/><path fill="#535353" d="M499.31 200.426s6.278 1.035 10.954 5.61c10.026 9.813-5.893 47.655-6.765 54.292s7.144 22.124 7.144 22.124-29.953 5.536-38.094.163c0 0-.956-53.263-.085-58.004.872-4.742 10.626-19.375 12.376-21.272 1.743-1.897 14.47-2.913 14.47-2.913"/><path fill="#F7A491" d="M510.646 210.486c-.775-2.335-3.421-3.461-5.682-2.485-3.094 1.339-7.366 3.878-9.452 8.23-3.49 7.27-15.699 32.243-19.475 33.191-3.782.948-19.184-25.921-19.184-25.921s.437-4.742-.874-7.428c-1.305-2.688-5.233-5.533-5.81-4.584-.583.948 2.18 3.319 2.18 3.793s-1.166.791-2.763-.158c-1.596-.948-2.465-2.866-2.465-2.866s-2.622 4.763.14 9.03a586 586 0 0 0 3.922 6.006s17.879 39.672 24.417 40.147c6.09.442 41.165-38.457 35.046-56.955"/><path fill="#F7A491" d="m495.274 184.264.179.962c.541 2.908 2.618 12.554 4.025 15.207 1.698 3.204-5.818 13.426-13.054 12.179-2.149-.372 1.826-9.392 1.631-10.348l-1.368-6.882c-.285-1.444-.575-2.907-.843-4.283-.777-3.908-1.407-7.105-1.407-7.105z"/><path fill="#F47458" d="M495.452 185.227c-.111-.606-.173-.963-.173-.963l-10.841-.269s.631 3.196 1.407 7.106c.268 1.366.558 2.821.843 4.257 1.675-.246 3.422-1.058 5.175-2.589 1.909-1.67 3.165-3.676 3.924-5.818-.139-.684-.246-1.273-.335-1.724"/><path fill="#F7A491" d="M488.756 158.505s4.424.612 7.626 4.746c3.203 4.133 6.653 16.915-1.3 23.865-7.959 6.949-15.821-.918-16.987-9.258s-.928-19.655 10.661-19.353"/><path fill="#17282F" d="M487.406 158.311s6.828 12.155 11.713 12.717c4.88.562 5.52 7.02 5.52 7.02s-1.742-14.883-6.577-17.753-10.656-1.984-10.656-1.984"/><path fill="#F7A491" d="M497.522 173.925c-.396 2.158.402 4.138 1.784 4.421s2.824-1.236 3.226-3.395c.396-2.159-.408-4.139-1.784-4.422-1.387-.283-2.829 1.237-3.226 3.396"/><path fill="#535353" d="M532.553 455.254c6.334 1.152 10.548-2.543 12.742-5.311 1.608 3.135 2.597 7.049 1.412 9.623-1.041 2.269-3.775 2.451-6.175 2.542-2.538.094-5.018-.796-6.276-3a21 21 0 0 1-1.703-3.854M478.544 454.359c6.97 1.785 12.129.57 15.008-.591.743 2.106 1.731 4.743 1.211 6.263-.645 1.864-1.554 2.284-2.359 2.306-6.37.166-23.332.393-28.188.456a.793.793 0 0 1-.617-1.301c1.206-1.437 14.425-6.817 14.945-7.133"/><path fill="#403E38" d="m500.861 245.357-15.696-10.3s6.537-18.474 13.738-25.014c7.195-6.54 10.592-4.952 12.098-3.597 4.167 3.76 3.431 12.916-1.31 24.197-4.742 11.281-8.83 14.714-8.83 14.714"/><path fill="#F7A491" d="M449.245 437.835s3.476 3.437 3.553 4.696c.08 1.263.309 14.773-1.111 16.033-1.417 1.262-5.583 2.157-4.243 3.575 1.011 1.071 8.799.842 13.963.555 1.506-.083 3.396-12.271 3.995-14.061.865-2.602 3.99-8.262 3.199-10.074-.384-.884-3.235-2.898-5.824-4.591-2.721-1.782-5.326-5.751-5.326-5.751z"/><path fill="#13375B" d="M427.734 466.137A4.864 4.864 0 0 1 422.87 471h-.536a4.863 4.863 0 1 1 0-9.726h.536a4.864 4.864 0 0 1 4.864 4.863M468.83 466.137a4.864 4.864 0 0 1-4.864 4.863h-.532a4.864 4.864 0 1 1 0-9.726h.532a4.864 4.864 0 0 1 4.864 4.863"/><path fill="#F7A491" d="M402.76 446.277s2.694 7.71 3.071 8.798c.027.08 1.185 5.022 1.185 6.304 0 4.817-21.437-4.088-16.633-6.224.435-.193 1.799-1.737 1.942-3.375.221-2.528-1.805-5.693-1.805-5.693z"/><path fill="#184655" d="M462.609 433.852s-7.316 22.439-10.452 23.544c-.832.292-5.518 1.477-6.269 3.267a1 1 0 0 0-.047.161c-.243 1.135.707 2.182 1.868 2.182h14.872s2.111-10.069 2.945-14.494c0 0 4.421-10.809 3.929-11.793-.492-.983-6.846-2.867-6.846-2.867"/><path fill="#183644" d="m373.177 277.243-7.761 20.096s-5.063 47.957-2.115 76.666c1.233 12.006 27.93 76.28 27.93 76.28l13.259-1.895-17.76-76.111 6.535-29.104 9.248-57.535z"/><path fill="#1F4250" d="m409.74 278.29 6.658 22.378 10.126 67.537 34.248 63.178s-5.15 7.905-10.678 9.148l-48.61-63.854-26.343-79.937.924-17.76z"/><path fill="#F8A492" d="M378.237 263.351c.659-1.743 7.258-36.281 7.258-36.281l-16.421 1.738-4.791 29.239-10.646-4.9s-9.611-4.348-10.028-5.014c-.353-.561.503-.831-2.129-5.284-.759-1.288-2.649-2.343-2.649-2.343s-2.334-1.279-2.793-.834c-.459.447-.37 1.243-.04 1.635s1.319.793 1.649 1.185c.33.393.212 1.986-.043 2.508-.255.525-7.004-3.466-7.004-3.466s-1.881-1.235-2.473-1.691c-.505-.392-1.925-1.674-1.925-1.674s-2.497-1.931-3.002-1.262c-.619.82 7.375 7.594 7.117 8.027-.314.525-4.07-1.58-4.07-1.58s-1.538-1.387-2.384-1.762c-.802-1.009-2.862-2.227-3.418-1.373-.103.16 2.099 2.494 2.099 2.494s1.5 1.276 2.177 1.928c1.194 1.15 3.383 2.257 4.252 2.973.722.594.305.632.301.737-.003.08-1.076-.563-2.562-1.42-.748-.431-1.684-.757-2.476-1.392-.732-.585-1.856-1.251-2.543-1.635-1.943-1.086-2.289.298-.644 1.596.627.498 1.314 1.031 2.012 1.57 2.714 2.091 5.622 3.422 5.505 3.765-.152.442-5.312-2.299-5.312-2.299s-3.205-.701-.772 1.213c2.823 2.226 5.423 3.342 5.541 3.384.798.287 3.303 2.132 6.233 2.71s7.624 1.345 7.624 1.345c2.301 1.304 21.169 12.795 32.554 19.477l8.341-10.151a972 972 0 0 1-5.088-2.315c.312-.431.502-.721.55-.848"/><path fill="#EECB2A" d="m365.764 238.702 18.899 1.956s.866-15.701.866-23.19c0-9.088-1.206-20.403-2.288-20.151-3.039.707-6.69 2.019-9.127 5.411-8.431 11.74-8.35 35.974-8.35 35.974"/><path fill="#FFDC3D" d="m408.237 462.97-2.404-7.892s-5.207 2.243-7.785 1.873c-2.577-.367-7.61-1.84-7.61-1.84-10.289 3.431-18.718 5.097-17.185 7.859zM407.333 196.242s10.004 1.392 12.635 3.326c2.968 2.177 8.499 10.859 8.499 10.859s-15.462 56.214-14.722 65.951c.74 9.74 2.836 24.165 2.836 24.165s-37.116 2.343-51.173-3.204c0 0 4.439-22.069 4.439-27.864s2.493-63.714 4.268-66.747 5.35-4.759 12.132-6.237c6.782-1.481 21.086-.249 21.086-.249"/><path fill="#F7A491" d="m404.603 180.616 2.476 16.209s-8.649 13.831-14.047 12.157c-4.53-1.403-2.137-13.013-2.137-13.013s.864-3.207 1.416-6.779c.382-2.467.615-5.105.313-6.981-.741-4.591 11.979-1.593 11.979-1.593"/><path fill="#F47458" d="M392.619 182.209c-.74-4.591 11.98-1.593 11.98-1.593l.205 1.342c-.372.901-.827 1.671-1.379 2.26-2.841 3.038-7.282 4.861-11.122 5 .384-2.476.62-5.127.316-7.009"/><path fill="#F7A491" d="M406.689 157.682c.36-.129 2.882 18.461-1.904 23.577-4.787 5.116-14.112 6.79-17.457 2.762-3.7-4.458-3.514-24.438 3.928-29.7 7.441-5.263 15.433 3.361 15.433 3.361"/><path fill="#345462" d="M396.354 146.139c5.752 1.165 14.742 6.121 18.408 12.148 4.507 7.412 1.178 15.624-4.069 19.652-5.246 4.03-5.187 8.707-5.187 8.707l-.816-2.431c-.612-1.823-.862-3.757-.657-5.671.123-1.147.37-2.387.849-3.409 1.262-2.691-2.711-4.478-3.825-6.715-.857-1.724-.899-5.669-2.251-8.517l-1.613-2.174s-3.637-2.204-7.366-2.066c-2.251.083-.853-11.019 6.527-9.524"/><path fill="#F7A491" d="M401.302 171.729c-.038 2.268 1 4.124 2.319 4.146s2.418-1.798 2.456-4.066-1-4.124-2.319-4.146c-1.318-.025-2.418 1.795-2.456 4.066"/><path fill="#13375B" d="M422.795 463.172h-8.234v-6.213h8.234z"/><path fill="#256A85" d="M430.695 323.811c0-.735.547-1.332 1.218-1.332h20.929c.674 0 1.221.597 1.221 1.332v36.943h3.708v-36.943c0-2.97-2.21-5.384-4.929-5.384h-20.929c-2.716 0-4.929 2.414-4.929 5.384v36.943h3.711z"/><path fill="#256A85" d="m469.25 463.451-50.089-2.81c-2.677 0-4.847-2.276-4.847-5.088l-4.749-89.089c-.149-6.229 6.919-7.215 9.596-7.215h54.504c2.677 0 4.849 2.279 4.849 5.091v91.213c.019 4.729-4.631 7.818-9.264 7.898"/><path fill="#34A2CE" d="M467.767 463.442h-52.241a5.98 5.98 0 0 1-5.979-5.977v-89.437a5.98 5.98 0 0 1 5.979-5.978h52.241a5.98 5.98 0 0 1 5.979 5.978v89.437a5.977 5.977 0 0 1-5.979 5.977"/><path fill="#256A85" d="M461.837 463.442h-39.821v-52.054c0-10.113 8.197-18.308 18.312-18.308h3.199c10.112 0 18.31 8.195 18.31 18.308z"/><path fill="#153C4B" d="M443.268 355.426c5.045 0 9.32 2.235 9.494 4.92h4.044c-.149-4.42-6.15-7.975-13.538-7.975-7.385 0-13.386 3.555-13.538 7.975h4.048c.174-2.685 4.448-4.92 9.49-4.92M451.007 322.78h-17.011a2.21 2.21 0 0 1-2.213-2.212v-.743c0-1.221.992-2.213 2.213-2.213h17.011c1.221 0 2.213.992 2.213 2.213v.743a2.21 2.21 0 0 1-2.213 2.212"/><path fill="#F8A492" d="M419.545 235.274s13.005 22.754 13.654 28.823c.649 6.066 2.608 42.25 2.608 42.25s-2.608 15.607-1.307 16.909c1.299 1.301 4.984.867 6.067 1.082.804.161 3.393-.154 4.678-.328a5.2 5.2 0 0 0 1.395-.395l1.788-.829s-3.733-14.723-3.628-15.795c.102-1.072 3.136-41.378 1.404-49.397-1.735-8.016-13.439-34.888-13.439-34.888z"/><path fill="#EECB2A" d="m441.641 237.081-17.475 9.102s-5.681-13.26-9.391-21.094c-3.756-7.93 1.464-26.515 5.462-25.438 8.941 2.406 21.404 37.43 21.404 37.43"/><path fill="#184655" d="M394.801 293.472c.175 2.944.334 5.895.476 8.842.264 4.32-3.907 8.174-9.242 8.182-6.934.019-13.83-.467-20.635-1.439-5.238-.746-8.544-5.08-7.518-9.282a780 780 0 0 0 1.944-8.64c.981-4.221 5.12-6.906 9.369-6.318a118 118 0 0 0 17.135 1.144c4.337-.017 8.163 3.188 8.471 7.511"/><path fill="#0180B2" d="M415.561 289.306s-14.697 4.113-22.002 5.318l.521 7.464 22.5-1.545zM392.191 293.472c.176 2.944.334 5.895.477 8.842.263 4.32-3.907 8.174-9.242 8.182-6.934.019-13.83-.467-20.635-1.439-5.239-.746-8.545-5.08-7.519-9.282a780 780 0 0 0 1.945-8.64c.98-4.221 5.119-6.906 9.369-6.318a118 118 0 0 0 17.135 1.144c4.336-.017 8.162 3.188 8.47 7.511"/><path fill="#184655" d="M376.103 295.8c-8.521 0-15.654-2.37-16.08-2.516l.503-1.481c.146.05 14.704 4.881 26.757.718l.511 1.478c-3.861 1.335-7.913 1.801-11.691 1.801"/><path fill="#355389" d="m383.015 295.458-1.124.185a.613.613 0 0 1-.702-.505l-.107-.646a.613.613 0 0 1 .503-.702l1.125-.185a.61.61 0 0 1 .701.503l.107.646a.61.61 0 0 1-.503.704"/><path fill="#13375B" d="m382.444 295.182 1.01 2.019-1.097.152zm.269-.627-.772.152-.13 3.248 2.434-.337z"/></svg>