<svg xmlns="http://www.w3.org/2000/svg" width="14" height="14" fill="none"><path fill="#0180B2" d="M4.667 6.3v1.4H3.11V6.3zm3.11 0v1.4H6.223V6.3zm3.112 0v1.4H9.333V6.3zm1.555-4.9c.413 0 .809.148 1.1.41.292.263.456.619.456.99v9.8c0 .371-.164.727-.456.99-.291.262-.687.41-1.1.41H1.556c-.413 0-.809-.148-1.1-.41A1.33 1.33 0 0 1 0 12.6V2.8c0-.371.164-.727.456-.99.291-.262.687-.41 1.1-.41h.777V0H3.89v1.4h6.222V0h1.556v1.4zm0 11.2V4.9H1.556v7.7zM4.667 9.1v1.4H3.11V9.1zm3.11 0v1.4H6.223V9.1zm3.112 0v1.4H9.333V9.1z"/></svg>