<svg xmlns="http://www.w3.org/2000/svg" width="46" height="46" fill="none"><circle cx="23" cy="23" r="22.5" stroke="#fff"/><circle cx="23" cy="23" r="20" fill="#fff"/><path fill="#834995" d="M32.237 12.871c-.624-.574-3.149-2.407-8.779-2.431 0 0-6.637-.398-9.87 2.57-1.797 1.797-2.431 4.435-2.5 7.702s-.152 9.388 5.748 11.049h.005l-.005 2.535s-.04 1.026.639 1.233c.815.255 1.296-.526 2.078-1.366a77 77 0 0 0 1.464-1.655c4.038.339 7.138-.438 7.492-.55.815-.266 5.428-.855 6.175-6.977.776-6.318-.374-10.307-2.447-12.11"/><path fill="#fff" d="M32.92 24.52c-.634 5.109-4.372 5.433-5.06 5.654-.295.093-3.021.771-6.445.55 0 0-2.555 3.08-3.35 3.881-.261.26-.546.236-.541-.28 0-.339.02-4.21.02-4.21q-.009 0 0 0c-5.002-1.385-4.707-6.598-4.653-9.324s.57-4.962 2.093-6.465c2.736-2.481 8.371-2.113 8.371-2.113 4.76.02 7.04 1.454 7.57 1.936 1.754 1.503 2.649 5.1 1.995 10.37"/><path fill="#834995" d="M26.091 20.55c.02.422-.614.452-.633.03-.054-1.081-.56-1.607-1.602-1.666-.422-.024-.383-.658.034-.634 1.371.074 2.133.86 2.201 2.27"/><path fill="#834995" d="M27.089 21.105c.049-2.083-1.253-3.714-3.724-3.896-.418-.03-.374-.663.044-.633 2.85.206 4.367 2.166 4.313 4.544-.005.422-.643.403-.633-.015"/><path fill="#834995" d="M29.398 21.763c.005.423-.634.428-.634.005-.03-4.003-2.697-6.185-5.935-6.21-.417-.004-.417-.633 0-.633 3.621.024 6.534 2.525 6.569 6.838M28.843 26.583v.01c-.531.933-1.523 1.965-2.545 1.636l-.01-.015c-1.037-.29-3.478-1.548-5.02-2.776a12.8 12.8 0 0 1-2.084-2.083 16 16 0 0 1-1.513-2.29c-1.046-1.89-1.277-2.736-1.277-2.736-.33-1.021.698-2.014 1.636-2.544h.01c.452-.236.884-.158 1.174.191 0 0 .609.727.87 1.086.245.334.574.87.746 1.17.3.535.113 1.08-.182 1.306l-.59.471c-.299.241-.26.688-.26.688s.875 3.307 4.142 4.142c0 0 .447.039.688-.26l.471-.59c.226-.295.771-.482 1.307-.182.722.408 1.64 1.042 2.25 1.616.344.28.422.708.187 1.16"/></svg>