<svg xmlns="http://www.w3.org/2000/svg" width="46" height="46" fill="none"><circle cx="23" cy="23" r="22.5" stroke="#fff"/><circle cx="23" cy="23" r="20" fill="#fff"/><path fill="#2CB742" d="M31.81 14.078a12.37 12.37 0 0 0-8.816-3.656c-6.873 0-12.465 5.593-12.465 12.466 0 2.195.572 4.34 1.662 6.233l-1.77 6.457 6.61-1.735a12.4 12.4 0 0 0 5.958 1.516h.005c6.868 0 12.584-5.593 12.584-12.466 0-3.33-1.415-6.457-3.768-8.815"/><path fill="#fff" d="M22.994 33.259c-1.864 0-3.689-.5-5.278-1.443l-.376-.225-3.92 1.028 1.045-3.824-.247-.393a10.33 10.33 0 0 1-1.584-5.514c0-5.711 4.65-10.36 10.366-10.36a10.27 10.27 0 0 1 7.322 3.037c1.954 1.96 3.156 4.56 3.15 7.328 0 5.717-4.767 10.366-10.478 10.366"/><path fill="#2CB742" d="M28.676 25.499c-.308-.157-1.841-.91-2.128-1.01-.286-.108-.494-.158-.701.156-.208.315-.803 1.011-.989 1.224-.18.208-.365.236-.674.08-1.83-.916-3.032-1.635-4.24-3.707-.32-.55.321-.51.916-1.701.101-.208.05-.388-.028-.545-.079-.157-.702-1.69-.96-2.313-.253-.607-.511-.523-.702-.534-.18-.011-.388-.011-.595-.011-.208 0-.545.078-.831.387-.287.315-1.09 1.067-1.09 2.6s1.118 3.016 1.27 3.223c.157.208 2.195 3.353 5.323 4.706 1.976.853 2.751.926 3.74.78.6-.09 1.841-.752 2.1-1.482.258-.73.258-1.353.18-1.482-.074-.141-.282-.22-.59-.371"/></svg>