<svg xmlns="http://www.w3.org/2000/svg" width="46" height="46" fill="none"><circle cx="23" cy="23" r="22.5" stroke="#fff"/><circle cx="23" cy="23" r="20" fill="#fff"/><path fill="#FFDF1D" d="M32.333 15.6H13.667c-1.027 0-1.867.84-1.867 1.867v13.066c0 1.027.84 1.867 1.866 1.867h18.667c1.027 0 1.867-.84 1.867-1.867V17.467c0-1.027-.84-1.867-1.867-1.867m-1.12 3.733-7.56 5.974c-.373.28-.933.28-1.4 0l-7.466-5.88c-.28-.187-.374-.654-.094-1.027.28-.28.654-.373 1.027-.187L23 23.067l7.373-4.854c.373-.186.84-.093 1.027.187s.093.747-.187.933"/></svg>