<svg xmlns="http://www.w3.org/2000/svg" width="46" height="46" fill="none"><circle cx="23" cy="23" r="22.5" stroke="#fff"/><circle cx="23" cy="23" r="20" fill="#fff"/><path fill="#0586D8" d="M28.49 31.624a10.2 10.2 0 0 1-3.773 1.458q.304-.381.583-.776a.263.263 0 0 0-.038-.348c-.226-.203-.358-.424-.495-.695a.263.263 0 0 0-.454-.03q-.284.425-.602.83v-2.536c0-.167-.037-.33-.11-.48l-.85-1.78c-.111-.233-.462-.153-.462.105v.48h-2.295a14.7 14.7 0 0 1-.796-4.141h1.582c.1 0 .169-.098.136-.192a1.9 1.9 0 0 1-.063-1.056.143.143 0 0 0-.14-.174h-1.515c.067-1.429.337-2.82.796-4.141h2.295v2.578c0 .148.127.263.275.25.285-.026.545.017.81.115a.25.25 0 0 0 .337-.236v-2.707h2.295a14.7 14.7 0 0 1 .796 4.141h-.315c-.193 0-.256.259-.085.348l1.671.866c.264.137.556.208.853.208h4.276a10.2 10.2 0 0 1-1.036 3.82c-.151.399-.353.605-.685.92a.336.336 0 0 0-.007.481l.65.65a.335.335 0 0 0 .513-.047A11.6 11.6 0 0 0 34.648 23c0-6.423-5.227-11.648-11.648-11.648-6.425 0-11.648 5.229-11.648 11.648 0 6.43 5.234 11.648 11.648 11.648 2.376 0 4.587-.715 6.431-1.94a.24.24 0 0 0 .037-.368l-.683-.683a.24.24 0 0 0-.295-.033M32 18.148a10.15 10.15 0 0 1 1.201 4.141h-4.976a16.2 16.2 0 0 0-.721-4.141zm-.93-1.422h-4.086a16 16 0 0 0-2.267-3.808 10.24 10.24 0 0 1 6.353 3.808m-7.36-2.79a14.7 14.7 0 0 1 1.718 2.79H23.71zm-1.42 2.79h-1.718a14.7 14.7 0 0 1 1.717-2.79zm-1.008-3.808a16 16 0 0 0-2.266 3.808H14.93a10.24 10.24 0 0 1 6.352-3.808M14 18.148h4.496a16.2 16.2 0 0 0-.721 4.141h-4.976c.102-1.49.525-2.893 1.2-4.141m0 9.704a10.15 10.15 0 0 1-1.201-4.141h4.976c.06 1.423.305 2.812.721 4.141zm.93 1.422h4.086a16 16 0 0 0 2.267 3.808 10.24 10.24 0 0 1-6.353-3.808m7.36 2.79a14.7 14.7 0 0 1-1.718-2.79h1.717z"/><path fill="#0586D8" d="M32.719 32.884a.82.82 0 0 0 0-1.16l-3.05-3.05 1.277-1.23a.82.82 0 0 0-.192-1.32l-7.656-3.967a.82.82 0 0 0-1.111 1.095l3.828 7.656a.82.82 0 0 0 1.303.224l1.37-1.32 3.07 3.072a.82.82 0 0 0 1.16 0m-5.936-3.708-2.2-4.402 4.402 2.281z"/></svg>