<svg xmlns="http://www.w3.org/2000/svg" width="325" height="220" fill="none"><g fill="#D3DFF4" fill-rule="evenodd" clip-rule="evenodd" opacity=".3"><path d="m210.213 172.246 1.224 2.673.244 1.218 2.415.678-1.344 2.357-1.814-.347-.355 1.605-2.968-.374-2.405 2.773h-2.393l-5.077 2.461-.633.956-.098 1.934-3.358.657-3.327 2.993.476 2.308 2.088.725 1.109-.478 1.384-1.388 3.71-.097 5.474 4.865 2.018.084 1.514-.38 4.302 3.003 1.208 4.382-.389 2.343-1.869 1.071-.078 1.178.281 2.541-1.95 1.864-.784 1.416 1.154 1.31 3.068.453 1.358 1.999 3.062.971.604-1.815 1.361 1.575 2.468-.744 2.989-2.557 2.03-2.037 2.349-4.808 5.614-2.861 2.626.174 1.425-1.719 2.429 1.989.756-.829.276-2.209 1.5-.847.832-1.208 1.821-.347.696-2.887 2.463-2.091 2.355-.196 3.857 3.69 2.886-.166 1.392-2.142 3.301 1.382 2.238-1.471 1.784-.621-1.688-2.881 1.128-3.488 1.179-1.479 2.635-.247-.539-1.487-4.667-.347-5.542-.434-1.751 4.254-2.285-1.461-1.075-1.462-2.059 2.647-2.81 1.365-2.884 2.147-4.142-1.756-2.213-.372-2.267-2.475 1.73-2.559-1.485-2.731-3.139-1.08-.69-1.299h-2.259v-2.512l-2.308-.858-1.421-1.604-1.934-.462-.802-1.969-2.967-.483-1.392 2.978-1.444-.967-.179-2.614-.936-.669-1.454 2.009-3.545-3.273-1.847-1.852zM43.487 44.794l1.852-1.05 3.059 2.806-1.324 2.266.524 1.28 1.795-.46 2.233 2.815 2.937-.691 2.968.709.949-.423.037-1.058-1.15-.734.742-1.089.311-1.72 2.572-.189v-1.684l1.21.187-.082-1.07 1.286-.732 3.398-.445 4.11 1.604.521-1.047-.199-2.552 1.507-.627 1.12-1.168v-2.36l1.942-.79-.456-1.72-1.9-.047-.539-1.984 2.293-1.098.401-1.068-2.782-1.601-1.203-3.111h-4.026v-3.4l-.657-1.318 1.366-.762-.04-1.672-1.226-1.089-.165-1.552 2.292-2.78.018-1.56-2.05-2.226-2.987 1-1.488-2.196-2.813 1.883-11.07-.896-1.723 1.976.09 2.555-5.29 3.888-3.306-2.398-4.058.25-.072 1.4 2.102 4.407-2.206 2.833 4.389 5.022.625 5.198 4.34 3.86-4.616.377 1.94 3.736zM131.6 32.365l.112 1.766 3.476 1.776.146 2.98-1.281 1.161 1.91 2.3-.684 1.495 1.336.671.366 2.71-1.939 1.882.764 2.103-1.296 3.095 2.543.622.553 2.625.989 1.788.412 3.513-1.233 1.629.345 1.384 1.499 1.648-2.312 2.462-3.618 1.404v2.114l1.027 1.919 1.214 1.004-1.559 1.294 1.119 1.213-.617 1.288.519.566-.055 1.454-1.203 1.25 3.861 3.324.083 1.615 2.246-.04 1.233-2.429 1.342-.051 2.439-2.192 1.179 1.755 1.062-.046 1.917.984.824-2.615 2.783.196 1.449-1.67.998 1.846.935-.61 2.376.404.384-1.54 2.028-2.226 1.918-2.461-1.121-1.533 1.368-.633-.231-4.471 1.376-2.558 3.256-.715 3.456 1.827 1.956-1.396 1.779-3.022-.195-2.347 1.659-1.323.685-2.55 1.591-.34 1.243-2.88-2.997-2.483.991-2.13-2.994-2.149-4.704 3.038-3.774.298-3.082-2.27.576-1.978-2.931-2.808-5.269.3.515-2.53-1.864-1.735-1.304-2.217.566-3.653-2.884-3.874-.01.003-1.779-1.29-1.075-3.872-1.385-1.06-4.708-.174-1.356 1.724-2.142-.322-.261-1.663-1.241.069-2.53 3.63-1.175-.19.602 1.645zM98.847 88.644l1.646-1.29 2.178 1.698 1.559-.681.173-1.952-.559-3.694-1.756-3.33.721-1.244.556-1.993.217-1.183-.771-1.242 1.403-1.364-2.346-1.791-2.617-2.725.775-3.731 1.449-.424.219-2.864-.696-2.632-1.193.855-2.266-2.12-3.195-3.56 1.466-1.766-1.184-2.715-1.03.117-1.557.23-1.882 1.213-1.722-.188-2.65 2.754-2.398 2.84-1.71 1.21H80.07l-1.439 2.168-1.417-.198.477 1.23-.604 2.072-1.126 2.027-.227 2.507.989 2.886.296 4.305-2.25 2.305 1.05 3.253.49 3.55-1.225 2.082.75 3.012-.724 2.659-.186 3.587.67 1.724-.425 3.686 2.625 3.952 1.957.099.683 2.379.514-.206.149-3.005 1.358.067.581.96.644-1.938 1.99.175.788 1.918 1.2-1.534 1.127.266.271.993 1.374-.077.899-1.113 1.454 1.131 1.116-1.663 1.907-3.404-.19-7.211 1.763-2.632z"/><path d="m102.022 26.492-1.109-.876.039 2.339-1.44 1.072.413 1.747-1.407 2.289-.345 2.22-2.784 1.61-.087 2.485.836 1.334-.573 1.39 1.248 2.265-1.292 2.146-.447 2.063 1.363 3.123-1.382 1.666 2.867 3.194 1.928 1.803 1.467-1.052.921 3.474-.257 3.329-1.496.437-.649 3.134 2.388 2.49 2.449 1.869 1.809-.636 3.048.05 2.628-.734 1.774.866 1.65-1.608 2.665 1.04 2.076-.222 1.753-1.715 2.442-.332.519 3.65-.508 2.462 1.284 1.978h3.724l2.81-1.624 1.694.077-.889-1.667v-2.62l3.849-1.491 1.883-2.008-1.253-1.377-.44-1.771 1.258-1.66-.376-3.194-.976-1.763-.498-2.374-2.828-.693 1.457-3.481-.809-2.237 1.993-1.933-.291-2.156-1.547-.779.76-1.659-2.022-2.436 1.471-1.336-.117-2.412-3.471-1.776-.148-2.31 2.128-2.2-.588-1.614-1.273-.205-1.824-2.603.269-2.973-1.219-1.878-1.292-.07-1.25 2.867h-2.44l-.968 1.7-.215 3.36-2.369-2.608-.262-3.147-2.876-.881-1.468 1.862-2.322-3.676-1.801 2.469-2.896.501-1.372-2.526-.847 3.48-1.613.97-.907-.827zM52.598 90.053l2.126.047.561 1.024 1.345.77.865 2.104 3.28-.138 3.155 2.36.468 2.868 1.895.77 2.454 2.097 2.22-1.278 1.423 1.042 1.3 2.332 2.928.657.676-.61-2.68-4.037.432-3.746-.663-1.712.194-3.755.702-2.582-.769-3.091 1.242-2.11-.459-3.315-1.134-3.519 2.308-2.366-.275-3.992-1.004-2.928.248-2.74 1.154-2.07.535-1.837-.748-1.927.13-1.945-2.871-.3-1.84.586-2.51 2.18-3.318-.2-1.648-.262-.903 1.151-.423 3.627-.597 2.547-2.736 1.526-2.745-.141-.88 1.04.457 2.537-2.34.308-1.412 2.268-2.524.716-1.093 1.586 1.37 1.241.433 2.876.834 2.996-.685 1.669-.116 1.334h2.178l.418 1.185-1.836 1.275z"/><path d="m67.55 17.435 1.243 1.106.054 2.236-1.198.669.48.97v2.988h3.859l1.268 3.276 3.013 1.736-.642 1.698-2.079 1 .315 1.162 1.901.047.684 2.57-2.047.833v2.216l-1.351 1.406-1.246.517.18 2.311-.809 1.622-4.44-1.733-3.156.414-.898.508.109 1.408-1.26-.194v1.557l-2.656.193-.256 1.424-.495.725.942.599-.06 1.707-1.245.552-.56 1.287.29.397 1.398-.774.781 1.304-.614 1.18-.133 2.436 1.264 2.145 2.51.207.206-1.773 1.189-1.52 1.936.309 3.071.185 2.43-2.11 2.053-.655 3.496.367-.156 2.345.069.176 1.382.194 1.41-2.124h1.72l1.519-1.076 2.365-2.798 2.845-2.956 1.795.194 1.82-1.172 1.681-.247 1.044-.121.444-2.05 1.176-1.952-1.221-2.22.566-1.373-.776-1.24.103-2.95 2.818-1.63.323-2.072 1.346-2.191-.443-1.875 1.504-1.12-.054-3.192 1.551 1.221 1.433-2.058.381-2.375-1.218.153-1.44-1.616-2.132 1.884-1.587-.227-.272-2.739-1.542-.547v-1.96l-2.39-.619-.872 1.31h-2.025l-3.396-2.512-3.547.275-1.17-1.628-3.315.09-1.877-2.6-3.626.265-1.001-.755-2.593 1.791-.021 1.722-2.267 2.75z"/><path d="m15.514 86.844.917 2.43 2.95.564 2.09 2.956 2.352.471 1.866 1.873.727-2.713.097-3.55 1.704-1.8 1.915-2.935 1.869.557 2.53-.797 3.388.142 2.81-.573 2.252.225.512-.804-1.58-.837-.21-2.061.867-2.513.451-2.717 2.164-.69 2.707.404.83.753 1.162-1.686 2.512-.713 1.437-2.308 2.03-.267-.4-2.229 1.213-1.438 2.859.145 2.392-1.333.539-2.287.168-1.437-2.77-.23-1.488-2.526.149-2.712.528-1.014-.36-.602-1.357.752-.753-1.032.596-1.372-2.617-.625-3.144.739-2.23-2.81-1.91.493-.803-1.964 1.239-2.118-2.45-2.248-1.853 1.049-2.336-2.165.151 3.042-2.29 2.87-5.266.36-2.015 3.25-6.47 4.962-3.772 4.325-6.339 5.552-2.697 3.756.332 2.171 1.933 2.864-1.87 4.022 2.36 2.542zM174.297 120.487l2.872 2.332-.671 3.012 3.674-.179 1.456 1.727 2.083-2.27 2.88.609 2.708.828 2.369-1.038.135-2.431.644-2.856 1.794.719 2.413-2.327 1.902.621 4.94-4.628 3.093-2.421-1.571-6.593 5.993-3.996-3.021-1.538-1.264-1.844 1.78-.836 3.121.334.723-.422-2.891-2.271-2.976.046-3.713-.704-.668-3.028-3.286-1.085-5.205-.179.058.149-.051 2.768-4.62 1.647-2.608-2.863-2.899-.13-1.521 1.654-.422 3.184-2.167-1.295-2.582 2.542-1.192-2.34-2.095-.174-2.869.48.089 2.052-2.499 3.274-2.409-.69-2.48 1.1-2.776-1.026-4.766-.367-2.519 2.888-.47 3.462-2.251-1.284-3.277 3.479-1.23-1.237-2.253 1.437-1.751 2.119-1.631-1.204-1.235 1.278 3.039 2.243.738 1.678.832 1.713 3.324.093.522.593 1.494-1.317 3.495.201 1.427.78 1.45-1.727 1.331-.121.918 1.702 2.243-.977 1.818-1.826 2.653.426 1.398 3.131 2.89-.589 1.846.503-.108 1.371 2.011-1.78 3.068.275-.45 2.434z"/><path d="m267.221 100.288-1.845 1.184-.57-2.395-.957-.198-.324 1.349-1.947-.115-1.252-1.341-1.878 3.182-1.869.302-.354-2.639-2.477-1.816-.185-2.24-2.654-1-.336-2.935-1.622-.939-2.464 1.997-2.902-1.48-3.411-.048-4.889-4.43-2.932.045-2.347.046-1.893.232-2.253 1.318-2.243.844-3.004 3.06-.701 2.068.942 1.704-.641 2.796-3.488-.104-2.912-.912-.939-.214-1.128.659-3.148-.335-1.069.5.827 1.206 3.723 1.893-6.45 4.301 1.563 6.563-3.348 2.619-4.961 4.652-.218 2.41 1.094 1.333-.403 3.931-1.72 1.636.193.931 1.331 1.593 1.716-.273 3.066.959.708 1.423 3.299-2.705 2.5 2.458 4.084-.646 3.488-.68 2.955.989 2.288-1.104 3.254-1.412 2.748.435 4.122-.494.524-4.19-1.571-.909.326-2.189-1.232-.353-.538-1.375 1.526-1.711-1.407-1.017.489-3.609 1.615.434 1.578-.888 5.157-.048 1.787-.597 1.952 1.166 3.002-2.105 2.679 1.826 2.541-1.328.32 1.443 1.677.197-.103 1.865 1.505 1.799-.609 1.697.5.472 1.692-.757 1.514 1.154.957-.872 2.411-.002.563-1.085 1.626-1.547-1.261-1.135.369-3.508 2.92-.223.531 1.067 1.763.038.436-1.713-.805-1.022.927-.659.041-2.228-2.035-1.14-.148-4.52 1.17-2.032z"/><path d="m238.011 54.508-1.786.612-1.728 2.578-1.896-.683-2.722 2.542-.085-.005-.386 1.276.611 1.176-1.87 1.83.734.584.408 1.68 2.61.42.633 1.132 2.314-.506V70.1l1.707 2.106 1.231-.08.959-.965.997 1.4-.5.914 1.391 1.252-.852 1.304.789 1.641-2.82-.047.731 1.31-.622 2.08-2.004 2.063-2.601-.576-.551-.59-.675.892-.438 1.976.906 1.448 2.993-.046 4.897 4.435 3.332.047 2.702 1.38 2.479-2.008 2.177 1.256.329 2.879 2.664 1.003.195 2.335 2.463 1.807.311 2.319 1.076-.175 2.113-3.584 1.596 1.708 1.284.077.299-1.243-.134-4.699 1.842.76 1.327-1.195h2.048l1.049.81.632-1.269 3.487-3.55.425-2.266 2.003-2.719 1.938 2.48 1.205-1.115.976.915.044 1.48 2.195.552.63 1.126 2.221-.385 1.983-1.415.088-1.896-.092-2.585-1.612-2.125-2.07-2.753-1.095-3.252 1.381-2.488-.614-2.283.993-1.994-.895-2.792.777-2.293.124-1.657-3.259-3.618-2.064-.271-3.281-3.67.254-3.05-2.42.086-.801-2.95-2.6.307-.172 1.988-2.163 1.283-4.362-.269-3.062 2.733-.189 2.077-1.79.336-3.169-3.954-1.059 1.881-1.738-.217-2.583-4.026-4.303.17-3.55 4.033-.66-.903-1.264 1.225z"/><path d="m217.343 52.67-.824-2.867-2.727 1.93-2.897-1.62-3.005 2.12-2.89-.787h-3.612l-1.731-1.248-.816.861-2.482.098-3.661 3.437-2.237 1.099-3.657-.248-2.081-1.317-1.063.818-1.741 1.696-1.439-.589-1.187 2.758 3.239 2.414.431 2.446 3.084 2.756-.656 3.33 2.833 1.352.388 2.09 3.85 3.235-1.444 6.944 2.381 6.144 5.51.19 3.651 1.205.66 2.978 3.314.63 3.107-.048 3.305 2.594 1.005.233 2.863.894 2.972.088.498-2.163-.957-1.73.818-2.413 3.172-3.233 2.312-.87 2.31-1.353 2.028-.245 1.9-.039-.85-1.358.512-2.311 1.129-1.495.874.935 2.147.474 1.702-1.75L237.9 79l-1.074-1.93 2.881.05-.542-1.127.763-1.174-1.365-1.228.545-.993-.43-.602-.654.657-1.713.111-2-2.471v-2.48l-2.054.449-.697-1.252-2.708-.438-.447-1.846-1.07-.849 2.022-1.98-.528-1.017.415-1.37-1.258-.099-2.732 1.419-4.451.474.657-3.252-2.408-1.942.19-1.998z"/><path d="m142.839 107.541.807.699 2.485-1.585 1.144 1.148 3.185-3.384 1.926 1.101.386-2.832 2.802-3.213 5.112.394 2.639.976 2.46-1.09 2.245.643 2.156-2.828-.101-2.333 3.402-.57 2.462.206.996 1.952 2.356-2.32 1.823 1.09.337-2.54 1.803-1.966 3.371.153 2.52 2.765 3.932-1.404.043-2.286-2.67-6.892 1.41-6.786-3.752-3.153-.371-2.008-2.964-1.414.675-3.44-2.994-2.676-.424-2.418-3.143-2.342-1.286.275-.645 2.403-1.572 1.253.186 2.23-1.927 3.27-2.317 1.655-3.573-1.89-2.824.62-1.188 2.207.242 4.683-1.102.511.971 1.33-2.18 2.798-1.95 2.144-.471 1.89-2.658-.453-1.251.817-.902-1.677-1.117 1.284-2.629-.185-.886 2.82-2.358-1.21-1.22.05-1.005-1.488-2.121 1.908-1.222.046-1.236 2.435-2.552.045.046.918-2.505 1.85.173 1.283 1.241-.416-.313 2.295 1.08.318.452 2.67.518 1.996 1.694.049.285 2.537 1.981.144-.053 2.524zM201.899 7.654l-1.628 1.634.05 2.39-3.778 1.896-1.019 1.956.131 2.31 1.233.762.397 6.276-2.511 2.289 1.452 3.057-2.16 3.134.288 1.446 3.668 2.39.409 3.642-1.34 1.343 1.094 2.477-2.011 2.02 1.231 1.69-.773 2.24 1.967-.077.99-1.044 1.972 1.422h3.513l2.715.736 3.075-2.167 2.896 1.62 3.068-2.17.982 3.423 1.995 1.515-.189 2.007 2.437 1.967-.578 2.85 3.623-.385 2.776-1.441 1.812.14 2.787-2.606 1.812.653 1.595-2.38 2.106-.723 1.88.46 1.104-1.068-1.253-1.714.164-1.377-2.712-.44-.853-4.474.972-3.459-3.347-5.63.963-1.32-.898-1.04-2.551 1.044-.733-4.238-2.943.083-2.773 1.165-2.907.201-.182-2.002-3.182-.083-2.078 1.138-1.457-1.35 1.238-2.397-2.744-1.835 1.39-1.595v-2.042l-2.865-3.062 1.732-2.149 3.402-.614.225-1.647-5.718-5.56-.089-4.044L206.55 0l-3.951 2.95-.965-2.328-1.155-.103-1.269 4.386z"/><path d="m153.736 39.013 1.165 1.978 2.03 1.89-.434 2.142 4.803-.273 3.338 3.197-.564 1.93 2.618 1.926 3.442-.272 4.893-3.16 3.657 2.62-1.006 2.16 2.8 2.318 1.321.54 1.511-1.47 1.383-1.069 2.288 1.447 3.374.228 2.036-.999 3.626-3.406.788-2.283-1.334-1.838 2.073-2.082-1.092-2.479 1.415-1.422-.35-3.128-3.647-2.376-.377-1.891 2.114-3.066-1.491-3.139 2.618-2.383-.365-5.737-1.234-.763-.156-2.742 1.168-2.24 3.629-1.823-.045-2.281 1.412-1.416-2.535-2.592L199.934.47l-3.039-.272-3.893 3.547-1.907-.82-2.017 1.38-2.855-2.404-3.157.08-.62 6.027-3.528 1.819-2.563-.477-1.329-.89-8.93-.438-2.123 2.612-1.197-1.9h-2.864l-.505 2.207-3.68 3.603-1.279 4.668-1.437.362-.66 2.15.084 1.991 1.08.904v2.685l1.19.828-.51 2.97-2.732.401 2.846 3.82zM275.292 143.84l.445-1.861-2.463-1.44-2.789-2.048.38-2.951 2.492-.192.465-1.959 1.887-.615.411-2.51-2.531-.759-2.44-1.98-3.164-.097-1.14-2.441-2.615-2.623-1.278-2.827-.274.259-.671 1.296h-2.529l-1.136 1.038-1.617-1.232-1.727.77-1.02-.958.625-1.739-1.442-1.727.089-1.569-1.555-.184-.25-1.13-2.206 1.152-2.639-1.799-2.984 2.092-2.037-1.217-1.636.545-5.102.047-1.648.927-1.236-.331-.365 2.684 1.631 1.174-1.705 1.914.319.816 1.428.41-.34 2.294 1.565.902-.618 4.963-4.618.555-2.666-.423-3.101 1.346-2.082 1.006 1.236 1.669v2.799l1.792 1.118 1.311-1.922 1.504 2.204v3.39l1.815 2.875-.223 1.836 2.7.965 1.508 2.926-2.76 3.269 2.364.822-.957 2.45 3.96 1.696 2.66.554 1.056 4.413 1.573-1.289.941-2.126.996 2.331 1.241.293 5.001-5.193 4.55-4.839 5.057-.553h1.479l1.214 1.627 2.97-3.744 2.556-.915 2.018-.965 1.931 1.265 1.154-2.4 1.483-.993-.147-2.355z"/><path d="m235.495 160.034-4.49-1.927.941-2.412-2.576-.897 3.035-3.593-1.246-2.413-2.907-1.04.253-2.074-1.795-2.843v-3.38l-.965-1.418-1.159 1.699-2.482-1.552v-2.92l-1.275-1.718-2.843-.953-3.361.657-4.363.688-2.346-2.31-3.446 2.827-.905-1.821-2.729-.854-1.09.174 1.04.741.163 3.296-1.648.172.481.837.814.665.201 3.983-.729.958-2.397.755-.97 1.862 2.483 1.403.539 1.925-1.257.203v1.855l-2.327.429v1.908l-3.173.551-.918-1.796h-1.781l-.795 1.222-2.548.325-.33 1.494-1.804-1.24-.713.754-.617 1.292-3.505.319.492 1.301 2.809 2.222 2.607-.376.29.772 3.6.49-2.48 3.462-2.934-2.093-3.585-.263-4.738-.092-1.472-.955-2.572.986 2.045 2.508 2.611-1.399 2.555 1.189 2.761-.476.568 2.269-3.45 1.386-1.64-.604-1.282 1.285.337.942 2.669.335 2.891-.375 1.794 2.163 1.747-.185 1.437 2.972 2.82-.251 3.246-1.448 3.171.275 3.63-.174 1.142-1.666.912 1.463 2.166-2.743.804 3.324 2.106.253 1.336.778 1.85-1.648.002.005 2.167-2.33 1.422-2.194 1.671 1.768 1.523-1.35 2.691 2.874 2.091-4.29 2.803 4.081 1.018-1.704 2.057 1.651.985 1.208-1.11 1.02 1.145 2.143 1.522-.437.576-2.307-.483-2.233 2.016-.787 1.011 1.352-.477 1.623v1.332l1.371.798.97-1.2.254-2.204-.634-2.185.77-2.65 1.222 1.124 2.124-1.74-1.034-4.333zM307.361 111.745l-3.563-.148-.569-2.719-2.615-.142-1.551-3.3-2.495.372-1.102-1.046.932-1.672-.928-1.695-2.299-.96-1.349-3.508.385-3.093-.229-2.993-1.64-2.179-2.726-.309-2.105 1.501-2.718.472-.702-1.256-2.364-.594-.05-1.665-.449-.42-1.266 1.173-1.86-2.383-1.511 2.049-.43 2.309-3.544 3.604-.886 1.78-1.422-1.098h-1.658l-1.426 1.284-1.388-.573.109 3.81 1.304.273.475 1.989 1.573-1.008 1.155 1.159-1.3 2.258.136 4.059 2.049 1.148-.053 2.828-.686.486.619.786-.609 2.388-2.514-.058-.514-1.033-2.113.161-.293 2.786 1.492 1.341-1.299 1.236 1.314 2.903 2.612 2.622 1.043 2.23 3.013.093 2.497 2.026 2.883.863-.538 3.305-1.913.621-.485 2.047-2.448.191-.283 2.198 2.508 1.845 2.785 1.625-.601 2.522-1.801.743.103 1.656 3.195-2.137 1.696-.601 1.211.974 3.035-5.568 1.787-.631.928 1.022 1.984-.161.809-1.176 5.238-.094.951 1.908.927-2.796-1.016-2.41 2.134-2.144-2.404-.689 1.661-2.846v-5.393l2.96-1.63 2.406-.358 2.545-1.787.913-5.129 3.285-.347-.214-2.094z"/><path d="m324.234 101.333-2.846.816 1.114-3.05-1.758-2.12.085-2.65-3.477-.538-.196-4.198 2.321-2.62 2.898.455 1.384-1.08-.236-.943-1.828.918-1.767-1.494-2.125-.088-1.934-1.123.529-2.238 3.679-1.08.603-2.247 2.654-3.373-.335-2.863-2.949-3.237 2.081-3.215-2.411.556-2.438 2.538-1.727-1.253-2.534.094-1.007-3.394-2.179-.73-2.342 1.224-2.995-4.067-2.711 2.806-2.984-1.873h-1.933l-1.683-2.047-3.126.523-2.914-.682-.358-1.971-1.408-.27-.346 3.993-2.238 1.079-.129 1.686-.74 2.188.908 2.833-1 2.008.619 2.295-1.372 2.472.993 2.942 2.014 2.681 1.714 2.26.098 2.78-.083 1.799 2.808.317 1.875 2.492.246 3.205-.376 3.01 1.217 3.166 2.261.946 1.162 2.119-.874 1.568.609.579 2.634-.394 1.583 3.373 2.705.145.571 2.713 3.369.14.992 1.104.243 2.369 1.513 1.119 2.388-1.627 1.191-.327 1.502 1.685 2.583-1.212 2.944.538 1.723-1.02-.965-5.19.643-2.106.371-2.994 2.263-1.259zM42.036 112.027l.094-3.198-2.943-2.996-1.54 1.077-1.59-1.197-.087-4.024-2.259.957-2.455-2.102-1.184-2.854-2.248-1.715-2.112-.048-2.154-2.165-2.4-.481-2.088-2.954-3.035-.581-1.112-2.944-2.32-2.248-2.121-.185-.527-1.143-.864.062-.606 3.047-3.669 2.872-.71 4.903-.911 1.32-2.133.268L0 97.666l.201 2.834 2.11.133 1.348 5.266 3.219.268 1.312 4.478 2.935-1.204 1.645 4.266h2.51l2.528-3.242 4.758 4.912 1.85-1.326 4.976 3.511 2.582-1.772 4.024 3.903 3.81-2.899 3.627.65.459-2.037.086-1.523zM95.757 102.702l-1.485.039-1.365 2.032-1.492-1.161-.718.891-2.044.113-.3-1.106-.485-.112-1.556 1.992-1.014-2.469-1.241-.111-.877 2.638-1.036-1.71-.537-.027-.138 2.812-1.387.557-.74-2.582-1.599-.079-.97.876-3.435-.77-1.36-2.439-1.046-.768-2.246 1.295-2.674-2.289-1.812-.735-1.614 1.256.797 1.866-.101 2.403-1.971 2.086-.797-.802-1.968.515-2.893 2.86-2.977 2.891-2.699 3.129-.315 3.292 1.03 1.424-1.623 3.722h2.395l4.704-4.451 8.854-.001 1.356-1.63 5.614.535 3.21-5.637 7.498-.672 1.665-4.599 3.46 2.084 1.458-1.463 2.95 1.213 1.888-2.031 1.765.818 1.89-1.659-.756-2.418z"/><path d="m49.108 119.236.351-3.668 2.827-3.275 2.99-2.906 2.997-2.96 2.404-.629.625.629 1.45-1.538.09-2.079-.913-2.135 1.937-1.509-.432-2.64-2.828-2.12-3.465.148-.938-2.282-1.316-.754-.486-.885-2.148-.048-1.211-2.597 1.87-1.3-.154-.436h-2.383l.171-2.002.647-1.575-.789-2.849-.415-2.718-2.337-2.121-2.424-.36-1.73.55-.403 2.431-.844 2.447.168 1.656 1.843.974-1.008 1.58-2.498-.252-2.796.57-3.357-.14-2.597.82-1.645-.49-1.725 2.634-1.591 1.689-.094 3.408-.774 2.894 1.834.043 2.502 1.906 1.191 2.869 2.105 1.805 2.68-1.141.1 4.557 1.07.807 1.594-1.114 3.421 3.484-.093 3.19 1.951 1.861-.102 1.813-.5 2.215 4.698 6.205 1.447-3.323zM183.627 153.947l1.09-1.151 1.525 1.048.238-1.082 2.678-.342.82-1.257h2.397l.888 1.734 2.338-.406v-1.904l2.327-.428v-1.866l1.116-.179-.317-1.125-2.741-1.551 1.312-2.525 2.447-.771.507-.663-.182-3.548-.704-.574-.944-1.643 1.964-.207-.123-2.523-1.394-.992-1.54-1.844-.281-1.356 1.794-1.703.358-3.51-1.092-1.332.229-2.517-1.542-.505-2.432 2.346-1.531-.613-.495 2.197-.151 2.716-2.853 1.25-2.875-.881-2.559-.541-2.288 2.495-1.678-1.989-4.113.2.753-3.375-3.113-2.531 1.168-1.008.309-1.665-2.249-.201-2.836 2.512.179-2.256-1.289-.351-3.193.649-1.45-3.258-2.097-.338-1.695 1.704-2.793 1.215-.981-1.825-.758.068-1.592 1.896-1.705-.933-3.156-.18-1.324 1.167.51.58-1.833 1.046.918 2.096 1.394 1.05-.331 3.147 2.046 1.526-.466 3.639 2.465.64 2.58-.547.694.985.942-1.274 2.438 3.153-.789 2.727-.183 2.598 1.408 2.118 1.998.383 1.098-.903 1.901 1.229-1.293 1.481 2.141.928 1.513 1.833-1.054 3.333-3.149-.049-.887.659.193 1.164 2.823 2.259v2.632l-1.128 2.015h1.846l1.415 1.086 3-2.843.42-2.001 1.636 1.01-.198 1.692-.15 1.79.714-.166 1.065-1.359 3.163 1.633 1.63-1.557-.65-2.518 1.558-.524.362.96 3.349-.306z"/><path d="m164.538 153.755-2.783-2.224-.281-1.694 1.297-.964 2.932.046.845-2.672-1.241-1.505-2.703-1.171 1.369-1.569-1.047-.676-.99.813-2.468-.474-1.633-2.459.198-2.837.73-2.52-1.838-2.375-.958 1.301-.92-1.302-2.359.5-3.044-.792.486-3.796-2.041-1.523.333-3.148-1.265-.95-1.171-2.673 1.681-.957-.797-.902-3.418-.097-.868-1.787-2.114.768-1.811-.91-1.821.582-.29 2.483-3.654.211-.814-1.202-1.43 1.302-2.682-.309-1.778-1.741-1.355.152-.092 2.203-2.491 1.485 1.809 2.621 1.986-2.125 2.015 2.179v2.885l.963 2.346-1.257 3.082-1.374 3.008 3.351 1.809 2.382 4.789 1.514-2.277 1.853 1.355-.443 1.631-.525 3.814 1.233 1.925-1.086 2.532 3.049 1.985 2.603-.186 1.55 3.301-.63 3.698.557 1.493-.761 1.358 3.033 2.699-1.134 2.126-4.006-1.206-1.89-2.226-2.192 3.081-3.012-2.016-.14-1.476-4.388 4.052-.775-2.332.163-3.009-2.62.695-1.854 1.862-.511 4.698 2.61 1.966-2.073 2.557.373 2.909-4.174 1.093-.446 3.753-2.949 1.203-1.921 2.431.96 2.452-.614 2.66-4.03-.563-1.845.666 1.347 1.911.699 2.803 4.068 1.911 3.993.835.74-4.723 1.775 1.188.639 2.242 6.303-4.59h4.638l3.311 1.897.611 3.83 1.108-2.094-.336-3.219-2.189-1.624.992-1.267-1.693-1.359.188-3.676 1.008-3.537 2.131 1.463-.091 3.454 1.021 1.087.316-1.268-.297-2.09 2.342-.452-.172-1.9 2.325-1.485 1.062 1.478 1.169-2.17 1.192 1.745 2.755-4.103 1.913-1.754-2.058-3.059-3.605-1.175-.98-1.968.09-1.156 1.462-2.588 3.031.948 2.111 4.05 1.413 2.527 2.289-2.929-.186-2.868 2.619-1.269.181-3.914 3.108-.662 2.892-1.997h.487l1.21-2.157z"/><path d="m124.318 116.199 2.065-.229 1.83 1.787 2.256.261 1.707-1.556.992 1.464 2.9-.168.276-2.378 2.361-.756 1.799.905 1.852-.673-.565-1.292-3.422-2.525 1.995-2.058 1.598 1.179 1.284-1.554-.933-.808-.148-2.66.042-2.034-1.915-.14-.284-2.517-1.631-.046-.624-2.411-.399-2.36-1.202-.352.258-1.898-1.039.347-.301-2.246 2.529-1.866-.13-2.554-4.118-3.543 1.457-1.514.038-1.025-.618-.673.617-1.286-1.255-1.363 1.494-1.24-.683-.564-1.922-.09-2.796 1.618h-4.162l-1.563-2.408.536-2.59-.431-3.024-1.739.237-1.758 1.72-2.39.255-2.467-.962-1.674 1.633-1.931-.944-2.499.698-3.035-.048-1.801.633-1.271 1.235.652 1.05-.262 1.413-.578 2.083-.608 1.045 1.66 3.15.582 3.838-.208 2.342-2.145.938-2.097-1.637-1.393 1.094-1.383.416-1.56 2.327.189 7.187-1.752 3.131 1.419-.039 1.49 1.91.811 2.599 1.997 1.503 2.456-.275 2.841 3.395 2.423.145v2.032l4.049.393 2.474 3.658 2.024-1.394 4.292.86.981 2.811.092.134 2.275-1.352z"/></g></svg>