<svg xmlns="http://www.w3.org/2000/svg" width="30" height="26" fill="none"><path fill="#909090" d="M14.494 25.783 2.47 14.011c-.512-.47-.914-1.011-1.28-1.589-1.973-3.214-1.46-7.33 1.28-10.003A8.4 8.4 0 0 1 8.39 0c3.508 0 5.7 2.022 6.614 3.178C15.92 2.022 18.111 0 21.62 0c2.229 0 4.348.867 5.92 2.42 2.704 2.672 3.252 6.788 1.279 10.002-.366.578-.768 1.12-1.28 1.59L15.518 25.782a.71.71 0 0 1-1.023 0M8.39 1.444a7.02 7.02 0 0 0-4.897 1.987c-2.23 2.202-2.668 5.597-1.06 8.233.293.47.658.939 1.06 1.336l11.511 11.267L26.517 13c.402-.397.767-.83 1.06-1.336 1.607-2.672 1.205-6.067-1.06-8.233a7.08 7.08 0 0 0-4.897-1.987 6.96 6.96 0 0 0-5.993 3.359.757.757 0 0 1-1.28 0c-1.132-1.95-3.325-3.359-5.956-3.359"/></svg>