<svg xmlns="http://www.w3.org/2000/svg" width="20" height="18" fill="none"><path fill="#535353" d="M9.662 17.522 1.647 9.674a5 5 0 0 1-.852-1.06c-1.316-2.142-.975-4.886.852-6.668A5.6 5.6 0 0 1 5.594.333c2.339 0 3.8 1.348 4.41 2.119.609-.77 2.07-2.119 4.41-2.119 1.485 0 2.898.578 3.946 1.613 1.803 1.782 2.168 4.526.853 6.669a5.1 5.1 0 0 1-.853 1.059l-8.015 7.848a.475.475 0 0 1-.683 0M5.594 1.296A4.68 4.68 0 0 0 2.329 2.62C.843 4.09.551 6.352 1.623 8.11c.195.312.438.625.706.89l7.675 7.511L17.678 9c.268-.265.511-.554.706-.89 1.072-1.782.804-4.045-.706-5.49a4.72 4.72 0 0 0-3.265-1.324 4.64 4.64 0 0 0-3.995 2.24.505.505 0 0 1-.853 0c-.755-1.3-2.217-2.24-3.971-2.24"/></svg>