<svg xmlns="http://www.w3.org/2000/svg" width="148" height="152"><desc>Generated with Avocode.</desc><path d="m60.548 49.233 8.804-17.925c1.612-3.96-4.247-6.872-6.28-3.399l-9.703 17.723c-3.36 5.52-6.525 3.824-8.145-2.103l-4.347-20.71-.003.002c-.558-2.519-8.36-3.87-7.382 2.624l5.246 26.28c1.177 6.096-2.035 8.177-4.833 9.397l-5.49 2.403c-1.145.501-2.056 1.24-2.144 2.551 0 1.833 2.646 1.857 3.065 1.833 19.175-1.049 25.68-8.117 31.212-18.676"/><path d="M114.808 88.198q-2.401-.527-4.428-.529c-.95 0-1.843.088-2.671.266-1 .215-1.796.518-2.394.931-.596.408-.994.95-1.132 1.586q-.058.258-.057.523c0 .738.337 1.46.951 2.148.613.691 1.51 1.367 2.684 2.048 4.315 2.514 6.398 5.67 6.406 9.57q0 1.28-.306 2.675l-1.858 8.478c-.914 4.16-2.837 7.552-5.784 10.216-2.457 2.196-4.983 3.27-7.617 3.273-.72 0-1.455-.083-2.196-.245-3.814-.842-6.548-3.018-8.298-6.606-1.102-2.226-1.653-4.657-1.655-7.314q-.001-2.29.55-4.805l5.039-22.984q.139-.63.14-1.202c.002-.944-.306-1.767-.922-2.388-.613-.621-1.5-1.042-2.639-1.292a7.3 7.3 0 0 0-1.542-.18c-.967-.004-1.796.26-2.426.805-.634.544-1.05 1.345-1.27 2.36l-4.52 20.617a22.7 22.7 0 0 0-.55 4.875c-.003 4.092 1.244 7.848 3.72 11.232 3.263 4.472 7.943 7.38 13.975 8.7q2.927.64 5.65.64c3.983.003 7.63-1.036 10.919-3.107 4.672-2.914 7.646-7.244 8.886-12.913l3.115-14.202q.324-1.48.325-2.837c0-2.214-.658-4.185-1.973-5.862-1.735-2.19-4.46-3.676-8.122-4.477"/><path d="M36.267 82.23c.184 3.689 2.62 3.61 2.62 3.61.592.003 1.769-.15 2.764-2.686 0 0 1.87-4.973 1.96-5.383 0 0 1.414-5.266-4.198-6.486l-5.895-1.292a9 9 0 0 0-1.506-.19c-1.35-.063-1.828.816-1.91 1.207-.03.142-.366 1.495 1.352 2.261l.003.002c1.624.774 2.99 1.598 3.86 2.462.621.613.914 1.487.92 2.359z"/><path d="m71.73 29.902.003-.003h.002z"/><path d="M122.676 63.948c.163 2.932 5.354 14.165 5.354 14.165 2.719 7.136-2.068 10.174-6.808 9.014L61.214 73.972c-4.317-.917-3.573-4.087-3.508-4.375.176-.841.902-2.932 4.738-2.614l.005.002 14.265 1.45q.74.075 1.412.075c2.1-.005 3.656-.533 4.838-1.527 1.179-1.002 2.043-2.537 2.529-4.748l2.218-10.11c.493-2.367 4.187-15.15-10.231-18.467 0 0-3.15-.691-4.657-1.034-1.946-.298-1.87-2.234-1.09-2.724 1.826-1.673 16.109-.647 22.707 5.879 2.636 2.637 5.05 7.432 3.367 15.206 0 0-2.954 13.178-3.363 15.332-1.585 9.302 21.77 10.582 21.77 10.582s6.154.781 2.93-5.068l-17.34-27.887c-2.487-4.54.27-6.93 1.562-7.672.886-.518 4.527-2.19 7.46 1.628l5 6.998c5.8 8.364 14.868-3.042 21.263-3.14 7.517-.516 10.912 22.829 10.912 33.891q0 2.617-.182 5.268c-1.245 17.811-8.479 38.687-22.719 50.527-10.825 8.98-27.125 14.774-40.651 17.854-5.857 1.33-12.277 2.379-18.65 2.381-7.272 0-14.495-1.372-20.692-5.306-9.593-6.089-20.037-16.025-27.797-24.078-8.796-9.16-12.216-24.153-14.876-35.984C.976 79.801 0 72.641 0 65.475 0 56.2 1.636 46.901 6.022 39.011c3.904-7.008 9.518-12.482 15.019-18.006 1.587-1.587 3.353-4.181 5.258-6.86 1.908-2.68 3.964-5.454 6.25-7.46 1.522-1.334 3.163-2.34 4.955-2.69q.391-.072.757-.071c.888.002 1.642.283 2.316.523.674.248 1.27.45 1.848.453h.07c2.1.005 4.454-.796 6.645-1.37 4.407-1.14 8.701-2.524 13.35-3.09A62 62 0 0 1 69.912 0c8.591.002 17.262 1.705 25.223 4.654.034.013.06.038.09.056.04.023.08.042.113.07.034.03.057.062.082.097.028.036.055.066.075.103.02.04.028.08.04.123q.021.06.03.123c.003.044-.005.087-.01.132-.005.035 0 .07-.007.105-.003.01-.01.015-.013.025-.005.008-.002.018-.005.028-.012.035-.038.06-.058.09q-.028.062-.067.113c-.03.032-.065.055-.098.082-.035.028-.065.056-.105.075a.6.6 0 0 1-.12.038c-.04.013-.08.028-.123.033-.045.002-.088-.005-.132-.013-.036-.002-.07.003-.108-.007C89.126 4.349 83.284 3.59 77.395 3.59c-23.998-.008-48.792 12.615-61.016 33.482C9.045 49.583 5.2 63.25 5.2 76.69c.003 16.485 5.774 32.626 18.016 45.932 10.664 11.583 23.983 18.446 39.34 18.451q3.026 0 6.16-.363c5.478-.633 11.285-2.113 16.954-2.226q.247-.004.493-.005c5.208.01 9.63 1.49 14.084 1.48 2.209-.002 4.428-.348 6.814-1.392 22.976-10.036 38.278-36.022 38.265-60.763q0-1.105-.04-2.202c-.276-7.399-1.632-14.182-5.434-20.008-.783-1.167-2.473-3.015-4.616-3.015-8.261 0-12.756 7.867-12.56 11.37"/><path d="M76.249 90.439v-.013c.002-3.596-1.087-6.62-3.273-8.934-2.186-2.318-5.414-3.909-9.625-4.832l-.07.322.07-.322a45.5 45.5 0 0 0-9.768-1.042q-1.334 0-2.682.072c-.884.046-1.605.168-2.186.421-.58.248-1.059.699-1.194 1.325l-.005.032-.03.28-.003.03v.021c0 .473.248.891.609 1.162v.002h.002c.353.268.79.426 1.305.541q.51.111 1.111.11.3 0 .626-.027.46-.035.982-.035c1.568 0 3.508.248 5.8.75 3.179.697 5.488 1.944 7.003 3.7 1.514 1.754 2.29 4.048 2.294 7 0 1.437-.186 3.025-.569 4.76l-5.118 23.357q-.147.659-.148 1.262v.013c-.002.899.275 1.712.847 2.329.568.618 1.374 1.006 2.353 1.22q.569.126 1.122.126a4.55 4.55 0 0 0 2.236-.583l.017-.015c1.162-.628 1.931-1.678 2.212-2.995v-.002l5.5-25.098q.58-2.632.582-4.937"/></svg>