<svg xmlns="http://www.w3.org/2000/svg" width="649" height="440" fill="none"><g fill="#D3DFF4" fill-rule="evenodd" clip-rule="evenodd" opacity=".3"><path d="m419.755 343.789 2.445 5.334.486 2.432 4.822 1.353-2.682 4.705-3.623-.692-.709 3.202-5.927-.747-4.802 5.535h-4.778l-10.138 4.914-1.265 1.907-.194 3.861-6.707 1.311-6.643 5.974.951 4.605 4.169 1.447 2.215-.953 2.763-2.772 7.409-.193 10.93 9.711 4.029.168 3.023-.758 8.59 5.994 2.412 8.745-.776 4.676-3.733 2.137-.155 2.353.561 5.07-3.893 3.721-1.565 2.826 2.304 2.616 6.125.902 2.713 3.991 6.115 1.938 1.205-3.622 2.718 3.144 4.927-1.486 5.97-5.104 4.053-4.066 4.69-9.596 11.21-5.71 5.243.347 2.846-3.43 4.85 3.969 1.511-1.655.55-4.408 2.996-1.691 1.662-2.41 3.634-.694 1.391-5.761 4.917-4.173 4.704-.393 7.702 7.366 5.761-.331 2.78-4.275 6.592 2.757 4.469-2.935 3.561-1.24-3.369-5.75 2.252-6.962 2.353-2.952 5.263-.493-1.077-2.969-9.319-.691-11.067-.867-3.495 8.49-4.562-2.915-2.147-2.919-4.113 5.284-5.609 2.724-5.76 4.285-8.271-3.504-4.419-.743-4.527-4.939 3.455-5.107-2.966-5.453-6.268-2.155-1.377-2.593h-4.51v-5.013l-4.609-1.712-2.839-3.203-3.86-.922-1.603-3.93-5.924-.962-2.779 5.943-2.884-1.93-.358-5.218-1.868-1.334-2.903 4.008-7.079-6.531-3.689-3.698zM86.836 89.405l3.698-2.094 6.107 5.599-2.643 4.523 1.045 2.556 3.585-.921 4.459 5.62 5.865-1.38 5.927 1.415 1.894-.844.075-2.11-2.297-1.466 1.483-2.173.621-3.435 5.135-.376v-3.362l2.415.373-.163-2.135 2.567-1.46 6.785-.889 8.208 3.203 1.04-2.091-.397-5.094 3.008-1.25 2.237-2.331V74.57l3.878-1.574-.909-3.433-3.794-.095-1.077-3.96 4.577-2.192.802-2.132-5.556-3.195-2.401-6.21h-8.04v-6.785l-1.311-2.631 2.726-1.52-.08-3.338-2.448-2.173-.329-3.097 4.577-5.549.037-3.115-4.094-4.442-5.964 1.997-2.972-4.385-5.616 3.758-22.105-1.788-3.44 3.944.178 5.1-10.563 7.76-6.602-4.785-8.101.497-.146 2.796 4.2 8.795-4.406 5.655 8.764 10.023 1.247 10.374 8.668 7.706-9.218.752 3.875 7.457zM262.78 64.597l.224 3.525 6.94 3.546.292 5.948-2.558 2.317 3.813 4.59-1.365 2.985 2.668 1.339.73 5.41-3.87 3.754 1.524 4.198-2.588 6.176 5.078 1.243 1.106 5.239 1.973 3.568.824 7.013-2.462 3.25.689 2.762 2.991 3.291-4.614 4.914-7.225 2.802v4.219l2.05 3.829 2.424 2.006-3.114 2.583 2.236 2.421-1.232 2.57 1.035 1.13-.108 2.902-2.403 2.494 7.709 6.634.165 3.223 4.486-.08 2.463-4.846 2.678-.104 4.872-4.373 2.353 3.503 2.121-.092 3.828 1.963 1.644-5.22 5.559.392 2.893-3.335 1.992 3.687 1.868-1.219 4.743.808.768-3.076 4.049-4.441 3.83-4.913-2.237-3.059 2.731-1.263-.463-8.925 2.749-5.105 6.501-1.427 6.901 3.647 3.905-2.788 3.553-6.031-.389-4.683 3.312-2.64 1.368-5.093 3.177-.678 2.482-5.748-5.984-4.955 1.979-4.252-5.978-4.288-9.394 6.064-7.535.595-6.155-4.531 1.15-3.948-5.852-5.605-10.52.597 1.028-5.049-3.723-3.46-2.604-4.426 1.13-7.292-5.759-7.732-.019.005-3.552-2.574-2.148-7.727-2.765-2.118-9.4-.346-2.708 3.441-4.278-.642-.52-3.319-2.479.136-5.053 7.246-2.346-.38 1.203 3.284zM197.379 176.926l3.287-2.575 4.348 3.39 3.113-1.36.346-3.896-1.117-7.373-3.507-6.646 1.44-2.483 1.11-3.978.434-2.362-1.539-2.479 2.802-2.721-4.686-3.576-5.225-5.438 1.547-7.447 2.895-.845.437-5.718-1.39-5.253-2.383 1.707-4.525-4.23-6.379-7.106 2.927-3.526-2.363-5.42-2.056.235-3.112.46-3.758 2.419-3.437-.374-5.294 5.497-4.786 5.666-3.416 2.416h-3.206l-2.873 4.327-2.83-.393.954 2.453-1.207 4.136-2.249 4.045-.454 5.005 1.976 5.76.592 8.592-4.494 4.602 2.096 6.492.98 7.085-2.447 4.156 1.497 6.011-1.445 5.307-.371 7.16 1.339 3.441-.851 7.357 5.243 7.888 3.907.196 1.363 4.751 1.029-.413.295-5.998 2.713.135 1.16 1.916 1.286-3.869 3.972.35 1.575 3.828 2.394-3.062 2.254.53.54 1.983 2.744-.153 1.794-2.221 2.903 2.257 2.23-3.32 3.807-6.794-.38-14.393 3.521-5.252z"/><path d="m203.719 52.876-2.215-1.749.078 4.668-2.874 2.141.824 3.486-2.811 4.568-.688 4.432-5.56 3.212-.172 4.96 1.668 2.663-1.144 2.776 2.492 4.52-2.58 4.283-.892 4.118 2.721 6.232-2.76 3.325 5.725 6.377 3.85 3.598 2.929-2.1 1.839 6.933-.513 6.645-2.987.872-1.296 6.255 4.768 4.972 4.89 3.729 3.612-1.27 6.087.098 5.247-1.463 3.544 1.728 3.295-3.209 5.321 2.077 4.145-.445 3.5-3.422 4.877-.663 1.037 7.286-1.016 4.913 2.564 3.948h7.436l5.611-3.241 3.382.153-1.775-3.326v-5.228l7.686-2.978 3.76-4.008-2.501-2.749-.88-3.534 2.512-3.314-.75-6.374-1.949-3.519-.995-4.739-5.647-1.382 2.911-6.948-1.616-4.464 3.979-3.859-.581-4.303-3.089-1.554 1.517-3.312-4.038-4.861 2.939-2.668-.233-4.814-6.932-3.545-.296-4.612 4.25-4.39-1.175-3.22-2.542-.41-3.641-5.195.536-5.935-2.432-3.748-2.581-.14-2.496 5.723h-4.873l-1.932 3.394-.429 6.707-4.732-5.206-.523-6.282-5.742-1.759-2.931 3.717-4.636-7.337-3.598 4.928-5.783 1-2.739-5.043-1.691 6.947-3.22 1.937-1.813-1.652zM105.028 179.739l4.246.093 1.12 2.044 2.684 1.538 1.728 4.198 6.548-.275 6.302 4.712.934 5.723 3.784 1.535 4.901 4.187 4.431-2.551 2.843 2.079 2.595 4.654 5.848 1.313 1.349-1.217-5.351-8.058.862-7.477-1.324-3.416.387-7.496 1.402-5.154-1.535-6.169 2.48-4.21-.916-6.618-2.266-7.023 4.61-4.723-.549-7.967-2.004-5.845.495-5.466 2.303-4.135 1.069-3.666-1.495-3.846.261-3.88-5.734-.6-3.673 1.169-5.014 4.352-6.623-.399-3.291-.524-1.803 2.298-.845 7.24-1.193 5.082-5.463 3.046-5.482-.281-1.754 2.077.911 5.063-4.672.614-2.82 4.528-5.041 1.427-2.181 3.167 2.733 2.477.867 5.74 1.664 5.98-1.367 3.33-.231 2.664h4.347l.836 2.363-3.666 2.545z"/><path d="m134.884 34.8 2.483 2.206.108 4.463-2.393 1.335.96 1.938v5.963h7.704l2.532 6.538 6.017 3.464-1.281 3.39-4.152 1.994.628 2.32 3.796.095 1.366 5.13-4.088 1.662v4.423l-2.697 2.806-2.488 1.032.361 4.613-1.616 3.238-8.866-3.46-6.303.826-1.792 1.015.216 2.81-2.517-.388v3.108l-5.302.385-.512 2.843-.986 1.447 1.878 1.195-.117 3.407-2.486 1.101-1.12 2.569.579.792 2.792-1.544 1.56 2.604-1.226 2.356-.265 4.86 2.522 4.28 5.013.414.411-3.539 2.374-3.031 3.866.614 6.133.37 4.852-4.212 4.1-1.307 6.979.733-.31 4.68.137.352 2.76.386 2.815-4.239h3.437l3.03-2.147 4.723-5.585 5.682-5.9 3.584.388 3.633-2.339 3.358-.494 2.085-.242.885-4.09 2.349-3.898-2.438-4.43 1.13-2.74-1.55-2.476.206-5.885 5.628-3.255.644-4.137 2.689-4.373-.886-3.742 3.004-2.237-.108-6.37 3.096 2.438 2.862-4.108.76-4.74-2.432.305-2.875-3.226-4.256 3.762-3.169-.454-.544-5.466-3.078-1.092-.003-3.91-4.771-1.237-1.74 2.612h-4.045l-6.781-5.012-7.082.55-2.335-3.25-6.621.18-3.747-5.191-7.242.53-1.998-1.506-5.178 3.574-.042 3.436-4.527 5.491z"/><path d="m30.98 173.333 1.83 4.85 5.892 1.126 4.173 5.899 4.695.942 3.726 3.737 1.45-5.414.195-7.086 3.402-3.594 3.824-5.856 3.733 1.111 5.053-1.592 6.763.285 5.613-1.143 4.496.449 1.022-1.606-3.153-1.67-.422-4.114 1.732-5.016.901-5.422 4.32-1.376 5.407.804 1.656 1.504 2.32-3.365 5.016-1.423 2.869-4.608 4.054-.531-.797-4.45 2.42-2.871 5.71.291 4.777-2.661 1.076-4.564.336-2.87-5.531-.456-2.973-5.043.297-5.413 1.055-2.025-.717-1.201-2.712 1.501-1.503-2.061 1.19-2.737-5.226-1.249-6.277 1.476-4.453-5.609-3.812.985-1.605-3.92 2.474-4.229-4.894-4.486-3.699 2.094-4.664-4.32.302 6.07-4.573 5.73-10.516.717-4.023 6.488-12.92 9.904-7.532 8.63L30.1 135.028l-5.385 7.496.663 4.334 3.86 5.715-3.735 8.029 4.711 5.073zM348.038 240.482l5.735 4.654-1.34 6.012 7.335-.357 2.908 3.448 4.16-4.532 5.749 1.217 5.409 1.652 4.729-2.072.27-4.853 1.287-5.7 3.581 1.436 4.818-4.645 3.8 1.239 9.863-9.236 6.177-4.833-3.138-13.16 11.968-7.974-6.034-3.071-2.523-3.679 3.555-1.67 6.23.666 1.445-.841-5.773-4.533-5.943.092-7.413-1.405-1.335-6.044-6.561-2.165-10.394-.357.117.297-.103 5.524-9.224 3.288-5.209-5.714-5.788-.26-3.037 3.301-.842 6.355-4.328-2.584-5.156 5.073-2.379-4.669-4.185-.348-5.728.957.177 4.096-4.989 6.535-4.81-1.378-4.953 2.197-5.542-2.048-9.519-.734-5.029 5.766-.939 6.908-4.495-2.563-6.543 6.944-2.455-2.467-4.499 2.867-3.498 4.229-3.255-2.403-2.467 2.551 6.068 4.477 1.473 3.349 1.662 3.418 6.639.187 1.042 1.183 2.982-2.628 6.98.4 2.849 1.557 2.895-3.447 2.659-.242 1.831 3.398 4.481-1.95 3.629-3.644 5.298.851 2.791 6.249 5.772-1.177 3.684 1.005-.215 2.735 4.016-3.552 6.127.548-.899 4.858z"/><path d="m533.588 200.167-3.684 2.362-1.138-4.779-1.911-.397-.647 2.694-3.887-.23-2.5-2.677-3.751 6.352-3.732.603-.707-5.267-4.944-3.626-.371-4.47-5.298-1.996-.672-5.858-3.239-1.873-4.92 3.985-5.795-2.956-6.81-.095-9.763-8.842-5.855.09-4.687.092-3.779.464-4.499 2.629-4.479 1.686-5.998 6.109-1.401 4.127 1.882 3.399-1.28 5.581-6.965-.206-5.814-1.82-1.877-.428-2.251 1.314-6.285-.668-2.135.999 1.651 2.406 7.435 3.779-12.881 8.583 3.122 13.101-6.686 5.227-9.906 9.285-.436 4.81 2.184 2.661-.803 7.844-3.435 3.266.386 1.859 2.658 3.179 3.427-.544 6.122 1.913 1.413 2.84 6.588-5.398 4.99 4.906 8.155-1.289 6.966-1.358 5.9 1.974 4.569-2.204 6.498-2.819 5.486.87 8.233-.987 1.046-8.362-3.138-1.814.65-4.369-2.459-.705-1.075-2.745 3.049-3.416-2.81-2.028.976-7.203 3.224.864 3.152-1.771 10.298-.095 3.567-1.192 3.898 2.328 5.994-4.202 5.351 3.643 5.073-2.649.64 2.879 3.348.394-.205 3.722 3.003 3.591-1.215 3.386.998.942 3.379-1.51 3.024 2.302 1.911-1.739 4.813-.005 1.124-2.164 3.247-3.089-2.518-2.265.737-7.002 5.831-.444 1.06 2.128 3.52.076.871-3.418-1.607-2.041 1.851-1.314.083-4.446-4.064-2.277-.295-9.02 2.334-4.056z"/><path d="m475.262 108.793-3.567 1.222-3.45 5.145-3.785-1.362-5.436 5.074-.17-.012-.771 2.547 1.22 2.347-3.734 3.654 1.466 1.165.814 3.352 5.213.841 1.263 2.258 4.622-1.011v5.903l3.407 4.203 2.46-.16 1.914-1.925 1.991 2.792-.999 1.826 2.778 2.498-1.701 2.604 1.575 3.275-5.63-.094 1.459 2.613-1.242 4.151-4.001 4.119-5.196-1.148-1.099-1.18-1.348 1.782-.874 3.944 1.809 2.89 5.977-.092 9.777 8.852 6.654.095 5.396 2.752 4.95-4.007 4.346 2.507.657 5.746 5.32 2.001.389 4.662 4.918 3.607.621 4.628 2.149-.35 4.219-7.153 3.188 3.409 2.563.153.598-2.48-.268-9.379 3.678 1.519 2.65-2.387h4.089l2.094 1.618 1.263-2.534 6.963-7.084.848-4.524 4-5.426 3.87 4.948 2.406-2.226 1.948 1.827.088 2.955 4.384 1.101 1.257 2.248 4.435-.768 3.96-2.825.176-3.784-.184-5.16-3.218-4.241-4.134-5.495-2.187-6.49 2.758-4.966-1.227-4.558 1.984-3.978-1.789-5.573 1.553-4.577.248-3.307-6.508-7.221-4.121-.542-6.553-7.323.509-6.089-4.833.172-1.599-5.887-5.193.61-.342 3.969-4.319 2.562-8.71-.538-6.115 5.456-.378 4.145-3.573.67-6.328-7.891-2.116 3.754-3.469-.434-5.159-8.035-8.592.337-7.088 8.052-1.319-1.803-2.523 2.445z"/><path d="m433.991 105.127-1.644-5.724-5.446 3.852-5.784-3.235-6 4.232-5.771-1.57h-7.213l-3.457-2.492-1.628 1.72-4.958.195-7.309 6.859-4.467 2.194-7.302-.495-4.156-2.628-2.122 1.633-3.477 3.385-2.873-1.175-2.37 5.503 6.468 4.819.859 4.881 6.158 5.502-1.308 6.646 5.656 2.699.774 4.171 7.688 6.457-2.882 13.86 4.754 12.262 11.002.379 7.29 2.405 1.318 5.945 6.618 1.258 6.203-.097 6.6 5.178 2.008.464 5.716 1.786 5.935.175.994-4.318-1.912-3.451 1.635-4.818 6.332-6.452 4.617-1.738 4.614-2.7 4.049-.488 3.794-.077-1.698-2.712 1.022-4.612 2.255-2.983 1.745 1.865 4.288.947 3.398-3.495 1.036-3.461-2.143-3.854 5.751.099-1.082-2.246 1.524-2.345-2.725-2.451 1.086-1.981-.856-1.203-1.306 1.313-3.422.222-3.992-4.933v-4.949l-4.102.895-1.392-2.498-5.409-.874-.892-3.686-2.137-1.694 4.039-3.952-1.055-2.03.829-2.735-2.512-.196-5.456 2.831-8.886.946 1.31-6.489-4.807-3.877.378-3.987z"/><path d="m285.221 214.643 1.613 1.395 4.962-3.164 2.284 2.292 6.36-6.754 3.846 2.197.77-5.652 5.595-6.414 10.208.787 5.27 1.948 4.911-2.177 4.484 1.284 4.305-5.643-.203-4.658 6.794-1.138 4.915.412 1.989 3.897 4.705-4.629 3.64 2.173.674-5.067 3.6-3.925 6.731.304 5.033 5.519 7.851-2.801.085-4.564-5.331-13.756 2.815-13.543-7.492-6.293-.74-4.01-5.919-2.822 1.348-6.864-5.978-5.342-.848-4.825-6.275-4.676-2.569.549-1.287 4.796-3.139 2.502.371 4.451-3.848 6.527-4.627 3.302-7.134-3.772-5.64 1.237-2.371 4.405.483 9.347-2.2 1.02 1.939 2.654-4.353 5.584-3.895 4.28-.939 3.775-5.309-.906-2.496 1.63-1.802-3.348-2.23 2.565-5.251-.371-1.769 5.629-4.709-2.417-2.435.103-2.007-2.97-4.236 3.807-2.44.092-2.467 4.859-5.095.091.091 1.832-5.002 3.693.345 2.561 2.479-.832-.626 4.582 2.156.634.904 5.329 1.034 3.984 3.383.098.569 5.064 3.955.288-.105 5.037zM403.152 15.277l-3.249 3.26.1 4.773-7.545 3.782-2.034 3.904.26 4.612 2.464 1.52.793 12.527-5.015 4.568 2.899 6.102-4.312 6.254.575 2.887 7.324 4.77.816 7.27-2.675 2.679 2.185 4.944-4.016 4.031 2.457 3.374-1.542 4.472 3.927-.154 1.977-2.085 3.938 2.838h7.014l5.421 1.471 6.14-4.326 5.784 3.232 6.126-4.328 1.961 6.831 3.983 3.023-.378 4.006 4.866 3.926-1.154 5.688 7.235-.769 5.544-2.876 3.617.279 5.566-5.199 3.618 1.302 3.185-4.75 4.205-1.443 3.755.919 2.204-2.132-2.502-3.421.327-2.75-5.415-.875-1.703-8.931 1.941-6.904-6.684-11.238 1.924-2.635-1.794-2.076-5.095 2.085-1.463-8.46-5.877.166-5.536 2.325-5.805.402-.363-3.997-6.355-.164-4.148 2.27-2.911-2.693 2.472-4.785-5.478-3.663 2.775-3.183v-4.075l-5.721-6.112 3.459-4.289 6.794-1.225.448-3.29-11.418-11.095-.178-8.071L412.44 0l-7.889 5.888-1.927-4.647-2.307-.206-2.533 8.755z"/><path d="m306.982 77.866 2.326 3.95 4.053 3.77-.866 4.276 9.59-.545 6.666 6.38-1.126 3.854 5.226 3.844 6.874-.543 9.77-6.31 7.302 5.232-2.009 4.312 5.592 4.625 2.637 1.078 3.017-2.934 2.763-2.133 4.568 2.887 6.737.457 4.066-1.995 7.24-6.798 1.573-4.557-2.664-3.667 4.14-4.157-2.18-4.947 2.825-2.838-.699-6.244-7.282-4.743-.754-3.774 4.222-6.119-2.977-6.264 5.229-4.758-.729-11.45-2.466-1.523-.31-5.473 2.332-4.472 7.247-3.638-.09-4.553 2.819-2.825-5.061-5.174L399.23.938l-6.069-.542-7.773 7.078-3.808-1.637-4.028 2.756-5.701-4.8-6.304.162-1.237 12.028-7.045 3.63-5.117-.951-2.655-1.775-17.832-.876-4.239 5.214-2.389-3.791h-5.719l-1.009 4.403-7.348 7.192-2.555 9.317-2.869.721-1.318 4.29.168 3.977 2.158 1.804-.002 5.358 2.377 1.652-1.018 5.928-5.455.802 5.682 7.625zM549.705 287.094l.888-3.715-4.918-2.875-5.569-4.086.759-5.891 4.976-.383.929-3.909 3.768-1.229.821-5.009-5.055-1.516-4.873-3.95-6.318-.194-2.275-4.873-5.222-5.236-2.553-5.641-.546.517-1.34 2.587h-5.049l-2.269 2.07-3.228-2.458-3.45 1.536-2.037-1.912 1.25-3.471-2.88-3.446.177-3.132-3.104-.366-.5-2.257-4.405 2.3-5.27-3.59-5.957 4.175-4.068-2.43-3.267 1.088-10.188.093-3.29 1.852-2.469-.661-.728 5.356 3.257 2.345-3.405 3.819.637 1.629 2.851.819-.678 4.577 3.123 1.802-1.232 9.905-9.221 1.108-5.324-.845-6.192 2.688-4.159 2.007 2.469 3.33v5.587l3.579 2.232 2.617-3.835 3.004 4.398v6.766l3.624 5.737-.446 3.665 5.391 1.927 3.011 5.839-5.511 6.526 4.72 1.641-1.909 4.888 7.907 3.385 5.31 1.107 2.109 8.808 3.142-2.573 1.879-4.242 1.989 4.652 2.478.585 9.985-10.366 9.085-9.659 10.098-1.104h2.954l2.425 3.249 5.929-7.474 5.105-1.826 4.028-1.925 3.856 2.525 2.304-4.791 2.963-1.982-.294-4.699z"/><path d="m470.238 319.414-8.965-3.845 1.879-4.815-5.143-1.79 6.059-7.172-2.487-4.816-5.805-2.075.504-4.14-3.584-5.675v-6.745l-1.927-2.831-2.314 3.391-4.956-3.096v-5.828l-2.545-3.431-5.679-1.902-6.711 1.311-8.71 1.375-4.685-4.612-6.881 5.642-1.808-3.634-5.449-1.703-2.177.347 2.077 1.478.325 6.578-3.29.345.96 1.669 1.626 1.327.401 7.951-1.455 1.911-4.787 1.507-1.936 3.718 4.957 2.8 1.077 3.842-2.51.405v3.701l-4.648.858v3.808l-6.335 1.1-1.834-3.586h-3.555l-1.588 2.44-5.088.648-.658 2.981-3.602-2.473-1.425 1.503-1.231 2.581-6.999.636.982 2.597 5.608 4.435 5.207-.751.578 1.54 7.19.978-4.953 6.911-5.859-4.177-7.158-.525-9.46-.185-2.939-1.906-5.136 1.968 4.083 5.006 5.214-2.792 5.1 2.373 5.514-.95 1.134 4.529-6.889 2.767-3.273-1.207-2.562 2.566.673 1.88 5.33.668 5.772-.748 3.582 4.317 3.49-.369 2.868 5.931 5.631-.5 6.482-2.891 6.332.548 7.25-.347 2.279-3.325 1.822 2.92 4.324-5.473 1.605 6.632 4.207.506 2.667 1.552 3.693-3.289.005.01 4.326-4.65 2.84-4.379 3.338 3.528 3.041-2.694 5.373 5.737 4.176-8.562 5.596 8.145 2.032-3.401 4.108 3.296 1.967 2.41-2.217 2.035 2.286 4.278 3.039-.872 1.151-4.604-.965-4.457 4.026-1.572 2.018 2.698-.951 3.24v2.659l2.737 1.594 1.938-2.396.507-4.4-1.266-4.36 1.538-5.289 2.44 2.242 4.241-3.473-2.065-8.648zM613.741 223.034l-7.115-.295-1.137-5.427-5.221-.284-3.097-6.587-4.982.742-2.2-2.086 1.86-3.339-1.852-3.382-4.592-1.917-2.693-7.001.77-6.172-.458-5.976-3.275-4.348-5.444-.616-4.203 2.996-5.427.942-1.402-2.507-4.72-1.187-.1-3.323-.896-.838-2.528 2.342-3.715-4.758-3.016 4.091-.86 4.607-7.077 7.195-1.768 3.552-2.84-2.191h-3.31l-2.848 2.562-2.771-1.144.217 7.606 2.604.544.949 3.971 3.142-2.014 2.304 2.314-2.595 4.508.271 8.102 4.093 2.289-.108 5.645-1.368.97 1.235 1.568-1.215 4.768-5.02-.116-1.026-2.063-4.219.322-.587 5.562 2.979 2.676-2.593 2.467 2.625 5.794 5.214 5.232 2.084 4.451 6.015.186 4.987 4.044 5.757 1.722-1.074 6.597-3.821 1.239-.969 4.086-4.888.381-.564 4.387 5.008 3.683 5.561 3.244-1.2 5.033-3.597 1.483.206 3.305 6.38-4.264 3.387-1.2 2.417 1.943 6.06-11.113 3.57-1.26 1.853 2.041 3.961-.321 1.616-2.348 10.458-.188 1.9 3.808 1.851-5.579-2.03-4.812 4.262-4.279-4.799-1.375 3.316-5.679V247.28l5.91-3.253 4.804-.716 5.083-3.566 1.822-10.236 6.559-.693-.428-4.18z"/><path d="m647.432 202.253-5.682 1.629 2.225-6.09-3.51-4.228.169-5.293-6.943-1.071-.392-8.381 4.634-5.229 5.789.908 2.762-2.156-.47-1.881-3.651 1.832-3.529-2.981-4.243-.177-3.861-2.241 1.055-4.466 7.347-2.155 1.203-4.485 5.301-6.734-.669-5.712-5.89-6.461 4.157-6.417-4.816 1.109-4.866 5.065-3.45-2.5-5.059.187-2.011-6.774-4.351-1.456-4.677 2.442-5.98-8.118-5.413 5.601-5.96-3.739h-3.858l-3.362-4.084-6.242 1.044-5.819-1.363-.714-3.933-2.811-.54-.691 7.971-4.47 2.152-.258 3.366-1.478 4.368 1.815 5.653-1.998 4.009 1.236 4.581-2.738 4.933 1.981 5.872 4.024 5.351 3.421 4.512.196 5.549-.166 3.588 5.607.633 3.745 4.975.491 6.397-.752 6.006 2.43 6.321 4.516 1.887 2.321 4.229-1.746 3.13 1.216 1.155 5.259-.786 3.162 6.734 5.401.288 1.139 5.416 6.729.279 1.979 2.204.486 4.727 3.021 2.235 4.768-3.249 2.379-.651 2.998 3.363 5.158-2.419 5.88 1.073 3.439-2.036-1.925-10.358 1.282-4.203.741-5.977 4.519-2.513zM83.937 223.597l.188-6.382-5.875-5.982-3.075 2.151-3.176-2.39-.174-8.032-4.51 1.912-4.902-4.197-2.366-5.695-4.489-3.423-4.216-.096-4.3-4.321-4.793-.961-4.17-5.895-6.061-1.161-2.219-5.876-4.633-4.485-4.236-.37-1.051-2.282-1.726.124-1.21 6.081-7.326 5.732-1.418 9.786-1.82 2.634-4.26.536L0 194.934l.402 5.655 4.213.266 2.692 10.511 6.426.536 2.62 8.937 5.862-2.403 3.285 8.514h5.01l5.05-6.472 9.5 9.805 3.693-2.646 9.937 7.007 5.155-3.537 8.036 7.791 7.606-5.787 7.243 1.299.917-4.066.172-3.042zM191.208 204.984l-2.966.079-2.725 4.056-2.979-2.317-1.433 1.777-4.082.226-.597-2.207-.97-.224-3.107 3.976-2.026-4.928-2.478-.221-1.752 5.266-2.067-3.414-1.073-.055-.274 5.612-2.77 1.113-1.478-5.152-3.193-.159-1.937 1.748-6.859-1.537-2.718-4.868-2.086-1.533-4.486 2.585-5.34-4.568-3.618-1.467-3.221 2.506 1.591 3.725-.203 4.796-3.935 4.163-1.591-1.601-3.93 1.028-5.777 5.709-5.945 5.771-5.389 6.244-.628 6.571 2.055 2.843-3.24 7.429h4.783l9.393-8.885 17.679-.002 2.707-3.254 11.211 1.069 6.41-11.251 14.971-1.342 3.326-9.179 6.91 4.161 2.909-2.921 5.891 2.42 3.77-4.053 3.525 1.633 3.774-3.312-1.51-4.826z"/><path d="m98.06 237.986.7-7.321 5.645-6.537 5.972-5.801 5.983-5.908 4.8-1.254 1.249 1.254 2.896-3.068.177-4.151-1.821-4.262 3.868-3.011-.863-5.271-5.647-4.23-6.919.297-1.874-4.556-2.627-1.505-.97-1.765-4.29-.097-2.419-5.183 3.736-2.596-.309-.87h-4.757l.341-3.996 1.292-3.142-1.575-5.687-.83-5.426-4.667-4.232-4.838-.72-3.456 1.1-.805 4.852-1.686 4.883.337 3.306 3.68 1.944-2.013 3.153-4.989-.503-5.582 1.138-6.703-.281-5.187 1.636-3.283-.977-3.446 5.258-3.176 3.371-.187 6.803-1.545 5.776 3.66.086 4.996 3.803 2.379 5.727 4.203 3.602 5.352-2.277.2 9.095 2.137 1.612 3.181-2.225 6.833 6.954-.187 6.367 3.897 3.716-.206 3.617-.996 4.421 9.38 12.385 2.89-6.633zM366.668 307.266l2.175-2.297 3.045 2.091.477-2.16 5.346-.683 1.638-2.508h4.787l1.772 3.461 4.669-.81v-3.802l4.647-.852v-3.725l2.229-.357-.633-2.247-5.475-3.094 2.621-5.041 4.886-1.538 1.012-1.324-.363-7.081-1.406-1.145-1.884-3.28 3.92-.414-.245-5.035-2.784-1.98-3.073-3.68-.561-2.707 3.582-3.399.713-7.005-2.18-2.659.458-5.024-3.079-1.007-4.857 4.681-3.057-1.224-.987 4.386-.302 5.421-5.697 2.496-5.742-1.759-5.11-1.079-4.567 4.979-3.352-3.971-8.212.4 1.503-6.736-6.215-5.052 2.332-2.012.616-3.323-4.491-.402-5.661 5.014.355-4.501-2.573-.702-6.375 1.295-2.896-6.501-4.187-.675-3.385 3.401-5.576 2.425-1.96-3.644-1.513.136-3.179 3.785-3.405-1.863-6.302-.359-2.645 2.33 1.02 1.156-3.66 2.088 1.832 4.185 2.785 2.096-.661 6.28 4.085 3.047-.931 7.263 4.923 1.276 5.151-1.092 1.387 1.967 1.88-2.544 4.869 6.293-1.577 5.444-.366 5.185 2.813 4.227 3.989.764 2.193-1.801 3.795 2.453-2.582 2.955 4.276 1.852 3.021 3.659-2.104 6.653-6.288-.098-1.772 1.316.385 2.323 5.639 4.509v5.252l-2.253 4.022h3.685l2.825 2.168 5.991-5.674.838-3.994 3.268 2.015-.396 3.378-.298 3.571 1.425-.331 2.127-2.712 6.315 3.26 3.255-3.109-1.299-5.024 3.112-1.045.723 1.914 6.687-.611z"/><path d="m328.55 306.883-5.556-4.439-.561-3.382 2.59-1.924 5.854.092 1.688-5.333-2.479-3.004-5.398-2.336 2.734-3.132-2.089-1.349-1.978 1.621-4.928-.946-3.262-4.908.396-5.662 1.459-5.029-3.67-4.74-1.915 2.596-1.836-2.599-4.71.999-6.079-1.581.97-7.576-4.074-3.04.665-6.284-2.526-1.897-2.338-5.334 3.355-1.909-1.59-1.802-6.827-.194-1.733-3.566-4.22 1.533-3.616-1.817-3.636 1.163-.58 4.956-7.296.421-1.626-2.4-2.855 2.599-5.355-.617-3.552-3.474-2.704.302-.183 4.398-4.976 2.963 3.613 5.231 3.966-4.24 4.023 4.348v5.758l1.923 4.684-2.509 6.151-2.744 6.003 6.69 3.612 4.758 9.558 3.022-4.544 3.701 2.704-.885 3.254-1.048 7.613 2.461 3.843-2.168 5.053 6.088 3.962 5.198-.372 3.094 6.59-1.256 7.381 1.111 2.98-1.52 2.71 6.057 5.386-2.263 4.244-8.001-2.407-3.773-4.444-4.378 6.15-6.013-4.023-.28-2.946-8.763 8.087-1.546-4.654.324-6.007-5.231 1.388-3.702 3.716-1.021 9.378 5.212 3.923-4.14 5.104.745 5.806-8.335 2.181-.89 7.492-5.889 2.4-3.835 4.853 1.916 4.893-1.225 5.308-8.048-1.123-3.683 1.33 2.688 3.815 1.398 5.594 8.122 3.813 7.974 1.668 1.477-9.427 3.545 2.37 1.275 4.476 12.586-9.162h9.261l6.612 3.787 1.219 7.644 2.213-4.179-.671-6.426-4.371-3.24 1.982-2.53-3.381-2.712.375-7.337 2.012-7.059 4.256 2.92-.182 6.894 2.039 2.17.63-2.532-.591-4.172 4.676-.902-.344-3.792 4.642-2.963 2.121 2.95 2.335-4.332 2.379 3.483 5.501-8.189 3.822-3.5-4.112-6.106-7.198-2.346-1.956-3.928.179-2.307 2.919-5.166 6.054 1.893 4.214 8.083 2.823 5.043 4.569-5.845-.37-5.725 5.23-2.531.36-7.814 6.205-1.321 5.777-3.986h.972l2.415-4.304z"/><path d="m248.239 231.923 4.123-.457 3.656 3.566 4.504.523 3.408-3.105 1.98 2.92 5.791-.335.552-4.745 4.714-1.51 3.593 1.807 3.698-1.345-1.129-2.578-6.833-5.039 3.983-4.109 3.192 2.355 2.565-3.102-1.863-1.614-.296-5.308.083-4.061-3.823-.279-.568-5.024-3.257-.09-1.246-4.813-.797-4.71-2.399-.702.515-3.789-2.074.693-.603-4.483 5.05-3.726-.259-5.096-8.224-7.072 2.91-3.021.077-2.046-1.235-1.344 1.233-2.567-2.507-2.72 2.983-2.474-1.363-1.126-3.838-.18-5.582 3.23h-8.312l-3.121-4.807 1.07-5.17-.86-6.035-3.471.472-3.513 3.434-4.771.509-4.927-1.92-3.342 3.259-3.856-1.885-4.99 1.393-6.06-.095-3.597 1.263-2.537 2.466 1.302 2.094-.523 2.822-1.156 4.158-1.213 2.085 3.315 6.288 1.163 7.66-.416 4.674-4.284 1.872-4.187-3.268-2.782 2.183-2.76.832-3.117 4.643.378 14.345-3.497 6.25 2.832-.077 2.977 3.811 1.618 5.188 3.987 2.999 4.905-.548 5.673 6.776 4.837.288v4.057l8.087.784 4.94 7.301 4.041-2.783 8.57 1.717 1.959 5.61.184.269 4.542-2.7z"/></g></svg>