<svg xmlns="http://www.w3.org/2000/svg" width="40" height="50" fill="none"><path fill="#0180B2" fill-rule="evenodd" d="M39.674 43.014c0 3.427-8.808 6.205-19.674 6.205S.327 46.44.327 43.014c0-2.692 5.436-4.983 13.034-5.842.91 1.224 1.8 2.381 2.627 3.441-2.891.411-4.873 1.252-4.873 2.223 0 1.376 3.978 2.49 8.885 2.49s8.885-1.114 8.885-2.49c0-.97-1.978-1.81-4.865-2.222a184 184 0 0 0 2.638-3.44c7.589.86 13.016 3.15 13.016 5.84M20 .781C11.405.781 4.438 7.75 4.438 16.344c0 7.142 10.374 20.333 15.182 26.334.095.12.227.183.38.183a.47.47 0 0 0 .38-.182c4.61-5.743 15.183-18.997 15.183-26.335C35.563 7.749 28.595.78 20 .78m0 7.39a8.155 8.155 0 1 1 0 16.309 8.155 8.155 0 0 1 0-16.31" clip-rule="evenodd"/></svg>