<svg xmlns="http://www.w3.org/2000/svg" width="80" height="80" fill="none"><circle cx="30" cy="30" r="30" fill="#FFDC3D"/><path fill="#0180B2" d="M72.336 77.949h-.995V50.702c0-.577-.435-1.025-.995-1.025s-.995.448-.995 1.025V77.95h-5.907v-41.03h5.907v7.116c0 .577.436 1.026.995 1.026.56 0 .995-.449.995-1.026v-8.142c0-.577-.435-1.026-.995-1.026H62.45c-.56 0-.995.45-.995 1.026V77.95h-1.679V45.125c0-.577-.435-1.026-.995-1.026h-7.96c-.559 0-.994.449-.994 1.026v32.824h-1.679V54.42c0-.577-.435-1.026-.995-1.026h-7.897c-.56 0-.995.449-.995 1.026v23.528h-1.68V62.69c0-.577-.434-1.026-.994-1.026h-7.897c-.56 0-.995.449-.995 1.026v15.258H22.03c-.56 0-.995.448-.995 1.025S21.47 80 22.03 80h50.306c.56 0 .995-.449.995-1.026s-.435-1.025-.995-1.025M51.816 46.15h5.907v31.798h-5.907zM40.25 55.446h5.907V77.95H40.25zm-11.566 8.27h5.907V77.95h-5.907zM30.301 54.036c.187 0 .373-.064.498-.128 8.084-4.937 18.966-12.822 26.552-23.015l1.617 1.154c.621.448 1.43 0 1.492-.706l.498-6.282a.953.953 0 0 0-1.368-.962l-5.535 2.693c-.684.32-.746 1.282-.124 1.666l1.74 1.283c-7.461 9.936-18.032 17.565-25.93 22.438-.497.32-.621.897-.372 1.41.248.256.621.449.932.449"/><path stroke="#0180B2" stroke-linecap="round" stroke-linejoin="round" stroke-width="2" d="M70.75 22v1.625M70.75 26.875V28.5M74 25.25h-1.625M69.125 25.25H67.5"/><path fill="#0180B2" stroke="#0180B2" stroke-linecap="round" stroke-linejoin="round" stroke-width="2" d="M22.344 25.688a2.344 2.344 0 1 1 0-4.688 2.344 2.344 0 0 1 0 4.688"/><path fill="#0180B2" d="M23.002 42.004a1.002 1.002 0 1 1 0-2.004 1.002 1.002 0 0 1 0 2.004"/></svg>