<svg xmlns="http://www.w3.org/2000/svg" width="80" height="80" fill="none"><circle cx="30" cy="30" r="30" fill="#FFDC3D"/><path fill="#0180B2" d="M31.783 32.75v41.119c-.002.463.179.908.502 1.237.324.33.764.516 1.224.519h26.983c.46-.003.9-.19 1.224-.519.323-.33.504-.774.502-1.237V32.75a.88.88 0 0 0-.255-.619.867.867 0 0 0-1.484.619v41.125H33.522V32.75a.88.88 0 0 0-.254-.619.867.867 0 0 0-1.485.619"/><path fill="#0180B2" d="M64.391 26.625h-3.478v1.75h3.478c.23 0 .452.093.615.257a.88.88 0 0 1 .255.618v48.125a.88.88 0 0 1-.255.618.87.87 0 0 1-.615.257H29.61a.87.87 0 0 1-.615-.257.88.88 0 0 1-.255-.618V29.25c0-.232.092-.454.255-.618a.87.87 0 0 1 .615-.257h3.478v-1.75h-3.478c-.692 0-1.355.278-1.844.77A2.64 2.64 0 0 0 27 29.25v48.125c0 .696.276 1.363.765 1.855s1.152.77 1.844.77H64.39c.692 0 1.355-.278 1.844-.77S67 78.071 67 77.375V29.25c0-.696-.276-1.363-.765-1.855a2.6 2.6 0 0 0-1.844-.77"/><path fill="#0180B2" d="M36.658 31h20.685c.51-.028.99-.259 1.333-.641.343-.383.523-.886.498-1.4v-2.917a1.96 1.96 0 0 0-.498-1.4A1.94 1.94 0 0 0 57.342 24H36.659c-.511.028-.99.259-1.334.641a1.96 1.96 0 0 0-.498 1.4v2.917a1.96 1.96 0 0 0 .498 1.4c.343.383.823.614 1.334.642m-.093-4.958a.46.46 0 0 1 .093-.292l20.664-.004a.36.36 0 0 1 .113.296v2.916a.38.38 0 0 1-.107.292l-20.65.004a.36.36 0 0 1-.112-.296zM57 34.937H44.826a.87.87 0 0 0-.614.257.878.878 0 0 0 .614 1.493H57c.23 0 .452-.092.615-.256A.878.878 0 0 0 57 34.938m0 3.5H44.826a.87.87 0 0 0-.614.257.878.878 0 0 0 .614 1.493H57c.23 0 .452-.092.615-.256A.878.878 0 0 0 57 38.438m0 4.376H44.826a.87.87 0 0 0-.614.256.878.878 0 0 0 .614 1.493H57c.23 0 .452-.092.615-.256A.878.878 0 0 0 57 42.813m0 3.5H44.826a.87.87 0 0 0-.614.256.878.878 0 0 0 .614 1.493H57c.23 0 .452-.092.615-.256A.878.878 0 0 0 57 46.313m0 4.374H44.826a.87.87 0 0 0-.614.257.878.878 0 0 0 .614 1.493H57c.23 0 .452-.092.615-.256A.878.878 0 0 0 57 50.688m0 3.5H44.826a.87.87 0 0 0-.614.257.878.878 0 0 0 .614 1.493H57c.23 0 .452-.092.615-.256A.878.878 0 0 0 57 54.188m0 4.376H44.826a.87.87 0 0 0-.614.256.878.878 0 0 0 .614 1.493H57c.23 0 .452-.092.615-.256A.878.878 0 0 0 57 58.563m0 3.5H44.826a.87.87 0 0 0-.614.256.878.878 0 0 0 .614 1.493H57c.23 0 .452-.092.615-.256A.878.878 0 0 0 57 62.063m.87 5.25a.88.88 0 0 0-.255-.62.87.87 0 0 0-.615-.255H44.826a.87.87 0 0 0-.614.256.878.878 0 0 0 .614 1.493H57c.23 0 .452-.092.615-.256a.88.88 0 0 0 .255-.618m-13.044 2.624a.87.87 0 0 0-.614.257.878.878 0 0 0 .614 1.493h5.653c.23 0 .451-.092.614-.256a.878.878 0 0 0-.614-1.493zm-7.262-31.062a.86.86 0 0 0 .4-.099l3.35-1.75a.87.87 0 0 0 .466-.852.88.88 0 0 0-.307-.594.87.87 0 0 0-.96-.106l-2.61 1.363-.583-1.022a.87.87 0 0 0-.866-.434.87.87 0 0 0-.729.64.88.88 0 0 0 .087.664l.997 1.75a.87.87 0 0 0 .755.44m4.556 4.847a.88.88 0 0 0-.847-.469.9.9 0 0 0-.326.096l-2.61 1.363-.583-1.022a.87.87 0 0 0-.865-.434.87.87 0 0 0-.729.64.88.88 0 0 0 .086.664l.998 1.75a.87.87 0 0 0 1.155.341l3.35-1.75a.874.874 0 0 0 .371-1.18m0 7.875a.87.87 0 0 0-.847-.469.9.9 0 0 0-.326.096l-2.61 1.363-.583-1.022a.87.87 0 0 0-.865-.434.87.87 0 0 0-.729.64.88.88 0 0 0 .086.664l.998 1.75a.87.87 0 0 0 1.155.342l3.35-1.75a.874.874 0 0 0 .371-1.18m0 7.875a.87.87 0 0 0-1.173-.374l-2.61 1.364-.583-1.022a.87.87 0 0 0-1.186-.323.874.874 0 0 0-.322 1.193l.998 1.75a.87.87 0 0 0 1.155.342l3.35-1.75a.874.874 0 0 0 .371-1.18M41.61 67.04a.87.87 0 0 1 .566 1.099.87.87 0 0 1-.428.513l-3.35 1.75a.865.865 0 0 1-1.155-.342l-.998-1.75a.88.88 0 0 1 .323-1.193.865.865 0 0 1 1.186.323l.583 1.022 2.61-1.364a.87.87 0 0 1 .663-.057"/><path stroke="#0180B2" stroke-linecap="round" stroke-linejoin="round" stroke-width="2" d="M72.5 40v1.75M72.5 45.25V47M76 43.5h-1.75M70.75 43.5H69"/><path fill="#0180B2" d="M23.002 73.004a1.002 1.002 0 1 1 0-2.004 1.002 1.002 0 0 1 0 2.004"/><path fill="#0180B2" stroke="#0180B2" stroke-linecap="round" stroke-linejoin="round" stroke-width="2" d="M21.344 26.688a2.344 2.344 0 1 1 0-4.688 2.344 2.344 0 0 1 0 4.688"/></svg>