<svg xmlns="http://www.w3.org/2000/svg" width="80" height="81" fill="none"><circle cx="30" cy="30" r="30" fill="#FFDC3D"/><path fill="#0180B2" d="M49.254 34.143c-.167-.252-.419-.42-.754-.42-.336 0-.587.168-.755.42-6.119 12.07-5.616 11.148-5.616 11.316v31.769c0 1.593 1.341 2.934 2.934 2.934h6.874c1.592 0 2.933-1.341 2.933-2.934 0-33.948.084-31.937-.167-32.272zm-.754 2.263 1.844 3.604a5.57 5.57 0 0 1-3.688 0zM45.9 41.519a7.9 7.9 0 0 0 5.197 0l1.593 3.102h-8.382zm-2.095 4.778h3.855v24.225h-3.855zm9.388 30.931c0 .67-.587 1.257-1.258 1.257h-6.873c-.67 0-1.257-.586-1.257-1.257v-5.03h9.388zm0-6.706h-3.856V46.297h3.856z"/><path fill="#0180B2" d="M66.857 31.712a3.4 3.4 0 0 0 3.436-3.437 3.4 3.4 0 0 0-3.437-3.437c-1.592 0-2.85 1.09-3.269 2.599H51.936v-1.76c0-.504-.335-.839-.838-.839h-5.114c-.503 0-.838.335-.838.838v1.76H33.411c-.42-1.508-1.677-2.598-3.353-2.598-1.844 0-3.353 1.509-3.353 3.437 0 1.844 1.509 3.437 3.353 3.437a3.33 3.33 0 0 0 3.27-2.599h7.292c-5.7 2.515-9.975 7.796-11.149 14.166h-1.928c-.503 0-.838.336-.838.838v5.114c0 .503.335.838.838.838h5.197c.503 0 .839-.335.839-.838v-5.114c0-.502-.336-.838-.839-.838h-1.425c1.342-6.957 6.874-12.406 13.831-13.83v1.424c0 .503.335.839.838.839h5.114c.503 0 .838-.336.838-.839v-1.425c6.957 1.342 12.406 6.874 13.83 13.831h-1.424c-.503 0-.838.336-.838.838v5.114c0 .503.335.838.838.838h5.113c.503 0 .838-.335.838-.838v-5.114c0-.502-.335-.838-.838-.838H67.36c-1.173-6.37-5.364-11.567-11.148-14.166h7.376c.42 1.425 1.677 2.599 3.27 2.599m.083-5.197c.922 0 1.677.754 1.677 1.76 0 .922-.755 1.76-1.76 1.76-.922 0-1.76-.754-1.76-1.76.083-1.006.838-1.76 1.843-1.76m-36.798 3.52c-1.006 0-1.76-.754-1.76-1.76s.754-1.76 1.76-1.76c.922 0 1.76.754 1.76 1.76-.084.922-.838 1.76-1.76 1.76m1.676 14.92v3.438h-3.437v-3.437zm18.442-14.92h-3.437v-3.52h3.437zm18.357 14.92v3.438h-3.52v-3.437z"/><g clip-path="url(#a)"><path stroke="#0180B2" stroke-linecap="round" stroke-linejoin="round" stroke-width="2" d="M71.75 58v1.875M71.75 63.625V65.5M75.5 61.75h-1.875M69.875 61.75H68"/><path fill="#0180B2" d="M20.998 22.004a1.002 1.002 0 1 1 0-2.004 1.002 1.002 0 0 1 0 2.004"/><path fill="#0180B2" stroke="#0180B2" stroke-linecap="round" stroke-linejoin="round" stroke-width="2" d="M33.344 75.688a2.344 2.344 0 1 1 0-4.688 2.344 2.344 0 0 1 0 4.688"/></g><defs><clipPath id="a"><path fill="#fff" d="M80 20H20v60h60z"/></clipPath></defs></svg>