<svg xmlns="http://www.w3.org/2000/svg" width="100" height="89" fill="none"><path fill="#D8F4FF" d="M94.873.3H63.694c-2.83 0-5.128 2.3-5.128 5.134v31.211a5.133 5.133 0 0 0 5.128 5.134h14.923c-.195 8.172-2.092 14.712-5.682 19.63-2.83 3.88-7.117 7.094-12.85 9.63-2.636 1.16-3.775 4.281-2.544 6.889l3.692 7.803a5.125 5.125 0 0 0 6.677 2.505c6.79-2.937 12.523-6.653 17.2-11.17 5.702-5.514 9.609-11.735 11.722-18.676S100 41.984 100 29.972V5.434A5.133 5.133 0 0 0 94.873.301M10.875 88.215c6.708-2.926 12.41-6.642 17.118-11.15 5.753-5.513 9.681-11.714 11.794-18.603q3.17-10.334 3.169-28.49V5.434A5.133 5.133 0 0 0 37.828.301H6.65C3.819.3 1.522 2.6 1.522 5.434v31.211A5.133 5.133 0 0 0 6.65 41.78h14.922c-.195 8.172-2.092 14.712-5.682 19.63-2.83 3.88-7.117 7.094-12.85 9.63C.403 72.199-.736 75.32.495 77.928l3.682 7.782a5.14 5.14 0 0 0 6.697 2.505"/></svg>