<svg xmlns="http://www.w3.org/2000/svg" width="80" height="80" fill="none"><circle cx="30" cy="30" r="30" fill="#FFDC3D"/><path fill="#0180B2" d="M51.245 25.004a.92.92 0 0 0-.745.917V39.67H23.917a.917.917 0 0 0-.917.916v31.165a.917.917 0 0 0 .917.916H39.5v5.5H34V80h25.667v-1.833h-5.5v-5.5H69.75a.917.917 0 0 0 .917-.916V55.252h-1.834v10.082h-44V41.503H50.5V53.36a.917.917 0 0 0 .917.917h3.208l.688.057 5.442 5.27a.917.917 0 0 0 1.547-.63v-4.64l4.813-.057h9.968A.917.917 0 0 0 78 53.36V25.92a.917.917 0 0 0-.917-.916H51.417a1 1 0 0 0-.172 0m1.088 1.833h23.834v25.608h-9.052l-5.73.057a.917.917 0 0 0-.916.917v3.38l-4.125-4.068a.92.92 0 0 0-.63-.229l-1.032-.057h-2.349zm-24.12 17.416a.92.92 0 0 0-.63.916v9.166a.917.917 0 0 0 .917.917h9.167a.917.917 0 0 0 .916-.917V45.17a.917.917 0 0 0-.916-.916H28.5a1 1 0 0 0-.287 0m11.287.916v1.833h7.333V45.17zm-10.083.917h7.333v7.333h-7.333zm10.083 2.75v1.833h7.333v-1.833zm0 3.666v1.833h7.333v-1.833zm-11 3.666v1.834h7.333v-1.834zm14.667.917a2.764 2.764 0 0 0-2.75 2.75 2.764 2.764 0 0 0 2.75 2.75H45a2.764 2.764 0 0 0 2.75-2.75 2.764 2.764 0 0 0-2.75-2.75zm4.583 2.75a2.764 2.764 0 0 0 2.75 2.75h1.833a2.764 2.764 0 0 0 2.75-2.75 2.764 2.764 0 0 0-2.75-2.75H50.5a2.764 2.764 0 0 0-2.75 2.75m-4.583-.917H45c.524 0 .917.393.917.917a.895.895 0 0 1-.917.916h-1.833a.895.895 0 0 1-.917-.916c0-.524.393-.917.917-.917m7.333 0h1.833c.524 0 .917.393.917.917a.895.895 0 0 1-.917.916H50.5a.895.895 0 0 1-.917-.916c0-.524.393-.917.917-.917m-25.667 8.25h44v3.666h-44zm16.5 5.5h11v5.499h-11z"/><path stroke="#0180B2" stroke-linecap="round" stroke-linejoin="round" stroke-width="2" d="M64.25 33v2.375M64.25 40.125V42.5M69 37.75h-2.375M61.875 37.75H59.5"/><path fill="#0180B2" d="M76.002 76.004a1.002 1.002 0 1 1 0-2.004 1.002 1.002 0 0 1 0 2.004"/><path fill="#0180B2" stroke="#0180B2" stroke-linecap="round" stroke-linejoin="round" stroke-width="2" d="M30.656 26.688a2.344 2.344 0 1 1 0-4.688 2.344 2.344 0 0 1 0 4.688"/></svg>