<svg xmlns="http://www.w3.org/2000/svg" width="235" height="141" fill="none"><path fill="#E7E8E5" d="M117.5 0C52.628 0 0 52.614 0 117.567h66.97c0-27.943 22.606-50.604 50.53-50.604 27.928 0 50.535 22.66 50.535 50.604H235C235 52.614 182.372 0 117.5 0"/><path fill="#FFDC3D" d="M90.746 3.109C38.748 15.189 0 61.849 0 117.567h66.97c0-23.957 16.651-44.054 38.998-49.257z"/><path fill="#535353" d="M113.418 118.515 90.832 3.088l30.755 113.522z"/><path fill="#E7E8E5" d="M140.93 117.567c0 12.944-10.484 23.433-23.421 23.433s-23.424-10.489-23.424-23.433 10.488-23.437 23.424-23.437 23.421 10.493 23.421 23.437"/></svg>