<svg xmlns="http://www.w3.org/2000/svg" width="80" height="80" fill="none"><circle cx="30" cy="30" r="30" fill="#FFDC3D"/><path stroke="#0180B2" stroke-linecap="round" stroke-linejoin="round" stroke-width="2" d="M29.75 21v1.875M29.75 26.625V28.5M33.5 24.75h-1.875M27.875 24.75H26"/><path fill="#0180B2" d="M50.002 33.004a1.002 1.002 0 1 1 0-2.004 1.002 1.002 0 0 1 0 2.004M77.993 77.867h-1.411v-36.8c0-.64-.403-1.067-1.008-1.067h-6.549c-.604 0-1.007.427-1.007 1.067v36.8h-5.844V51.733c0-.64-.403-1.066-1.008-1.066h-6.548c-.605 0-1.008.426-1.008 1.066v26.134h-5.844v-20.8c0-.64-.403-1.067-1.007-1.067h-6.55c-.604 0-1.007.427-1.007 1.067v20.8h-5.844V61.333c0-.64-.403-1.066-1.007-1.066h-6.348c-.604 0-1.007.426-1.007 1.066v16.534h1.02-1.008S24 78.155 24 78.795l-.001.138c0 .64.403 1.067 1.008 1.067h52.985c.604 0 1.007-.427 1.007-1.067s-.403-1.066-1.007-1.066m-50.982 0V62.4h4.534v15.467zm14.307 0V58.133h4.534v19.734zm14.408 0V52.8h4.534v25.067zm14.307 0V42.133h4.534v35.734zM23.113 55h.111c.334 0 33.168-4.154 51.422-25.961l.11 1.846c0 .576.557 1.038 1.114 1.038h.111c.668-.115 1.113-.577 1.002-1.27l-.334-4.5c0-.345-.223-.576-.445-.807-.223-.23-.445-.346-.78-.346l-4.34.462c-.668.115-1.113.576-1.002 1.269.112.692.557 1.154 1.225 1.038l1.67-.115c-17.81 21-49.641 25.038-49.975 25.038-.557.116-1.002.693-1.002 1.27.111.576.556 1.038 1.113 1.038"/></svg>