<svg xmlns="http://www.w3.org/2000/svg" width="80" height="80" fill="none"><circle cx="30" cy="30" r="30" fill="#FFDC3D"/><g clip-path="url(#a)"><path fill="#0180B2" fill-rule="evenodd" d="M49.103 24.162c-.418.156-.852.46-2.031 1.418-1.3 1.057-1.916 1.517-2.086 1.56-.178.043-.699-.024-3.064-.397-1.493-.236-1.79-.24-2.424-.029-.41.137-.59.256-.971.644-.273.278-.523.62-.6.82l-.326.845-.598 1.548a33 33 0 0 1-.526 1.306c-.145.307-.298.381-2.43 1.181-1.947.731-2.205.86-2.609 1.306-.675.744-.824 1.354-.639 2.608.068.459.138.886.156.95.073.263.374 2.38.37 2.614-.003.275-.085.389-1.806 2.502-1.148 1.409-1.364 1.815-1.368 2.584-.006 1 .054 1.098 2.592 4.178l.574.697-.033.541c-.018.298-.163 1.36-.323 2.36-.252 1.585-.278 1.873-.205 2.241.182.91.727 1.572 1.644 1.996.322.149.598.281.613.295s-.402.766-.928 1.673c-2.601 4.486-3.248 5.597-3.999 6.873-1.872 3.18-3.044 5.26-3.078 5.462-.052.319.15.693.462.853.21.107.412.12 1.306.079.582-.026 2.287-.083 3.79-.127 1.502-.043 2.844-.093 2.98-.111l.25-.032.913 1.716a564 564 0 0 0 2.457 4.57c.422.78.539.938.766 1.032.352.146.712.074.962-.192.11-.116.893-1.413 1.742-2.881a434 434 0 0 1 2.029-3.483c.267-.446 1.04-1.77 1.717-2.94 1.543-2.667 2.038-3.519 2.172-3.736.058-.095.2-.337.316-.54l.21-.368.758.598c.993.783 1.476.98 2.285.934.583-.033 1.295-.283 1.575-.553.053-.051.35-.292.657-.535l.56-.44.154.25c.084.138.495.842.914 1.566 1.062 1.833 2.598 4.47 2.927 5.03.076.127.795 1.363 1.598 2.746 1.942 3.344 2.447 4.184 2.636 4.39.344.375 1.02.29 1.296-.162.176-.289.93-1.68 2.06-3.802.452-.851.968-1.809 1.146-2.128s.36-.676.405-.793c.1-.26-.183-.255 4.692-.095 3.211.106 3.594.105 3.803-.002.297-.152.498-.531.446-.844-.035-.212-.974-1.873-3.37-5.965-.4-.681-.795-1.36-.88-1.51a205 205 0 0 0-.72-1.237c-1.863-3.191-3.058-5.276-3.034-5.297.015-.013.29-.145.612-.293.919-.422 1.452-1.05 1.634-1.928.1-.476.044-1.01-.348-3.343-.211-1.256-.236-1.683-.111-1.914.044-.083.66-.855 1.367-1.716s1.356-1.71 1.442-1.885c.24-.488.34-1.182.239-1.652-.132-.608-.34-.943-1.368-2.202l-1.349-1.655c-.445-.55-.5-.714-.403-1.227.037-.197.137-.814.222-1.372.085-.557.21-1.361.277-1.787.2-1.261.017-1.922-.74-2.672-.36-.356-.558-.477-1.174-.714-3.674-1.41-3.586-1.372-3.722-1.63-.129-.246-.907-2.212-1.369-3.457-.206-.558-.316-.73-.718-1.13-.392-.388-.568-.501-1.013-.648-.614-.202-.951-.193-2.622.073-2.229.355-2.548.395-2.787.351-.17-.03-.816-.496-1.983-1.429-1.233-.985-1.854-1.43-2.156-1.544a2.68 2.68 0 0 0-1.815.007m2.954 2.954c.929.742 1.832 1.422 2.006 1.512s.512.199.752.243c.442.08.72.047 4.155-.505.648-.104.719-.102 1.017.029.368.161.334.097 1.137 2.176.304.787.626 1.617.716 1.844.2.502.784 1.152 1.245 1.383.187.093.796.342 1.354.552 2.874 1.081 2.95 1.119 3.055 1.535.048.192-.099 1.374-.402 3.236-.224 1.37-.227 1.53-.048 2.1.18.574.286.726 1.844 2.616.515.624.998 1.23 1.073 1.344.157.24.178.645.046.89-.05.093-.667.879-1.372 1.745-.704.867-1.349 1.706-1.432 1.865-.266.505-.348 1.087-.244 1.722.627 3.845.649 4.112.353 4.405-.082.082-.885.429-1.784.771-2.387.91-2.578.993-2.928 1.291-.442.375-.633.703-1.052 1.808-.55 1.449-1.048 2.714-1.152 2.922-.114.229-.497.47-.747.47-.102 0-1.041-.138-2.088-.309-1.046-.17-2.112-.31-2.368-.31-.813 0-1.131.179-3.029 1.696-.961.769-1.836 1.41-1.96 1.437a1.1 1.1 0 0 1-.428-.002c-.112-.029-.98-.671-1.93-1.428-1.878-1.5-2.237-1.701-3.024-1.703-.243 0-1.341.143-2.441.32s-2.087.3-2.195.273c-.472-.117-.521-.21-1.55-2.902-.565-1.48-.817-1.934-1.287-2.319-.338-.276-.485-.337-3.804-1.597-1.108-.42-1.187-.587-.948-2.015.36-2.152.513-3.353.466-3.676-.091-.633-.4-1.127-1.696-2.72-.706-.867-1.324-1.652-1.374-1.745-.115-.213-.116-.604-.003-.815.048-.089.622-.81 1.274-1.6 1.452-1.76 1.564-1.925 1.734-2.57.148-.56.145-.598-.29-3.24-.253-1.537-.27-1.883-.107-2.157.181-.303.086-.26 3.155-1.414 1.115-.42 1.313-.52 1.703-.874.473-.428.611-.7 1.38-2.713.374-.979.736-1.874.804-1.99s.255-.262.414-.326c.254-.1.374-.101.98-.004 3.736.599 3.89.613 4.553.407.415-.128.693-.323 2.318-1.631.825-.663 1.597-1.26 1.718-1.327.436-.242.63-.138 2.43 1.3m-4.086 4.503c-5.82.817-10.647 5.241-11.943 10.946-.31 1.366-.449 3.552-.267 4.202.202.719 1.25.795 1.603.116.098-.188.116-.358.078-.73-.106-1.02.211-3.18.656-4.474 1.374-3.994 4.733-7.063 8.858-8.093 1.037-.258 2.711-.423 3.609-.355.525.04.71.024.927-.077.658-.31.65-1.27-.012-1.545-.336-.139-2.488-.133-3.51.01m7.162 1.079c-.345.148-.586.546-.535.883.057.374.3.594 1.096.992a15 15 0 0 1 1.218.688c.624.407.901.477 1.229.309.34-.174.484-.415.484-.808 0-.289-.04-.377-.27-.585-.504-.457-2.605-1.606-2.91-1.591a2 2 0 0 0-.312.112m4.372 3.562c-.256.254-.273.3-.239.651.03.307.102.456.387.791 2.055 2.423 3.132 5.752 2.875 8.878-.13 1.565-.484 2.905-1.161 4.391-.178.389-.323.796-.323.906 0 .491.366.846.865.839.44-.006.647-.188.974-.85a13.95 13.95 0 0 0 1.375-7.277c-.25-3.062-1.272-5.563-3.292-8.049-.513-.632-1.01-.727-1.461-.28m-9.037 2.473c-.214.105-.97.584-1.678 1.064-1.157.784-1.299.904-1.396 1.185-.098.278-.095.343.025.593.165.345.577.563.932.493.134-.026.473-.198.752-.381s.603-.396.721-.472l.215-.138v9.071h-1.034c-.882 0-1.07.023-1.28.15-.485.293-.512 1.037-.05 1.397.193.15.31.156 3.223.156s3.03-.006 3.223-.156a.89.89 0 0 0 .288-.97c-.152-.456-.358-.533-1.556-.577l-1.058-.038-.039-5.494c-.03-4.124-.063-5.536-.134-5.66-.072-.123-.605-.42-.745-.414-.01 0-.194.087-.409.191M38.956 50.596c-.685.206-2.04.81-2.174.97-.167.2-.2.694-.062.958.109.21.53.487.738.487.216 0 2.112-.816 2.298-.99.283-.263.302-.797.039-1.122-.174-.215-.61-.372-.839-.303m2.302 3.55c-.085.022-.533.41-.994.863-.92.902-1.019 1.095-.813 1.583.202.479.848.674 1.234.373.34-.266 1.508-1.483 1.615-1.685.301-.566-.373-1.3-1.041-1.134m15.203.003c-.206.04-.549.423-.616.688-.081.321.124.641.917 1.427s1.016.91 1.471.81c.405-.088.698-.596.59-1.023-.06-.234-1.445-1.676-1.775-1.847-.212-.11-.27-.116-.587-.055m-12.109 2.48c-.24.227-1.025 1.952-1.025 2.254 0 .235.197.594.407.74.264.183.78.155 1.008-.054.225-.206.927-1.75.985-2.165.08-.581-.28-.988-.873-.988a.68.68 0 0 0-.502.213m8.365-.057c-.236.094-.429.41-.435.713-.008.384.691 2.069.965 2.323a.847.847 0 0 0 1.169-.013c.33-.327.304-.664-.132-1.766-.42-1.06-.65-1.338-1.105-1.33-.16.002-.368.035-.462.073m-4.208.958-.265.264v2.429l.265.263c.218.216.325.263.593.263.27 0 .376-.047.594-.263l.265-.263v-2.43l-.265-.263c-.218-.215-.325-.263-.593-.263-.27 0-.376.048-.594.263m-13.051 1.29c.357.13.728.31.825.4.16.149.5.952 1.43 3.379.411 1.069.847 1.604 1.594 1.954.553.26 1.265.293 2.275.107 1.425-.263 3.248-.51 3.407-.462.2.06.68.402.68.484 0 .031-.153.317-.34.635-.185.318-1.066 1.832-1.955 3.364a195 195 0 0 1-1.808 3.074c-.105.159-.19.305-.19.325s-.62 1.092-1.376 2.381c-.757 1.29-1.43 2.458-1.498 2.596-.066.139-.142.252-.167.252s-.206-.305-.402-.677-.666-1.252-1.045-1.954S35.99 73 35.731 72.51c-.652-1.233-.808-1.464-1.051-1.559-.197-.076-4.477.01-6.514.131-.38.023-.683.01-.683-.028s.689-1.25 1.531-2.692c2.088-3.576 4.688-8.045 5.566-9.567.067-.117.146-.212.176-.213.029 0 .345.107.702.237m29.963-.024a796 796 0 0 0 3.233 5.552c.18.297 1.093 1.865 2.03 3.482s1.755 3.02 1.819 3.119l.116.178-.773-.043c-.425-.023-2.021-.082-3.547-.13-2.52-.08-2.798-.076-3.021.039-.281.144-.263.114-2.013 3.414a93 93 0 0 1-.775 1.432c-.178.319-.427.78-.553 1.023-.174.337-.25.42-.316.348-.074-.081-.499-.804-2.538-4.327l-.447-.773a2210.064 2210.064 0 0 1-4.134-7.096l-.196-.34.267-.218c.447-.365.366-.37 3.661.173 1.711.282 2.511.124 3.266-.643.38-.386.559-.735 1.063-2.073.736-1.955.985-2.535 1.155-2.694.153-.142 1.291-.62 1.502-.631.043-.002.133.091.2.208" clip-rule="evenodd"/><path stroke="#0180B2" stroke-linecap="round" stroke-linejoin="round" stroke-width="2" d="M73.25 23v1.875M73.25 28.625V30.5M77 26.75h-1.875M71.375 26.75H69.5"/><path fill="#0180B2" d="M20.998 22.004a1.002 1.002 0 1 1 0-2.004 1.002 1.002 0 0 1 0 2.004"/><path fill="#0180B2" stroke="#0180B2" stroke-linecap="round" stroke-linejoin="round" stroke-width="2" d="M23.656 61.688a2.344 2.344 0 1 1 0-4.688 2.344 2.344 0 0 1 0 4.688"/></g><defs><clipPath id="a"><path fill="#fff" d="M80 20H20v60h60z"/></clipPath></defs></svg>