<svg xmlns="http://www.w3.org/2000/svg" width="812" height="480" fill="none"><path fill="#F4F8FF" fill-rule="evenodd" d="m525.21 375.81 3.059 5.831.609 2.658 6.033 1.479-3.356 5.143-4.533-.756-.887 3.5-7.417-.816-6.008 6.05h-5.978l-12.685 5.371-1.583 2.085-.243 4.22-8.392 1.433-8.311 6.531 1.19 5.034 5.216 1.582 2.771-1.042 3.457-3.029 9.271-.212 13.676 10.615 5.04.184 3.783-.829 10.749 6.552 3.017 9.561-.971 5.11-4.67 2.337-.194 2.572.702 5.542-4.872 4.068-1.958 3.089 2.884 2.859 7.663.987 3.394 4.363 7.651 2.118 1.509-3.959 3.4 3.436 6.166-1.624 7.469-5.579 5.072-4.445 5.867-10.489 14.027-6.243 6.56.38 3.561-3.75 6.068 4.338 1.891-1.808.688-4.819 3.749-1.848 2.079-2.635 4.548-.759 1.74-6.297 6.152-4.562 5.886-.429 9.637 8.052 7.209-.362 3.478-4.674 8.248 3.014 5.592-3.208 4.456-1.356-4.216-6.285 2.818-7.611 2.944-3.227 6.585-.539-1.348-3.244-11.66-.756-13.847-.948-4.373 9.281-5.709-3.186-2.686-3.191-5.145 5.775-7.02 2.978-7.206 4.684-10.349-3.83-5.53-.812-5.664-5.399 4.323-5.583-3.711-5.961-7.842-2.355-1.724-2.834h-5.643v-5.481l-5.766-1.872-3.552-3.5-4.831-1.008-2.005-4.296-7.412-1.052-3.477 6.497-3.609-2.111-.448-5.703-2.337-1.459-3.633 4.382-8.858-7.139-4.615-4.043zM108.651 97.732l4.627-2.289 7.642 6.121-3.307 4.944 1.308 2.794 4.485-1.007 5.58 6.143 7.338-1.508 7.417 1.547 2.369-.922.093-2.308-2.874-1.602 1.856-2.375.777-3.756 6.425-.41v-3.675l3.021.408-.203-2.334 3.212-1.597 8.489-.97 10.27 3.5 1.302-2.286-.497-5.568 3.764-1.367 2.799-2.548v-5.152l4.852-1.72-1.138-3.753-4.746-.104-1.348-4.328 5.727-2.397 1.003-2.33-6.952-3.493-3.004-6.788h-10.06v-7.418l-1.64-2.875 3.411-1.661-.101-3.65-3.062-2.375-.411-3.386 5.727-6.065.045-3.405-5.122-4.856-7.463 2.182-3.719-4.793-7.027 4.108-27.658-1.954-4.304 4.311.223 5.575-13.217 8.482-8.26-5.23-10.137.543-.182 3.057 5.254 9.614-5.512 6.182 10.965 10.956 1.56 11.34 10.847 8.424-11.535.822 4.849 8.152zM328.798 70.614l.28 3.853 8.683 3.876.366 6.502-3.2 2.533 4.771 5.017-1.709 3.263 3.339 1.464.914 5.914-4.843 4.104 1.907 4.589-3.238 6.752 6.354 1.358 1.383 5.727 2.469 3.9 1.031 7.666-3.081 3.553.863 3.019 3.743 3.597-5.775 5.372-9.04 3.064v4.612l2.566 4.185 3.033 2.192-3.896 2.824 2.797 2.646-1.541 2.81 1.295 1.235-.136 3.172-3.006 2.727 9.646 7.252.207 3.523 5.612-.087 3.082-5.298 3.351-.113 6.096-4.781 2.944 3.829 2.654-.1 4.789 2.146 2.058-5.706 6.955.428 3.62-3.645 2.492 4.03 2.337-1.333 5.935.884.961-3.363 5.066-4.855 4.792-5.37-2.799-3.344 3.417-1.381-.578-9.756 3.438-5.58 8.135-1.561 8.634 3.988 4.887-3.048 4.445-6.593-.486-5.119 4.144-2.886 1.711-5.567 3.976-.741 3.105-6.284-7.487-5.416 2.476-4.649-7.48-4.687-11.753 6.629-9.429.65-7.701-4.953 1.439-4.315-7.322-6.127-13.164.653 1.286-5.52-4.657-3.783-3.258-4.838 1.413-7.971-7.206-8.452-.023.005-4.445-2.814-2.687-8.446-3.46-2.315-11.762-.378-3.388 3.762-5.353-.703-.65-3.628-3.102.149-6.322 7.92-2.936-.415 1.506 3.59zM246.966 193.404l4.113-2.814 5.441 3.706 3.894-1.487.433-4.259-1.396-8.059-4.389-7.265 1.802-2.715 1.389-4.348.543-2.582-1.926-2.71 3.506-2.975-5.863-3.909-6.538-5.945 1.935-8.14 3.622-.924.548-6.25-1.739-5.742-2.983 1.866-5.661-4.624-7.981-7.768 3.662-3.855-2.957-5.924-2.573.256-3.893.503-4.702 2.645-4.301-.409-6.623 6.009-5.989 6.194-4.275 2.641h-4.011l-3.594 4.73-3.541-.43 1.193 2.681-1.51 4.522-2.814 4.422-.568 5.471 2.472 6.296.74 9.393-5.622 5.03 2.623 7.096 1.225 7.745-3.061 4.544 1.873 6.571-1.808 5.801-.464 7.827 1.675 3.762-1.065 8.041 6.561 8.623 4.888.215 1.706 5.192 1.286-.45.371-6.557 3.394.147 1.451 2.094 1.61-4.228 4.969.382 1.97 4.184 2.997-3.346 2.819.579.676 2.168 3.434-.168 2.244-2.428 3.633 2.467 2.79-3.629 4.763-7.426-.476-15.734 4.407-5.741z" clip-rule="evenodd"/><path fill="#F4F8FF" fill-rule="evenodd" d="m254.9 57.8-2.772-1.91.098 5.102-3.596 2.34 1.031 3.81-3.517 4.995-.861 4.844-6.957 3.511-.215 5.423 2.088 2.91-1.432 3.035 3.117 4.94-3.227 4.683-1.117 4.501 3.405 6.813-3.454 3.635 7.163 6.97 4.819 3.933 3.665-2.295 2.3 7.579-.642 7.264-3.737.953-1.622 6.838 5.966 5.435 6.118 4.075 4.52-1.387 7.616.107 6.565-1.599 4.435 1.889 4.122-3.509 6.658 2.271 5.187-.486 4.379-3.741 6.102-.725 1.297 7.965-1.271 5.371 3.209 4.315h9.303l7.021-3.543 4.232.167-2.221-3.636v-5.715l9.617-3.255 4.705-4.381-3.129-3.005-1.102-3.864 3.144-3.622-.94-6.968-2.438-3.846-1.245-5.181-7.065-1.511 3.642-7.595-2.022-4.88 4.979-4.217-.727-4.705-3.865-1.699 1.898-3.62-5.052-5.314 3.677-2.916-.292-5.262-8.673-3.876-.37-5.041 5.317-4.8-1.47-3.519-3.18-.448-4.557-5.679.671-6.487-3.043-4.098-3.229-.152-3.124 6.255h-6.097l-2.417 3.71-.537 7.332-5.921-5.691-.654-6.867-7.185-1.923-3.666 4.063-5.802-8.02-4.502 5.387-7.235 1.094-3.428-5.513-2.115 7.593-4.029 2.117-2.269-1.806zM131.414 196.48l5.313.102 1.401 2.233 3.359 1.682 2.161 4.589 8.194-.3 7.885 5.15 1.169 6.256 4.734 1.679 6.132 4.577 5.545-2.789 3.556 2.273 3.248 5.087 7.317 1.435 1.688-1.33-6.696-8.808 1.079-8.174-1.657-3.734.485-8.194 1.755-5.634-1.922-6.744 3.104-4.602-1.147-7.235-2.835-7.676 5.769-5.163-.687-8.709-2.509-6.39.62-5.976 2.881-4.519 1.339-4.007-1.871-4.205.326-4.242-7.174-.655-4.596 1.277-6.273 4.759-8.288-.438-4.117-.572-2.256 2.512-1.057 7.915-1.493 5.555-6.836 3.329-6.859-.307-2.195 2.271 1.14 5.535-5.845.67-3.529 4.95-6.308 1.56-2.729 3.462 3.421 2.708 1.084 6.275 2.082 6.537-1.71 3.64-.289 2.912h5.439l1.046 2.583-4.587 2.782z" clip-rule="evenodd"/><path fill="#F4F8FF" fill-rule="evenodd" d="m168.771 38.04 3.106 2.413.135 4.878-2.994 1.46 1.201 2.119v6.518h9.64l3.168 7.147 7.528 3.786-1.603 3.706-5.194 2.18.786 2.537 4.749.103 1.709 5.608-5.115 1.816v4.835l-3.374 3.067-3.113 1.13.451 5.042-2.022 3.539-11.093-3.782-7.886.902-2.243 1.11.271 3.072-3.15-.424v3.397l-6.633.421-.641 3.108-1.235 1.582 2.351 1.306-.147 3.724-3.111 1.204-1.401 2.808.725.866 3.494-1.688 1.952 2.846-1.535 2.576-.332 5.313 3.156 4.679 6.273.452.514-3.868 2.97-3.314 4.837.671 7.674.405 6.071-4.605 5.13-1.428 8.733.8-.389 5.116.172.385 3.453.423 3.523-4.634h4.3l3.792-2.347 5.909-6.106 7.109-6.449 4.485.424 4.546-2.557 4.202-.54 2.608-.264 1.107-4.471 2.94-4.26-3.051-4.843 1.414-2.997-1.939-2.705.257-6.434 7.042-3.558.806-4.523 3.364-4.78-1.108-4.09 3.759-2.445-.135-6.964 3.873 2.666 3.581-4.492.951-5.181-3.042.334-3.598-3.526-5.326 4.111-3.965-.496-.68-5.975-3.852-1.193-.003-4.276-5.97-1.351-2.177 2.855h-5.061l-8.485-5.479-8.861.6-2.921-3.55-8.285.195-4.688-5.674-9.061.58-2.501-1.647-6.478 3.907-.054 3.756-5.664 6.003z" clip-rule="evenodd"/><path fill="#F4F8FF" fill-rule="evenodd" d="m38.762 189.478 2.29 5.301 7.372 1.231 5.222 6.448 5.874 1.03 4.662 4.085 1.816-5.918.243-7.746 4.257-3.929 4.784-6.401 4.67 1.214 6.324-1.74 8.461.311 7.023-1.249 5.626.49 1.278-1.755-3.944-1.826-.528-4.496 2.167-5.484 1.128-5.927 5.405-1.504 6.764.879 2.073 1.644 2.903-3.679 6.276-1.555 3.59-5.037 5.072-.58-.997-4.864 3.028-3.139 7.144.318 5.977-2.91 1.346-4.988.421-3.137-6.92-.499-3.72-5.513.372-5.916 1.32-2.214-.898-1.314-3.393 1.641-1.881-2.252 1.49-2.993-6.539-1.364-7.855 1.612-5.571-6.131-4.77 1.077-2.009-4.285 3.096-4.622-6.123-4.905-4.628 2.289-5.836-4.722.378 6.635-5.722 6.264-13.158.784-5.034 7.092-16.165 10.826-9.425 9.435-15.836 12.114-6.738 8.194.829 4.738 4.829 6.248-4.673 8.776 5.895 5.546zM435.475 262.88l7.176 5.088-1.677 6.572 9.178-.39 3.639 3.769 5.205-4.954 7.194 1.33 6.767 1.806 5.918-2.265.338-5.305 1.609-6.231 4.482 1.569 6.028-5.077 4.754 1.354 12.341-10.096 7.729-5.283-3.926-14.385 14.974-8.717-7.55-3.357-3.157-4.022 4.448-1.825 7.797.728 1.808-.92-7.225-4.955-7.435.101-9.276-1.537-1.67-6.607-8.209-2.366-13.005-.39.145.324-.128 6.039-11.541 3.594-6.518-6.246-7.242-.284-3.8 3.609-1.054 6.946-5.415-2.825-6.452 5.546-2.976-5.104-5.236-.38-7.168 1.045.222 4.478-6.242 7.144-6.019-1.506-6.197 2.401-6.935-2.239-11.909-.802-6.293 6.303-1.175 7.552-5.624-2.802-8.187 7.591-3.073-2.697-5.629 3.134-4.376 4.623-4.073-2.627-3.087 2.789 7.593 4.893 1.843 3.662 2.079 3.736 8.307.204 1.303 1.294 3.733-2.873 8.732.437 3.566 1.703 3.622-3.769 3.327-.264 2.291 3.713 5.606-2.131 4.541-3.983 6.63.93 3.492 6.831 7.221-1.286 4.61 1.098-.269 2.99 5.025-3.883 7.666.599-1.124 5.311z" clip-rule="evenodd"/><path fill="#F4F8FF" fill-rule="evenodd" d="m667.64 218.81-4.61 2.582-1.424-5.224-2.391-.433-.809 2.944-4.864-.251-3.128-2.926-4.693 6.943-4.67.66-.884-5.759-6.187-3.963-.464-4.887-6.629-2.181-.842-6.404-4.051-2.048-6.157 4.356-7.25-3.231-8.522-.103-12.215-9.666-7.326.099-5.864.101-4.73.506-5.629 2.875-5.604 1.842-7.504 6.678-1.753 4.511 2.354 3.717-1.602 6.1-8.714-.226-7.275-1.989-2.348-.468-2.817 1.437-7.864-.731-2.67 1.093 2.065 2.629 9.303 4.132-16.118 9.382 3.907 14.322-8.366 5.714-12.394 10.148-.546 5.259 2.733 2.909-1.005 8.575-4.298 3.57.484 2.031 3.325 3.475 4.287-.594 7.661 2.092 1.768 3.104 8.243-5.901 6.244 5.363 10.204-1.409 8.715-1.484 7.382 2.157 5.718-2.409 8.13-3.081 6.865.95 10.3-1.079 1.309-9.141-3.926-1.982.814-4.776-3.078-.771-1.344-3 3.814-3.734-3.516-2.218 1.222-7.873 4.034.945 3.943-1.936 12.885-.105 4.464-1.303 4.877 2.545 7.5-4.594 6.695 3.984 6.348-2.896.8 3.146 4.19.431-.257 4.069 3.758 3.925-1.521 3.702 1.249 1.029 4.228-1.65 3.784 2.517 2.39-1.902 6.023-.005 1.407-2.366 4.062-3.376-3.151-2.476.923-7.654 7.296-.486 1.326 2.327 4.404.083 1.091-3.737-2.012-2.231 2.316-1.437.104-4.86-5.084-2.488-.371-9.861 2.922-4.434z" clip-rule="evenodd"/><path fill="#F4F8FF" fill-rule="evenodd" d="m594.662 118.925-4.463 1.337-4.317 5.624-4.736-1.489-6.802 5.546-.212-.012-.966 2.783 1.527 2.566-4.672 3.994 1.834 1.274 1.019 3.664 6.522.92 1.581 2.468 5.783-1.105v6.453l4.263 4.595 3.078-.176 2.395-2.104 2.492 3.052-1.252 1.996 3.477 2.731-2.129 2.846 1.972 3.58-7.046-.102 1.827 2.856-1.554 4.538-5.007 4.502-6.501-1.255-1.375-1.29-1.687 1.948-1.094 4.312 2.264 3.159 7.478-.101 12.234 9.677 8.326.103 6.752 3.009 6.193-4.38 5.438 2.74.821 6.281 6.657 2.188.486 5.096 6.154 3.943.777 5.059 2.689-.382 5.279-7.819 3.989 3.725 3.207.168.748-2.711-.335-10.252 4.602 1.66 3.316-2.609h5.116l2.62 1.768 1.581-2.77 8.712-7.744 1.06-4.945 5.005-5.932 4.843 5.41 3.01-2.433 2.438 1.996.11 3.231 5.486 1.203 1.572 2.457 5.549-.839 4.955-3.088.22-4.137-.229-5.64-4.028-4.636-5.171-6.007-2.737-7.095 3.451-5.428-1.536-4.982 2.483-4.349-2.238-6.092 1.942-5.004.311-3.614-8.144-7.894-5.156-.593-8.199-8.005.637-6.655-6.047.188-2.001-6.436-6.497.668-.429 4.337-5.404 2.801-10.898-.587-7.651 5.963-.473 4.531-4.471.732-7.917-8.626-2.648 4.104-4.341-.474-6.455-8.783-10.75.369-8.869 8.801-1.65-1.971-3.157 2.672z" clip-rule="evenodd"/><path fill="#F4F8FF" fill-rule="evenodd" d="m543.022 114.918-2.057-6.257-6.815 4.211-7.236-3.537-7.508 4.627-7.221-1.716h-9.024l-4.326-2.724-2.038 1.879-6.202.214-9.146 7.498-5.589 2.399-9.136-.542-5.201-2.873-2.655 1.786-4.35 3.7-3.595-1.284-2.966 6.015 8.093 5.268 1.075 5.336 7.705 6.014-1.637 7.265 7.078 2.95.968 4.559 9.62 7.059-3.607 15.151 5.949 13.404 13.766.415 9.121 2.629 1.649 6.498 8.281 1.375 7.762-.105 8.258 5.66 2.512.507 7.152 1.952 7.426.191 1.244-4.72-2.392-3.773 2.045-5.266 7.923-7.053 5.777-1.9 5.773-2.951 5.066-.533 4.748-.085-2.125-2.964 1.279-5.043 2.821-3.26 2.184 2.039 5.364 1.035 4.253-3.821 1.295-3.783-2.681-4.213 7.197.109-1.354-2.456 1.906-2.564-3.41-2.678 1.36-2.165-1.072-1.316-1.634 1.435-4.281.242-4.996-5.392v-5.409l-5.132.978-1.742-2.731-6.767-.956-1.116-4.028-2.674-1.852 5.054-4.321-1.32-2.219 1.037-2.989-3.144-.215-6.826 3.096-11.119 1.033 1.64-7.093-6.015-4.238.473-4.359z" clip-rule="evenodd"/><path fill="#F4F8FF" fill-rule="evenodd" d="m356.877 234.635 2.018 1.525 6.208-3.459 2.859 2.506 7.957-7.383 4.812 2.401.964-6.178 7.001-7.012 12.772.861 6.594 2.129 6.145-2.38 5.61 1.404 5.388-6.168-.254-5.092 8.5-1.244 6.15.45 2.489 4.259 5.886-5.059 4.555 2.375.843-5.539 4.505-4.291 8.422.333 6.297 6.033 9.823-3.062.107-4.989-6.671-15.037 3.523-14.805-9.375-6.879-.925-4.383-7.406-3.085 1.687-7.504-7.48-5.84-1.062-5.274-7.851-5.111-3.214.6-1.611 5.243-3.928 2.735.465 4.865-4.815 7.136-5.789 3.609-8.927-4.123-7.056 1.352-2.968 4.815.605 10.218-2.752 1.115 2.426 2.901-5.447 6.104-4.873 4.678-1.175 4.127-6.643-.99-3.124 1.782-2.254-3.66-2.79 2.803-6.57-.405-2.213 6.153-5.892-2.641-3.047.112-2.512-3.247-5.3 4.162-3.053.1-3.087 5.312-6.375.099.114 2.003-6.259 4.037.432 2.799 3.102-.909-.783 5.009 2.698.693 1.13 5.826 1.294 4.354 4.233.107.712 5.536 4.949.315-.132 5.506zM504.435 16.7l-4.065 3.564.125 5.217-9.441 4.135-2.545 4.267.326 5.041 3.082 1.663.993 13.693-6.275 4.993 3.627 6.671-5.395 6.836.719 3.156 9.164 5.214 1.022 7.947-3.347 2.929 2.733 5.404-5.024 4.407 3.074 3.688-1.93 4.888 4.914-.167 2.474-2.279 4.927 3.102h8.776l6.783 1.607 7.683-4.728 7.237 3.533 7.664-4.732 2.454 7.468 4.983 3.305-.472 4.378 6.089 4.292-1.444 6.218 9.052-.841 6.937-3.144 4.526.305 6.964-5.683 4.527 1.423 3.986-5.192 5.26-1.578 4.699 1.006 2.758-2.332-3.131-3.739.41-3.006-6.777-.957-2.13-9.763 2.429-7.547-8.364-12.284 2.407-2.88-2.243-2.27-6.376 2.28-1.831-9.249-7.353.181-6.927 2.542-7.263.44-.454-4.37-7.952-.18-5.19 2.483-3.642-2.945 3.092-5.23-6.854-4.004 3.473-3.48v-4.455l-7.159-6.68 4.329-4.689 8.5-1.339.561-3.595-14.286-12.13-.224-8.823L516.056 0l-9.871 6.437-2.41-5.08-2.887-.225-3.169 9.57z" clip-rule="evenodd"/><path fill="#F4F8FF" fill-rule="evenodd" d="m384.104 85.119 2.911 4.317 5.071 4.121-1.083 4.675 11.998-.597 8.341 6.976-1.409 4.213 6.539 4.201 8.601-.594 12.225-6.896 9.136 5.718-2.513 4.714 6.996 5.055 3.3 1.179 3.775-3.207 3.457-2.331 5.716 3.156 8.429.498 5.088-2.18 9.058-7.431 1.969-4.982-3.333-4.009 5.179-4.543-2.727-5.409 3.535-3.102-.875-6.825-9.112-5.185-.942-4.125 5.281-6.689-3.724-6.848 6.542-5.2-.912-12.517-3.085-1.665-.388-5.982 2.918-4.89 9.068-3.976-.114-4.977 3.528-3.089-6.333-5.655 3.313-10.012-7.594-.593-9.726 7.737-4.764-1.79-5.04 3.013-7.134-5.246-7.887.177-1.548 13.148-8.815 3.968-6.403-1.04-3.322-1.94-22.311-.957-5.305 5.7-2.989-4.145h-7.155l-1.264 4.813-9.192 7.862-3.197 10.185-3.59.788-1.649 4.69.209 4.347 2.7 1.972-.001 5.857 2.973 1.806-1.274 6.48-6.825.876 7.109 8.335zM687.808 313.834l1.11-4.061-6.153-3.143-6.968-4.467.95-6.439 6.226-.418 1.162-4.274 4.715-1.344 1.027-5.475-6.324-1.657-6.097-4.319-7.906-.211-2.846-5.327-6.535-5.723-3.193-6.167-.684.565-1.677 2.828h-6.317l-2.839 2.263-4.04-2.687-4.316 1.679-2.548-2.09 1.563-3.795-3.604-3.767.222-3.423-3.884-.4-.625-2.467-5.512 2.513-6.594-3.924-7.453 4.564-5.091-2.656-4.087 1.189-12.748.102-4.116 2.025-3.09-.723-.91 5.855 4.075 2.563-4.26 4.175.797 1.78 3.567.896-.849 5.003 3.908 1.97-1.542 10.827-11.538 1.212-6.661-.924-7.747 2.938-5.204 2.195 3.09 3.64v6.106l4.477 2.44 3.275-4.192 3.758 4.808v7.396l4.535 6.272-.558 4.006 6.746 2.106 3.767 6.383-6.896 7.134 5.906 1.794-2.389 5.344 9.894 3.7 6.644 1.209 2.639 9.629 3.931-2.813 2.351-4.637 2.488 5.085 3.101.64 12.494-11.332 11.368-10.558 12.634-1.206h3.696l3.035 3.551 7.418-8.17 6.388-1.996 5.04-2.105 4.824 2.76 2.884-5.236 3.706-2.167-.367-5.137z" clip-rule="evenodd"/><path fill="#F4F8FF" fill-rule="evenodd" d="m588.377 349.164-11.218-4.203 2.351-5.264-6.435-1.956 7.582-7.84-3.113-5.265-7.263-2.268.631-4.525-4.485-6.204v-7.373l-2.411-3.095-2.895 3.707-6.201-3.385v-6.371l-3.185-3.75-7.105-2.079-8.398 1.433-10.898 1.503-5.861-5.041-8.611 6.167-2.262-3.972-6.817-1.863-2.725.38 2.599 1.615.407 7.192-4.116.377 1.201 1.824 2.034 1.451.502 8.692-1.82 2.088-5.99 1.648-2.423 4.064 6.202 3.06 1.348 4.201-3.14.442v4.046l-5.816.938v4.162l-7.926 1.203-2.295-3.92h-4.448l-1.987 2.668-6.366.708-.824 3.259-4.507-2.704-1.783 1.643-1.541 2.821-8.757.696 1.229 2.838 7.018 4.848 6.514-.82.724 1.684 8.995 1.068-6.196 7.555-7.332-4.567-8.955-.573-11.838-.203-3.677-2.083-6.426 2.152 5.109 5.472 6.524-3.053 6.381 2.595 6.899-1.039 1.419 4.951-8.619 3.024-4.096-1.319-3.205 2.805.841 2.055 6.669.731 7.223-.818 4.482 4.719 4.367-.403 3.588 6.483 7.046-.547 8.11-3.16 7.923.6 9.071-.38 2.852-3.634 2.279 3.192 5.411-5.984 2.008 7.251 5.263.552 3.338 1.697 4.621-3.595.006.01 5.413-5.082 3.554-4.788 4.175 3.857 3.806-2.945 6.723 6.272 5.225-9.36 7.002 8.904 2.542-3.718 5.14 3.602 2.461 2.635-2.773 2.225 2.86 4.677 3.803-.954 1.439-5.032-1.207-4.872 5.037-1.719 2.526 2.949-1.19 3.542v2.907l3.425 1.742 2.424-2.619.635-4.81-1.585-4.766 1.924-5.781 3.053 2.45 5.307-3.796-2.584-9.454zM767.93 243.808l-8.903-.324-1.422-5.932-6.533-.31-3.875-7.201-6.234.812-2.752-2.281 2.327-3.649-2.318-3.698-5.745-2.095-3.37-7.653.964-6.748-.574-6.532-4.097-4.752-6.812-.675-5.259 3.276-6.789 1.029-1.755-2.74-5.906-1.298-.125-3.632-1.121-.915-3.164 2.559-4.648-5.201-3.774 4.472-1.075 5.037-8.855 7.864-2.213 3.883-3.553-2.395h-4.141l-3.564 2.801-3.467-1.251.272 8.315 3.258.594 1.187 4.341 3.931-2.201 2.883 2.529-3.247 4.927.339 8.857 5.122 2.503-.135 6.17-1.712 1.06 1.545 1.715-1.52 5.211-6.281-.126-1.285-2.255-5.278.352-.735 6.08 3.728 2.925-3.244 2.697 3.284 6.334 6.524 5.719 2.608 4.866 7.525.203 6.241 4.421 7.203 1.882-1.345 7.211-4.78 1.355-1.213 4.467-6.115.415-.707 4.796 6.267 4.026 6.958 3.546-1.502 5.502-4.5 1.621.257 3.613 7.983-4.661 4.239-1.311 3.024 2.123 7.582-12.148 4.466-1.377 2.319 2.231 4.956-.351 2.022-2.566 13.086-.207 2.377 4.163 2.316-6.098-2.539-5.26 5.332-4.678-6.005-1.503 4.15-6.208v-11.767l7.394-3.556 6.011-.783 6.36-3.899 2.279-11.189 8.208-.757-.535-4.57z" clip-rule="evenodd"/><path fill="#F4F8FF" fill-rule="evenodd" d="m810.086 221.091-7.11 1.78 2.784-6.656-4.391-4.623.211-5.785-8.687-1.172-.491-9.161 5.799-5.716 7.242.993 3.457-2.357-.589-2.056-4.567 2.003-4.416-3.26-5.309-.193-4.831-2.449 1.32-4.883 9.193-2.355 1.505-4.903 6.633-7.361-.837-6.245-7.37-7.062 5.201-7.015-6.025 1.212-6.089 5.537-4.317-2.732-6.329.204-2.517-7.405-5.444-1.591-5.852 2.669-7.483-8.874-6.773 6.123-7.456-4.088h-4.828l-4.206-4.464-7.81 1.141-7.281-1.49-.894-4.299-3.518-.59-.864 8.713-5.592 2.353-.323 3.679-1.849 4.775 2.27 6.179-2.5 4.383 1.547 5.007-3.427 5.393 2.48 6.419 5.034 5.849 4.281 4.933.245 6.065-.208 3.923 7.016.692 4.685 5.437.615 6.993-.94 6.566 3.04 6.91 5.651 2.063 2.903 4.623-2.184 3.421 1.522 1.263 6.58-.859 3.956 7.36 6.757.315 1.426 5.92 8.419.306 2.476 2.409.609 5.167 3.78 2.443 5.965-3.551 2.977-.712 3.752 3.676 6.453-2.644 7.358 1.173 4.302-2.225-2.409-11.324 1.605-4.594.927-6.534 5.655-2.747zM105.024 244.423l.236-6.977-7.352-6.538-3.847 2.351-3.973-2.613-.22-8.78-5.642 2.09-6.133-4.588-2.96-6.226-5.617-3.742-5.276-.104-5.38-4.724-5.997-1.051-5.217-6.443-7.584-1.27-2.776-6.423-5.798-4.903-5.3-.403-1.315-2.495-2.16.135-1.514 6.647-9.166 6.267-1.774 10.697-2.278 2.88-5.329.586L0 213.09l.503 6.182 5.271.291 3.368 11.489 8.042.586 3.278 9.77 7.334-2.627 4.11 9.307h6.268l6.32-7.074 11.886 10.717 4.62-2.892 12.435 7.66 6.45-3.867 10.054 8.517 9.518-6.326 9.062 1.419 1.148-4.444.215-3.325zM239.245 224.077l-3.71.085-3.41 4.434-3.728-2.533-1.792 1.943-5.108.247-.748-2.412-1.213-.245-3.888 4.346-2.534-5.387-3.101-.241-2.192 5.755-2.586-3.731-1.343-.06-.343 6.135-3.466 1.216-1.849-5.632-3.996-.173-2.423 1.91-8.582-1.68-3.401-5.321-2.611-1.676-5.612 2.825-6.681-4.993-4.528-1.603-4.03 2.739 1.991 4.072-.254 5.243-4.923 4.55-1.992-1.749-4.916 1.123-7.229 6.241-7.438 6.308-6.743 6.826-.786 7.183 2.571 3.108-4.053 8.12h5.983l11.754-9.712 22.12-.002 3.388-3.557 14.026 1.169 8.021-12.3 18.732-1.466 4.162-10.034 8.645 4.548 3.641-3.193 7.371 2.646 4.717-4.431 4.41 1.785 4.722-3.621-1.889-5.275z" clip-rule="evenodd"/><path fill="#F4F8FF" fill-rule="evenodd" d="m122.695 260.152.876-8.003 7.064-7.146 7.472-6.341 7.486-6.458 6.005-1.372 1.563 1.372 3.624-3.354.222-4.537-2.279-4.659 4.839-3.292-1.08-5.762-7.065-4.624-8.657.325-2.345-4.981-3.287-1.645-1.213-1.929-5.368-.106-3.027-5.666 4.675-2.838-.387-.951h-5.952l.427-4.368 1.617-3.435-1.972-6.216-1.037-5.932-5.84-4.626-6.054-.787-4.325 1.202-1.006 5.304-2.109 5.339.42 3.613 4.604 2.125-2.517 3.447-6.243-.55-6.984 1.244-8.387-.307-6.49 1.789-4.108-1.069-4.312 5.748-3.974 3.685-.234 7.437-1.934 6.313 4.58.094 6.251 4.158 2.977 6.261 5.259 3.937 6.697-2.489.25 9.942 2.674 1.762 3.98-2.432 8.549 7.601-.234 6.96 4.876 4.062-.257 3.954-1.246 4.833 11.736 13.538 3.616-7.25zM458.787 335.884l2.721-2.511 3.81 2.286.597-2.361 6.689-.747 2.049-2.741h5.99l2.217 3.783 5.841-.885v-4.156l5.816-.932v-4.071l2.788-.39-.792-2.456-6.85-3.383 3.28-5.51 6.112-1.681 1.267-1.448-.455-7.74-1.759-1.252-2.357-3.585 4.906-.454-.308-5.503-3.483-2.165-3.845-4.022-.702-2.959 4.482-3.717.893-7.656-2.729-2.907.574-5.493-3.853-1.1-6.078 5.117-3.824-1.338-1.236 4.794-.377 5.926-7.128 2.728-7.185-1.922-6.394-1.18-5.714 5.443-4.194-4.341-10.275.437 1.88-7.363-7.776-5.522 2.918-2.2.771-3.632-5.62-.44-7.083 5.481.445-4.92-3.22-.767-7.977 1.415-3.624-7.106-5.238-.738-4.236 3.718-6.976 2.65-2.452-3.983-1.894.149-3.977 4.137-4.262-2.036-7.885-.393-3.308 2.547 1.276 1.265-4.58 2.281 2.293 4.575 3.484 2.291-.827 6.866 5.112 3.33-1.166 7.94 6.16 1.395 6.446-1.194 1.734 2.15 2.353-2.78 6.092 6.879-1.973 5.951-.457 5.667 3.519 4.621 4.991.836 2.744-1.97 4.748 2.681-3.23 3.232 5.35 2.024 3.78 3.999-2.633 7.273-7.868-.107-2.216 1.439.482 2.539 7.054 4.928v5.743l-2.819 4.396h4.612l3.535 2.37 7.495-6.203 1.049-4.366 4.089 2.203-.496 3.692-.373 3.904 1.784-.362 2.661-2.964 7.902 3.564 4.072-3.399-1.625-5.493 3.893-1.142.906 2.093 8.367-.668z" clip-rule="evenodd"/><path fill="#F4F8FF" fill-rule="evenodd" d="m411.091 335.466-6.952-4.852-.702-3.697 3.241-2.104 7.323.101 2.113-5.83-3.102-3.283-6.753-2.554 3.42-3.424-2.614-1.475-2.475 1.772-6.166-1.033-4.081-5.366.496-6.19 1.824-5.496-4.591-5.182-2.396 2.838-2.297-2.841-5.894 1.092-7.607-1.729 1.215-8.281-5.098-3.324.832-6.868-3.16-2.074-2.926-5.831 4.198-2.087-1.99-1.969-8.541-.212-2.169-3.899-5.28 1.676-4.525-1.986-4.549 1.271-.726 5.418-9.129.46-2.034-2.624-3.572 2.841-6.701-.674-4.444-3.797-3.383.33-.23 4.807-6.225 3.239 4.52 5.718 4.962-4.634 5.034 4.752v6.295l2.406 5.12-3.139 6.724-3.434 6.562 8.372 3.948 5.953 10.448 3.781-4.967 4.63 2.956-1.107 3.557-1.311 8.322 3.079 4.202-2.712 5.523 7.617 4.331 6.504-.407 3.872 7.204-1.573 8.068 1.391 3.258-1.902 2.963 7.578 5.887-2.831 4.64-10.012-2.632-4.72-4.857-5.477 6.722-7.525-4.397-.35-3.221-10.964 8.841-1.935-5.088.405-6.567-6.545 1.518-4.631 4.062-1.278 10.251 6.521 4.289-5.179 5.578.931 6.347-10.429 2.385-1.113 8.189-7.368 2.624-4.799 5.305 2.397 5.349-1.532 5.803-10.07-1.228-4.608 1.453 3.363 4.171 1.749 6.115 10.162 4.168 9.978 1.823 1.848-10.304 4.435 2.59 1.596 4.894 15.747-10.017h11.588l8.274 4.14 1.525 8.357 2.769-4.569-.84-7.024-5.468-3.542 2.479-2.766-4.231-2.964.47-8.02 2.517-7.717 5.325 3.192-.228 7.536 2.552 2.372.789-2.768-.741-4.561 5.851-.985-.43-4.145 5.808-3.239 2.654 3.224 2.922-4.735 2.976 3.807 6.884-8.952 4.781-3.826-5.144-6.674-9.006-2.565-2.448-4.294.224-2.522 3.652-5.647 7.575 2.069 5.273 8.837 3.531 5.512 5.718-6.389-.463-6.259 6.543-2.767.451-8.541 7.765-1.444 7.227-4.357h1.216l3.023-4.705z" clip-rule="evenodd"/><path fill="#F4F8FF" fill-rule="evenodd" d="m310.603 253.525 5.159-.5 4.573 3.898 5.637.571 4.263-3.394 2.478 3.192 7.246-.366.691-5.187 5.898-1.65 4.496 1.974 4.627-1.469-1.413-2.818-8.549-5.509 4.983-4.491 3.994 2.574 3.209-3.391-2.331-1.764-.37-5.803.104-4.439-4.783-.305-.712-5.492-4.075-.099-1.558-5.261-.998-5.148-3.002-.768.645-4.142-2.595.758-.754-4.9 6.318-4.073-.324-5.571-10.29-7.732 3.641-3.302.096-2.236-1.545-1.469 1.542-2.806-3.136-2.974 3.733-2.704-1.706-1.231-4.803-.197-6.984 3.531h-10.4l-3.905-5.255 1.339-5.651-1.076-6.598-4.344.517-4.394 3.753-5.97.557-6.165-2.098-4.182 3.562-4.824-2.061-6.244 1.523-7.582-.104-4.502 1.381-3.174 2.696 1.629 2.288-.654 3.085-1.446 4.545-1.519 2.279 4.149 6.874 1.454 8.374-.52 5.109-5.36 2.046-5.238-3.572-3.482 2.387-3.454.909-3.899 5.076.473 15.68-4.376 6.832 3.544-.084 3.725 4.167 2.025 5.671 4.988 3.278 6.136-.599 7.099 7.407 6.053.315v4.435l10.118.857 6.182 7.981 5.055-3.042 10.724 1.877 2.45 6.132.231.294 5.683-2.951z" clip-rule="evenodd"/></svg>