<svg xmlns="http://www.w3.org/2000/svg" width="46" height="46" fill="none"><circle cx="23" cy="23" r="20" fill="#FFDC3D"/><circle cx="23" cy="23" r="22.5" stroke="#FFDC3D"/><path fill="#0180B2" fill-rule="evenodd" d="m26.166 11.248.263.23v7.199l.325.118c.72.26 1.389 1.207 1.389 1.966 0 .76-.67 1.705-1.394 1.967l-.33.12.031 4.226.032 4.226.289.478c.428.71.75 1.001 1.5 1.355.617.29.754.318 1.586.318s.97-.028 1.586-.319c.752-.354 1.077-.649 1.495-1.354.262-.441.287-.587.328-1.884l.044-1.405-.642.534c-.352.294-.768.562-.923.596-.539.118-1.132-.436-.992-.925.038-.132.712-.76 1.564-1.46 1.654-1.356 1.896-1.456 2.42-.997l.263.23v2.28c0 1.718-.04 2.411-.16 2.816-.72 2.42-3.522 3.906-6.21 3.294-1.848-.421-3.272-1.67-3.756-3.294-.13-.436-.16-1.304-.16-4.628v-4.09l-.325-.118C23.67 22.466 23 21.519 23 20.76c0-.759.669-1.706 1.39-1.966l.324-.118v-7.2l.263-.23a.93.93 0 0 1 .594-.23c.21 0 .429.086.595.23m-9.072.309c1.076.992 2.175 2.414 2.788 3.608.34.663.975 2.322.975 2.548 0 .169-1.37.559-2.647.753-1.179.18-2.96.179-4.17-.003-1.242-.187-2.611-.582-2.611-.754 0-.29.692-2.01 1.128-2.803.545-.994 1.21-1.88 2.164-2.882 1.183-1.242 1.471-1.3 2.373-.467m-2.402 4.188a.71.71 0 0 0-.263.519c0 .361.418.75.806.75.316 0 .908-.458.908-.702 0-.202-.206-.534-.42-.677-.281-.19-.746-.14-1.031.11m6.547 4.039c.106.619-.011 2.455-.218 3.412-.375 1.736-1.298 3.685-2.408 5.09l-.552.698 1.612 2.533c.93 1.46 1.613 2.636 1.613 2.778 0 .302-.44.705-.771.705-.135 0-1.174-.324-2.309-.72l-2.063-.72-2.064.72c-1.135.396-2.174.72-2.308.72-.33 0-.771-.403-.771-.705 0-.142.681-1.316 1.61-2.774l1.609-2.529-.605-.794a13 13 0 0 1-2.364-5.049c-.186-.84-.28-3.611-.126-3.745.038-.034.304.008.589.093 1.16.348 2.37.527 3.907.58 1.977.067 3.078-.075 5.363-.691.144-.04.194.04.256.398m3.738.457c-.531.465-.155 1.27.594 1.27a.93.93 0 0 0 .595-.23.71.71 0 0 0 .263-.52.71.71 0 0 0-.263-.52.93.93 0 0 0-.595-.23.93.93 0 0 0-.594.23" clip-rule="evenodd"/></svg>