<svg xmlns="http://www.w3.org/2000/svg" width="46" height="46" fill="none"><circle cx="23" cy="23" r="20" fill="#FFDC3D"/><circle cx="23" cy="23" r="22.5" stroke="#FFDC3D"/><path fill="#0180B2" fill-rule="evenodd" d="M11.246 11.246a.8.8 0 0 0-.246.57c0 .294.297.624 3.023 3.355l3.023 3.029h-.387c-.212 0-.571.055-.797.122-.55.162-1.378.99-1.54 1.54-.169.57-.169 5.706 0 6.276.162.55.99 1.378 1.54 1.54.267.08 1.168.122 2.575.122H20.6v-6.045l.798.793.799.794.026 2.44.027 2.439 4.126 1.719 4.126 1.72 1.68 1.67c1.478 1.468 1.72 1.67 2.004 1.67a.836.836 0 0 0 .814-.82c0-.303-.888-1.217-11.425-11.754C13.037 11.888 12.124 11 11.82 11a.8.8 0 0 0-.575.245M26.5 15.997l-4.25 1.78-.028.537-.028.535 4.803 4.8 4.803 4.8V14.69l-.245-.245c-.151-.15-.354-.242-.526-.237-.153.005-2.192.81-4.529 1.79" clip-rule="evenodd"/></svg>