<svg xmlns="http://www.w3.org/2000/svg" width="46" height="46" fill="none"><circle cx="23" cy="23" r="20" fill="#FFDC3D"/><circle cx="23" cy="23" r="22.5" stroke="#FFDC3D"/><path fill="#0180B2" fill-rule="evenodd" d="M26.53 11.196c.189.179.206.325.206 1.753 0 1.686-.054 1.864-.567 1.864-.477 0-.564-.298-.564-1.928 0-1.364.018-1.511.206-1.69.113-.107.275-.195.36-.195s.246.088.36.196m-4.59-.017c.143.15.17.423.17 1.717 0 .874-.046 1.62-.107 1.728-.12.215-.603.258-.798.072-.087-.082-.123-.623-.123-1.806 0-1.568.014-1.695.198-1.789.288-.146.466-.125.66.078m-4.627 0c.144.151.17.428.17 1.79 0 1.725-.033 1.844-.514 1.844s-.514-.118-.514-1.862c0-1.452.02-1.645.188-1.79.244-.21.459-.204.67.018m12.96 1.441c.632.22 1.25.767 1.57 1.387.275.536.29.635.327 2.248l.038 1.687H11.007v-1.546c0-1.855.116-2.325.74-3 .67-.724 1.233-.927 2.567-.928l1.098-.001.033 1.266v.74c0 .487.39.875.39.875.584.572 1.288.654 2.024.233.525-.3.653-.689.653-1.98v-1.134h1.418l.037 1.149c.04 1.302.191 1.68.803 2.02.47.261 1.248.259 1.624-.006.638-.45.745-.737.745-2.005v-1.158h1.418l.036 1.205c.034 1.137.053 1.226.318 1.556.388.484 1.074.73 1.61.578.988-.282 1.244-.747 1.244-2.26v-1.08l1.054.008c.64.004 1.211.061 1.454.146m1.844 6.365c.104.099.082 2.477-.023 2.477-.05 0-.386-.13-.746-.29-1.05-.469-2.15-.697-3.378-.702-1.404-.006-2.36.203-3.65.796-2.206 1.015-3.756 2.834-4.368 5.125-.235.877-.278 2.394-.095 3.34.157.81.643 1.965 1.125 2.675.224.33.408.621.408.646s-1.75.046-3.888.046c-4.321 0-4.558-.027-5.377-.622a3.3 3.3 0 0 1-.761-.857l-.307-.526-.028-6.086L11 18.92h10.524c5.788 0 10.555.03 10.593.065m-2.423 2.669c2.366.607 4.246 2.308 5.032 4.55.241.688.274.937.274 2.054 0 1.131-.032 1.357-.284 2.053-.815 2.255-2.624 3.887-4.998 4.51-.905.236-2.69.24-3.599.005-2.082-.535-3.787-1.901-4.7-3.765-1.762-3.596.19-7.917 4.174-9.241 1.182-.393 2.94-.464 4.101-.166m-1.223 1.773c.04.523-.201.87-.603.87-.38 0-.515-.224-.515-.86v-.483l-.437.08a5.7 5.7 0 0 0-3.693 2.381c-.397.58-.805 1.63-.805 2.07 0 .216.041.235.495.235.726 0 1.083.355.777.771-.124.168-.26.207-.712.207h-.56l.002.318c.003.466.428 1.533.85 2.137.713 1.019 1.787 1.776 3.04 2.144.998.293 1.043.28 1.043-.297 0-.358.055-.54.206-.684.44-.419.835-.147.902.62.055.633.077.642.955.397 1.392-.389 2.72-1.393 3.35-2.533.348-.628.653-1.505.653-1.876 0-.211-.04-.226-.613-.226-.502 0-.633-.035-.72-.19-.151-.268-.134-.37.1-.592.151-.145.342-.196.732-.196h.527l-.067-.402c-.251-1.492-1.384-2.995-2.813-3.732-.507-.261-1.98-.683-2.077-.594-.026.024-.034.22-.017.435m2.563 1.868c.273.26.111.533-.854 1.447-.913.866-.973.946-.915 1.239.086.435-.12.957-.495 1.257-.306.245-.316.277-.3 1.006.02.878-.122 1.227-.518 1.27-.44.05-.599-.277-.599-1.223 0-.803-.002-.81-.37-1.13-.292-.256-.381-.417-.423-.768-.102-.862.517-1.48 1.44-1.44l.491.023.95-.9c.961-.91 1.288-1.07 1.593-.78" clip-rule="evenodd"/></svg>