<svg xmlns="http://www.w3.org/2000/svg" width="46" height="46" fill="none"><circle cx="23" cy="23" r="20" fill="#FFDC3D"/><circle cx="23" cy="23" r="22.5" stroke="#FFDC3D"/><path fill="#0180B2" fill-rule="evenodd" d="M14.853 17.395c-.302.107-.71.466-2.036 1.785-1.74 1.732-1.897 1.953-1.792 2.517.074.397.495.856.895.977.562.169.862.013 1.914-.993l.935-.895v6.622c0 7.395-.032 6.99.588 7.41.243.164.374.193.742.163.38-.03.494-.083.756-.347l.31-.31.023-3.693c.02-3.268.04-3.711.16-3.845.168-.187.392-.195.567-.02.116.117.132.57.132 3.699 0 3.975-.003 3.954.58 4.345.539.363 1.594.157 1.482-.29-.026-.102-.047-1.827-.047-3.834v-3.648l-1.113-1.177c-1.253-1.326-1.463-1.679-1.37-2.302.07-.467.464-1.022.887-1.248.349-.187.985-.205 1.38-.04l.28.119.046-.445c.115-1.12 1.048-2.142 2.235-2.449l.367-.095-.91-.864c-1.362-1.294-1.185-1.24-4.153-1.26-2.079-.013-2.54.006-2.858.118m10.807-.01c-.427.157-.758.416-1.68 1.313l-.756.737.332.06c1.142.21 2.166 1.31 2.283 2.456l.046.45.237-.124c.297-.154 1.005-.159 1.363-.009.498.21.982.944.982 1.492 0 .522-.204.823-1.348 1.986l-1.165 1.184-.024 3.91-.025 3.91.264.126a1.24 1.24 0 0 0 1.647-.551c.13-.26.147-.584.148-2.81v-2.514h.84v2.54c0 2.74.006 2.78.461 3.208.191.18.305.211.758.211.452 0 .566-.032.757-.211.455-.428.461-.468.461-3.208V29h1.566l-.772-4.079c-.424-2.243-.759-4.093-.744-4.11s.427.363.916.845c.488.483 1.017.93 1.176.993.859.345 1.84-.587 1.572-1.492-.074-.246-.474-.696-1.758-1.973-1.418-1.412-1.722-1.675-2.076-1.794-.568-.191-4.945-.197-5.46-.007m-3.37 2.839c-.327.122-.833.493-1.05.77-.62.793-.536 2.11.182 2.855.462.478.912.668 1.583.668.672 0 1.122-.19 1.585-.67 1.013-1.05.688-2.872-.626-3.512-.386-.187-1.305-.248-1.673-.111m4.329 2.59c-.13.02-.597.413-1.22 1.027-1.242 1.223-1.536 1.394-2.394 1.394-.855 0-1.136-.163-2.4-1.399-.997-.973-1.041-1.006-1.397-1.006-.42 0-.687.157-.868.508-.15.293-.156.57-.017.812.056.099.622.726 1.258 1.394l1.155 1.214v7.65l.234.263c.444.5 1.358.405 1.656-.173.1-.197.127-.588.127-1.89 0-1.406.02-1.658.135-1.755s.153-.089.252.048c.091.125.117.538.117 1.834v1.673l.234.263c.445.5 1.359.405 1.656-.173.108-.21.127-.815.127-4.031v-3.784l1.212-1.229c.734-.744 1.235-1.32 1.27-1.462.163-.657-.443-1.286-1.137-1.178" clip-rule="evenodd"/><circle cx="17.8" cy="13.8" r="2.8" fill="#0180B2"/><circle cx="28.2" cy="13.8" r="2.8" fill="#0180B2"/></svg>