<svg xmlns="http://www.w3.org/2000/svg" width="46" height="46" fill="none"><circle cx="23" cy="23" r="20" fill="#FFDC3D"/><circle cx="23" cy="23" r="22.5" stroke="#FFDC3D"/><path fill="#0180B2" fill-rule="evenodd" d="M23.48 11.12c.278.15.494.5.498.807.005.264-.256.788-.391.788-.163 0-.106.443.076.592.095.077.457.196.805.263 2.508.482 4.554 1.997 5.655 4.19.463.92.826 2.137.826 2.77 0 .22.068.46.159.558.252.273.095.442-.608.654-2.353.712-9.237.887-13.24.336-2.069-.284-2.837-.612-2.355-1.003.089-.072.148-.282.148-.525 0-.652.356-1.859.825-2.79 1.01-2.01 2.887-3.508 5.11-4.078.426-.109.87-.198.986-.198s.284-.08.374-.176c.176-.19.221-.593.067-.593-.127 0-.396-.516-.396-.76 0-.72.815-1.187 1.462-.835m8.743 11.185c.188.09.357.238.375.329.042.215-.452.51-1.101.656-.837.189-1.26.488-1.617 1.143-.195.358-.427.638-.6.726-.243.123-1.155.143-6.299.143-6.9 0-6.406.064-6.888-.9-.306-.613-.749-.923-1.588-1.112-.649-.147-1.143-.44-1.103-.656.018-.092.193-.243.389-.337.347-.166.367-.166.694.024.49.282 1.652.549 3.245.743 2.021.247 8.425.245 10.471-.003 1.618-.197 2.851-.475 3.299-.745.36-.217.296-.216.723-.011m-6.959 4.259c.076.14.081.27.015.412-.078.167-.296.254-1.087.437-1.62.375-1.606.462.094.604 1.121.094 1.257.086 2.091-.122.49-.123 1.148-.353 1.46-.512.466-.236.618-.272.835-.197.207.07.265.153.265.373 0 .25-.082.327-.736.69a9.2 9.2 0 0 1-3.555 1.097c-2.058.183-3.305.43-3.857.763l-.31.188-1.706-.765c-.939-.42-1.72-.802-1.735-.849-.055-.16.803-.9 1.366-1.178.31-.153.886-.364 1.28-.468.635-.169 1.231-.257 3.954-.586 1.172-.142 1.5-.119 1.626.113m-6.9 3.713c1.147.511 2.085.962 2.085 1.001 0 .078-1.659 3.656-1.725 3.721-.022.022-.992-.385-2.155-.903-1.693-.755-2.103-.973-2.055-1.097.196-.505 1.675-3.655 1.716-3.653.027 0 .988.42 2.134.931m-3.302 2.245c-.13.227-.127.28.023.505.217.324.675.344.894.037.203-.283.193-.42-.05-.657-.272-.267-.68-.213-.867.115" clip-rule="evenodd"/></svg>