<svg xmlns="http://www.w3.org/2000/svg" width="46" height="46" fill="none"><circle cx="23" cy="23" r="20" fill="#FFDC3D"/><circle cx="23" cy="23" r="22.5" stroke="#FFDC3D"/><path fill="#0180B2" fill-rule="evenodd" d="M21.414 11.018c-2.089.184-3.555.468-4.86.941-1.567.568-2.639 1.378-2.851 2.155-.034.122-.077.533-.096.912l-.128 2.446c-.074 1.41-.088 2.994-.074 8.036.02 7.24-.049 6.526.638 6.558l.397.018.017 1.329.016 1.329.156.129c.145.12.237.129 1.26.129 1.145 0 1.39-.047 1.477-.285.02-.056.037-.678.037-1.382v-1.28H23l5.597.002v1.237c0 .681.018 1.302.038 1.381.071.28.285.327 1.477.327 1.022 0 1.114-.01 1.259-.129l.156-.129.017-1.33.016-1.328.397-.019c.687-.031.617.679.638-6.525.014-5.018 0-6.59-.074-7.974l-.128-2.446c-.044-.909-.101-1.15-.36-1.522-.796-1.148-3.106-2.056-6.28-2.469-.677-.088-3.715-.166-4.34-.11m4.724 1.556c.044.056.063.287.052.642-.017.518-.027.558-.167.632-.215.113-5.828.112-6.046-.001-.14-.073-.15-.112-.167-.631-.01-.355.008-.585.052-.642.104-.13 6.172-.13 6.276 0m3.9 3.612c.087.126.175.759.444 3.167.184 1.656.351 3.107.37 3.224l.036.214-.141-.104c-.13-.095-.767-.104-7.747-.104-6.94 0-7.617.009-7.745.103l-.14.102.037-.244c.02-.134.062-.483.093-.776s.098-.9.15-1.349l.183-1.63c.288-2.567.278-2.503.406-2.65l.124-.141 6.911.016 6.912.016zm-3.686 1.792a1.27 1.27 0 0 0-.25 2.078c.38.35 1.07.369 1.465.04.878-.734.407-2.213-.706-2.215-.183 0-.41.043-.509.097m-.108 2.663c-.672.177-1.288.673-1.575 1.266-.083.172-.142.32-.132.33.01.009.208-.012.438-.048.534-.082 3.222-.084 3.76-.003l.408.062-.037-.156c-.106-.44-.634-.997-1.214-1.282-.312-.153-.476-.191-.901-.208-.286-.012-.622.006-.747.039m-8.275 6.346c.07.104.093.302.093.784 0 .944.088.895-1.601.894-.75 0-1.392-.021-1.428-.047-.148-.103-.203-.35-.203-.906 0-.918-.101-.864 1.616-.864 1.41 0 1.43.001 1.523.139m13.09-.036c.088.111.151 1.101.088 1.368-.082.34-.113.347-1.597.347-1.701 0-1.612.05-1.612-.895 0-.987-.11-.924 1.613-.924 1.252 0 1.435.013 1.508.104" clip-rule="evenodd"/></svg>