<svg xmlns="http://www.w3.org/2000/svg" width="46" height="46" fill="none"><circle cx="23" cy="23" r="20" fill="#0180B2"/><circle cx="23" cy="23" r="22.5" stroke="#0180B2"/><g clip-path="url(#a)"><path fill="#fff" fill-rule="evenodd" d="M31.274 11c.107.062.304.269.438.46 0 0 .275.472.275.638v5.409c.032 6.095.01 6.455-.436 6.92-.342.355-.993.355-1.335 0-.446-.465-.468-.824-.436-6.928 0 0-.03-3.332 0-5.401.003-.193.443-.8.443-.8.316-.419.713-.493 1.05-.298m-15.022.006c.107.059.305.263.439.454l.244.347.03 5.7c.032 6.095.01 6.455-.436 6.92-.313.324-.968.352-1.29.054-.483-.448-.5-.66-.5-6.703 0-6.171.006-6.227.578-6.675.302-.236.62-.269.935-.097m17.287 2.298c.445.099.612.605.612 1.855v1.144h.575c.434 0 .59.05.634.204.11.383.065 2.576-.058 2.738-.064.085-.35.155-.634.155h-.517v1.144c0 1.064-.018 1.168-.257 1.484-.35.462-.791.486-1.159 0l-.242-.414.001-3.72c.001-2.694.035-3.807.122-4.034.136-.352.595-.629.923-.556m-19.798.096c.177.101.36.33.414.518.056.194.097 1.895.097 4.016v3.68l-.285.377c-.364.481-.798.505-1.134.06-.219-.29-.24-.416-.24-1.484V19.4h-.467c-.258 0-.521-.07-.585-.155-.13-.172-.165-2.514-.041-2.772.04-.085.292-.172.56-.194l.485-.04.049-1.191c.04-.969.085-1.237.244-1.438.28-.357.54-.417.903-.21m12.798.734c.165.234.199.454.199 1.29 0 1.143-.168 1.524-.668 1.524-.475 0-.6-.33-.6-1.583 0-1.003.02-1.132.216-1.313.303-.28.62-.25.853.082m-1.867.016c.18.253.212.45.212 1.29 0 1.126-.169 1.508-.667 1.508-.486 0-.65-.397-.65-1.573 0-.927.024-1.055.23-1.277.308-.33.617-.312.875.052m-1.853 0c.18.253.212.45.212 1.29 0 1.126-.17 1.508-.668 1.508-.482 0-.649-.399-.649-1.548 0-.808.037-1.06.186-1.277.245-.358.654-.346.919.027m-1.853 0c.18.253.212.45.212 1.29 0 .82-.034 1.037-.195 1.25-.285.377-.721.334-.978-.097-.182-.305-.206-.484-.176-1.279.026-.678.084-.996.22-1.194.243-.356.652-.343.917.03m8.243 2.497c.036.047.065.686.065 1.42V19.4H28.5l-.048-.4c0-.215-.036-.61-.265-.832-.23-.222-.652-.252-.652-.252l-1.62-.04-1.622-.042-.338.448c-.213.28-.339.572-.339.783v.335h-6.145v-2.839h1.778l.355.522c.455.67.903.792 1.472.4l.395-.273.317.256c.401.324.712.324 1.17 0 .362-.258.363-.258.681-.001.404.325.714.325 1.172 0 .363-.257.364-.257.682 0 .175.141.421.257.547.257.37 0 .89-.393 1.046-.791.144-.369.147-.37 1.101-.37.526 0 .986.039 1.022.086m-.783 2.25c.072.178.098.923.075 2.162-.04 2.146-.076 2.292-.862 3.44-.936 1.367-.913 1.226-.948 5.935-.017 2.271-.05 4.202-.074 4.29-.061.227-6.346.234-6.517.007-.087-.114-.117-1.281-.117-4.45v-4.295l-.554-1.39-.554-1.389-.044-1.521-.043-1.521 2.182.062c1.2.034 3.523.098 3.939.144l.756.082v.44c0 .398-.046.47-.5.774-1.016.68-1.8 1.958-2.03 3.304-.074.437-.065.599.042.741.2.268.393.003.533-.734.223-1.182.74-1.992 1.665-2.608.71-.473.777-.596.777-1.432 0-1.084-.162-1.245-1.316-1.311-.528-.03-.589-.062-.617-.33-.066-.608.091-.671 1.65-.671 1.37 0 2.632-.055 2.557.271" clip-rule="evenodd"/></g><defs><clipPath id="a"><path fill="#fff" d="M11 11h24v24H11z"/></clipPath></defs></svg>