<svg xmlns="http://www.w3.org/2000/svg" width="46" height="46" fill="none"><circle cx="23" cy="23" r="20" fill="#0180B2"/><circle cx="23" cy="23" r="22.5" stroke="#0180B2"/><path fill="#fff" fill-rule="evenodd" d="M20.635 11.18c-.816.264-1.524.684-1.967 1.166-.437.477-.834 1.359-.834 1.852v.323l.4-.437c1.031-1.124 3.343-2.348 5.04-2.668l.988-.186-.582-.117c-.874-.175-2.397-.142-3.045.068m2.295.73c-1.476.374-3.255 1.361-4.238 2.352-1.068 1.077-1.69 2.458-1.809 4.017-.065.858.113 2.64.28 2.799.047.044.148-.118.226-.36.077-.241.314-.762.526-1.157 1.74-3.247 4.706-4.816 8.764-4.638l1.357.06.073-.4c.045-.252.008-.605-.102-.96-.458-1.469-2.85-2.276-5.077-1.712m1.772 3.456c-.121.029-.48.099-.797.156-.317.058-.577.147-.577.2 0 .052.07.095.156.095s.711.26 1.39.577c1.632.762 2.39 1.46 3.17 2.914.302.563.581 1.184.62 1.382s.108.359.151.359c.11 0 .345-1.224.416-2.16.043-.562.008-.941-.129-1.384-.239-.778-.876-1.854-1.19-2.012-.246-.123-2.795-.223-3.21-.127m-2.912.87c-1.788.913-3.303 2.687-4.005 4.688-.188.534-.187.558.107 1.744.41 1.659.996 3.442 1.373 4.176.379.738 1.514 1.823 2.464 2.354.823.46 1.454.489 2.269.103.79-.374 2.252-1.711 2.625-2.403.402-.744.998-2.396 1.467-4.062l.377-1.341-.241-.71c-.386-1.134-1.03-2.183-1.766-2.878-.52-.49-.92-.742-1.817-1.147-.632-.286-1.402-.587-1.71-.67-.552-.148-.57-.145-1.143.147m-.743 3.742c.166.036.447.222.626.412 1.083 1.151-.047 2.86-1.641 2.482-1.183-.28-1.584-1.771-.69-2.563.313-.277.946-.499 1.24-.434zm5.274 0c.405.09.935.673 1.027 1.13.352 1.752-2.21 2.535-3.096.946-.301-.54-.118-1.344.408-1.792.28-.238.924-.447 1.195-.387zm-7.058 1.71c0 .229.492.387 1.208.387s1.209-.158 1.209-.388c0-.12-.1-.134-.522-.07a7 7 0 0 1-.687.08c-.09 0-.4-.036-.686-.08-.422-.064-.522-.05-.522.07m5.274 0c0 .229.492.387 1.209.387.716 0 1.208-.158 1.208-.388 0-.12-.1-.134-.522-.07a7 7 0 0 1-.686.08c-.091 0-.4-.036-.687-.08-.422-.064-.522-.05-.522.07m-1.92 2.484c.334.13.43.13.771-.003.214-.084.437-.125.494-.091.235.135.078.338-.389.504-.467.167-.521.167-.989 0q-.688-.244-.421-.49c.097-.09.096-.091.535.08m1.474 2.166c-.22.248-.716.455-1.092.455s-.872-.206-1.093-.455c-.128-.144-.016-.16 1.093-.16s1.22.016 1.092.16m1.51 2.36c-1.918 1.666-3.359 1.677-5.272.04-.814-.696-.783-.712-.9.466-.04.395-.12.891-.179 1.104-.125.452-.648 1.043-1.127 1.275-.186.09-1.27.294-2.41.454-1.773.25-2.164.338-2.728.619-.688.342-1.543 1.135-1.831 1.697-.354.69-1.172.646 11.845.646 13.111 0 12.234.052 11.805-.692-.36-.624-1.102-1.308-1.79-1.65-.559-.279-.961-.37-2.738-.624-1.146-.163-2.23-.368-2.411-.455-.47-.227-.993-.821-1.12-1.27-.059-.213-.142-.733-.184-1.156-.12-1.204-.105-1.197-.96-.454" clip-rule="evenodd"/></svg>