<svg xmlns="http://www.w3.org/2000/svg" width="46" height="46" fill="none"><circle cx="23" cy="23" r="20" fill="#0180B2"/><circle cx="23" cy="23" r="22.5" stroke="#0180B2"/><path fill="#fff" fill-rule="evenodd" d="M20.372 11.16a22.1 22.1 0 0 0-8.365 2.838c-.528.308-.98.595-1.005.637-.026.042.248.45.607.909.36.457.717.924.794 1.035.134.194.159.19.567-.072.86-.555 2.434-1.3 3.648-1.728 4.118-1.45 8.419-1.486 12.523-.104 1.039.35 3.432 1.478 3.98 1.876.18.131.343.22.363.198.378-.414 1.552-2.052 1.515-2.113-.028-.046-.527-.359-1.108-.695-4.099-2.37-8.883-3.355-13.52-2.782m.726 5.288c-1.932.253-4.125 1.017-5.743 2.003-.518.315-.942.61-.942.654s.326.497.725 1.007l.76.972c.02.025.561-.232 1.204-.572 2.515-1.328 5.07-1.778 7.746-1.366 1.65.253 3.427.905 4.752 1.742.196.124.4.208.454.188.132-.05 1.533-1.834 1.533-1.952 0-.147-1.59-1.09-2.554-1.517-2.434-1.073-5.34-1.498-7.935-1.159m.054 5.409c-1.05.235-2.335.754-3.02 1.218l-.464.316.774.989c.425.544.787 1.002.802 1.019s.392-.146.836-.362c1.1-.533 2.2-.76 3.318-.684.934.063 2.32.473 2.953.872.418.263.3.348 1.317-.945.647-.822.672-.875.48-1.029-.405-.323-1.961-1.04-2.757-1.268-1.182-.34-3.036-.396-4.239-.126" clip-rule="evenodd"/><circle cx="23" cy="31.8" r="3.2" fill="#fff"/></svg>