<svg xmlns="http://www.w3.org/2000/svg" width="46" height="46" fill="none"><circle cx="23" cy="23" r="20" fill="#0180B2"/><circle cx="23" cy="23" r="22.5" stroke="#0180B2"/><path fill="#fff" fill-rule="evenodd" d="M23.966 11.091c.893.207 1.535.71 1.864 1.46.164.371.193 1.173.193 5.224v4.785l1.48.141c3.443.328 6.15 1.06 7.126 1.927l.371.33v3.731c0 3.69-.003 3.737-.285 4.135-.561.795-2.466 1.437-5.388 1.817-2.426.316-5.97.44-8.714.305-5.022-.245-8.155-.912-9.177-1.953l-.311-.318-.063-3.995L11 24.685l.291-.314c.52-.56 2.572-1.119 5.32-1.446l1.246-.149.033-4.9.032-4.9-.387-.344c-.461-.41-1.207-.646-1.681-.533-.545.13-1.123.766-1.22 1.34-.106.641-.45.853-.914.563-.275-.171-.31-.26-.253-.66.036-.255.212-.702.392-.994 1.019-1.655 3.888-1.623 4.777.053.252.474.28.701.28 2.223v1.696h5.985v-1.61c0-.926-.057-1.711-.134-1.85-.177-.313-1.056-.687-1.624-.69-.79-.005-1.485.599-1.666 1.447-.139.646-.967.68-1.134.045-.232-.88.77-2.162 1.951-2.496.7-.197 1.07-.214 1.672-.075m-5.05 7.127v.95h5.985v-1.9h-5.984zm0 3.144v1.246h5.985v-2.491h-5.984zm-.622 2.67c-2.64.184-5.171.59-6.051.972-.17.074-.308.231-.308.35 0 .591 2.619 1.2 6.545 1.52 1.96.16 7.529.158 9.454-.003 2.986-.249 6.017-1.028 5.917-1.52-.093-.461-2.585-1.126-4.898-1.307-1.811-.142-8.696-.15-10.66-.012" clip-rule="evenodd"/></svg>