<svg xmlns="http://www.w3.org/2000/svg" width="46" height="46" fill="none"><circle cx="23" cy="23" r="20" fill="#0180B2"/><circle cx="23" cy="23" r="22.5" stroke="#0180B2"/><path fill="#fff" fill-rule="evenodd" d="M20.956 11.278c.243.26.255.32.191.984-.037.389-.09.747-.119.796-.067.117-3.414.117-3.481 0-.028-.049-.082-.407-.119-.796-.063-.664-.052-.724.191-.985.254-.272.286-.277 1.669-.277 1.382 0 1.415.005 1.668.277m9.429 3.346c.618.753 1.19 1.885 1.27 2.515.034.257.008.675-.055.928-.14.555-.782 1.288-1.21 1.38-.274.058-.296.098-.296.533v.47h-.8v-.47c0-.435-.023-.475-.298-.534-.427-.091-1.07-.824-1.208-1.379-.162-.643-.055-1.276.355-2.11.42-.852 1.293-1.95 1.55-1.95.101 0 .412.278.691.617m-8.942-.354a.9.9 0 0 1 .246.596c0 .209-.09.43-.246.595-.243.262-.26.264-2.155.264s-1.913-.002-2.156-.264a.9.9 0 0 1-.246-.595c0-.21.09-.43.246-.596.243-.261.26-.263 2.156-.263 1.894 0 1.912.002 2.155.263m.048 2.643c.07.18.46.648.865 1.04.789.76 1.176 1.437 1.295 2.266l.068.468-.469-.384c-1.135-.93-2.811-.937-3.883-.015-.958.823-1.268.967-2.08.967-.601 0-.828-.049-1.135-.244-.587-.372-1.163-.918-1.165-1.104-.005-.425.538-1.285 1.235-1.957.404-.39.792-.857.862-1.037l.127-.33h4.153zm.624 3.684c.388.155.433.187 1.15.814l.425.373v4.973l-.575-.145q-1.072-.27-1.306-.02c-.152.164-.157 1.393-.008 2.148a5 5 0 0 0 1.192 2.333l.507.544h-1.983l.1-.407c.166-.664.015-1.196-.479-1.691-.426-.428-.431-.44-.326-.863.168-.675.027-1.181-.471-1.701-.427-.445-.433-.462-.329-.88.14-.562.03-1.138-.299-1.556-.45-.575-.713-.633-2.874-.633h-1.954v-2.791l.446.366c.616.504 1.073.652 2.006.647.922-.005 1.439-.209 2.143-.843.242-.22.578-.475.745-.568.42-.233 1.425-.287 1.89-.1m10.83.812c.11.05.313.22.45.38l.25.288.029 4.77.028 4.77h-5.019l.508-.544c.873-.937 1.303-2.137 1.303-3.636 0-.524-.043-.771-.152-.868-.197-.176-1.072-.07-1.77.215-.284.116-.522.2-.528.187a21 21 0 0 1-.136-.562c-.168-.72-.67-1.597-1.205-2.106-.46-.437-.685-.507-.9-.283-.105.11-.123-.06-.095-.91.032-1.017.042-1.055.36-1.397l.327-.35 3.175-.023c1.747-.012 3.265.019 3.375.069m-13.903 3.6a.9.9 0 0 1 .246.595c0 .21-.091.43-.246.596-.244.26-.261.263-2.156.263-1.894 0-1.912-.002-2.156-.264a.9.9 0 0 1-.245-.595c0-.21.09-.43.245-.595.244-.262.261-.264 2.156-.264s1.912.002 2.156.264m7.482.33c.335.451.626 1.13.721 1.685.062.365.031.446-.354.913-.233.282-.494.67-.58.862s-.185.349-.22.349c-.034 0-.133-.157-.22-.35-.085-.191-.346-.58-.579-.861-.385-.467-.416-.548-.354-.913.146-.85.824-2.064 1.154-2.064.082 0 .277.17.432.38m3.146 2.663c-.128 1.713-1.31 3.155-2.917 3.555l-.29.072.052-.692c.128-1.713 1.311-3.154 2.918-3.554l.289-.073zm-6.63-.53c1.504.513 2.506 1.833 2.628 3.465l.052.692-.29-.072c-1.604-.4-2.789-1.842-2.917-3.549-.028-.377-.011-.683.038-.679s.269.069.489.144m-3.198.114a.9.9 0 0 1 .246.595c0 .21-.09.43-.246.596l-.245.263h-5.422l-.245-.263a.9.9 0 0 1-.246-.596c0-.209.091-.43.246-.595l.245-.264h5.421zm.8 2.577a.9.9 0 0 1 .247.595c0 .21-.091.43-.246.596l-.246.264h-7.022l-.245-.264a.9.9 0 0 1-.246-.596c0-.209.09-.429.245-.595l.246-.264h7.022zm14.155 2.475c.183.237.078 1.286-.165 1.635a3 3 0 0 1-.474.506c-.276.22-.323.221-11.268.221s-10.993-.001-11.268-.221a3 3 0 0 1-.474-.506c-.243-.35-.349-1.398-.165-1.635.11-.142 1.55-.161 11.907-.161s11.797.02 11.907.16" clip-rule="evenodd"/></svg>