<svg xmlns="http://www.w3.org/2000/svg" width="46" height="46" fill="none"><circle cx="23" cy="23" r="20" fill="#0180B2"/><circle cx="23" cy="23" r="22.5" stroke="#0180B2"/><path fill="#fff" fill-rule="evenodd" d="M16.507 11.096c-.584.14-.74.222-1.37.717-.632.496-.876 1.006-.937 1.953-.062.978.094 1.234.753 1.234.542 0 .753-.295.753-1.057 0-.673.246-1.135.755-1.421.832-.468 2.02-.18 2.428.59.212.401.224.745.226 6.457l.003 6.034.584.254c.979.426.945.474.945-1.362V22.88h8.818l.032 1.547.032 1.548.74-.295.738-.295-.033-6.227c-.033-6.177-.035-6.23-.29-6.638-.733-1.177-2.298-1.772-3.724-1.417-1.408.352-2.268 1.304-2.383 2.637-.076.886.085 1.197.642 1.243.602.05.84-.198.842-.881.004-.807.324-1.357.95-1.63.836-.367 1.742-.147 2.23.54.204.289.229.517.23 2.166v1.843h-8.802l-.043-1.944c-.046-2.118-.135-2.452-.848-3.177-.69-.7-2.18-1.067-3.271-.803m12.964 9.008v1.058h-8.824V18.99l4.412.028 4.412.027zM11 20.09v5.313h.286c.157 0 .646.164 1.088.364.58.263 1.005.378 1.535.418.682.05.802.024 1.744-.369.733-.306 1.218-.438 1.767-.482l.756-.061v-5.627H11.61c-.609 0-.609.394-.609.444M21.47 20v.356l3.548-.027 3.548-.027.01-.328.012-.328h-7.117zm10.471 2.46v2.814l.66.114c.363.063.932.246 1.264.407.333.16.725.323.87.361l.265.069v-6.034c0-.064 0-.545-.882-.545H31.94zm-10.47 2.498v1.275l.318-.069c.175-.037.718-.235 1.206-.44.782-.328.992-.371 1.77-.37.792 0 .992.044 1.968.435.719.288 1.209.425 1.449.404l.363-.032.021-1.212.022-1.212-3.559-.027-3.558-.027zM11 27.225c0 1.01.02 1.108.217 1.108.119 0 .662.19 1.205.421 1.349.574 1.953.578 3.243.026.868-.373.986-.396 1.982-.396s1.114.023 1.98.395c1.271.544 1.88.539 3.25-.032.896-.373 1.08-.414 1.888-.414s.99.04 1.888.415c1.386.579 2.021.578 3.406-.007.976-.412 1.024-.421 2-.383.88.034 1.097.084 1.812.411.446.205.885.373.974.373.13 0 .156-.215.13-1.085-.031-.994-.053-1.088-.27-1.12-.128-.02-.704-.219-1.278-.443-.935-.366-1.113-.403-1.713-.357-.465.037-.936.172-1.537.443-.799.359-.944.39-1.817.39-.867 0-1.029-.034-1.883-.397-1.39-.591-1.88-.598-3.26-.044-1.017.407-1.17.44-2.04.436-.865-.004-1.023-.04-1.936-.43-1.346-.574-1.838-.575-3.188-.003-.906.384-1.078.422-1.937.43-.833.007-1.033-.03-1.706-.314-.42-.177-.909-.369-1.087-.427L11 26.116zm6.118 1.915c-.227.04-.808.239-1.291.441-.777.326-.983.369-1.777.369-.814 0-.985-.038-1.827-.404-.51-.222-.997-.404-1.08-.404-.116 0-.143.253-.118 1.084.031.996.053 1.087.27 1.116.129.017.7.216 1.27.444.933.372 1.1.408 1.706.36.464-.036.937-.173 1.538-.443.8-.36.944-.39 1.824-.39.875 0 1.034.034 1.89.398 1.396.593 1.898.6 3.26.044 1.006-.41 1.152-.442 2.033-.439.873.003 1.02.035 1.831.4.782.353.976.398 1.706.399.735 0 .918-.043 1.698-.4.813-.373.943-.402 1.826-.402.831 0 1.048.04 1.714.322.419.177.908.369 1.085.427l.324.105v-2.201l-.382-.071c-.21-.039-.747-.232-1.193-.429-1.15-.508-1.84-.5-3.092.037-.867.373-.984.396-1.98.396s-1.114-.023-1.982-.396c-1.281-.549-1.964-.55-3.162-.007-.758.344-.97.393-1.856.428-.967.039-1.032.027-1.941-.355-1.017-.426-1.647-.544-2.294-.429M11 33.535V35h24v-1.06c0-1.047-.004-1.061-.277-1.061-.152 0-.695-.182-1.206-.404-1.291-.56-1.874-.558-3.23.018-.912.387-1.07.422-1.934.424-.872.002-1.014-.028-1.936-.422-1.37-.584-1.927-.584-3.293.003-.902.387-1.077.427-1.883.429-.802.002-.992-.04-1.958-.427-.793-.318-1.216-.43-1.636-.43s-.843.112-1.636.43c-.966.388-1.156.429-1.958.427-.806-.002-.98-.042-1.883-.43-.546-.234-1.033-.426-1.082-.426-.048 0-.088.659-.088 1.464" clip-rule="evenodd"/></svg>