<svg xmlns="http://www.w3.org/2000/svg" width="46" height="46" fill="none"><circle cx="23" cy="23" r="20" fill="#0180B2"/><circle cx="23" cy="23" r="22.5" stroke="#0180B2"/><path fill="#fff" fill-rule="evenodd" d="M24.29 11.21c-.648.353-1.428 1.589-1.665 2.636-.125.55-.041.497.933-.598.59-.662 1.07-1.285 1.07-1.384 0-.31.83-.544 1.194-.336.189.107.417.398.509.645.164.444.167.444.179.019.026-.965-1.231-1.52-2.22-.981m.582 1.706c-.543.201-1.123.49-1.29.64-.365.33-.851 1.313-.833 1.686.007.147.103.064.213-.185.218-.492 1.215-1.094 1.812-1.094.467 0 1.369-.756 1.369-1.148 0-.36-.04-.356-1.27.1m-3.62 3.843c-1.33.733-2.996 2.442-3.8 3.897-.604 1.092-2.74 7.408-2.624 7.76.029.087.639.48 1.356.871l1.303.713 1.063-.423c1.57-.625 4.784-.62 6.41.01l1.182.458 1.089-.807c.599-.444 1.582-.963 2.185-1.153.858-.27 1.076-.42 1.004-.689-.05-.189-.262-1.132-.47-2.096-1.024-4.74-2.286-6.889-4.848-8.256-1.683-.899-2.611-.967-3.85-.285m-6.83 8.936c-.295.323-.633.43-1.354.43-.81 0-1.048.095-1.515.602-.304.332-.553.772-.553.98 0 .317.184.385 1.183.436.65.033 1.343.08 1.54.103.282.034.448-.251.803-1.384.245-.785.412-1.465.369-1.511-.043-.047-.255.108-.472.345m16.56 1.124c.07.355.157.702.194.77.036.069.729.177 1.539.24s1.643.186 1.851.274c.322.136.344.113.145-.153-.387-.52-2.041-1.407-2.977-1.597l-.879-.18zm-.959 1.85c-1.217.344-2.024.811-2.911 1.684l-.712.7-1.217-.557c-1.1-.504-1.435-.557-3.488-.549-1.855.008-2.453.089-3.261.442l-.99.434-1.438-.788c-1.398-.764-3.539-1.352-4.375-1.201-.389.07-.36.162.517 1.723 1.51 2.681 2.648 3.479 5.95 4.166 2.998.623 9.066.152 12.588-.979 1.154-.37 1.264-.46 1.765-1.437.295-.574.989-1.548 1.542-2.166L35 29.018l-.69-.212c-1.16-.357-3.271-.425-4.287-.137" clip-rule="evenodd"/></svg>