<svg xmlns="http://www.w3.org/2000/svg" width="46" height="46" fill="none"><circle cx="23" cy="23" r="20" fill="#0180B2"/><circle cx="23" cy="23" r="22.5" stroke="#0180B2"/><g clip-path="url(#a)"><path fill="#fff" fill-rule="evenodd" d="M13.316 17.82c-.41.73-.424 1.522-.04 2.239.95 1.765 3.346 1.713 4.252-.093.272-.542.27-1.363-.005-1.97-.786-1.741-3.269-1.844-4.207-.175m3.645-3.739c-.236.327-.642.99-.74 1.206l-.093.207.285.075c.548.146 1.083.5 1.595 1.06.42.457.507.6.701 1.146.637 1.79-.2 3.734-1.921 4.465-.255.108-.462.231-.46.274 0 .043.147.302.327.574l.326.497h12.2l.198-.255c.352-.454.84-1.407 1.056-2.059.713-2.156.424-4.522-.8-6.558-.508-.844-1.698-2.031-2.546-2.539-2.38-1.424-5.422-1.443-7.86-.048-.51.291-.832.539-1.397 1.072-.403.38-.795.778-.871.883m1.232 10.722c.19.19 1.114.761 1.623 1.003.441.21.689.381 1.005.695.375.373.439.478.607 1l.188.584 1.483-.01 1.484-.009.18-.576c.167-.53.218-.61.631-1.015.342-.333.57-.491.946-.656.496-.217 1.558-.878 1.625-1.012.02-.039-2.186-.07-4.9-.07-2.715.002-4.907.031-4.872.066m3.023 6.51c-.227 1.773-.236 2.005-.099 2.406.277.807.981 1.196 2.097 1.159.997-.034 1.579-.4 1.86-1.173.133-.364.123-.615-.093-2.32-.134-1.05-.267-1.965-.296-2.03-.037-.084-.513-.12-1.577-.12-.838-.001-1.55.025-1.582.057s-.172.942-.31 2.02" clip-rule="evenodd"/></g><defs><clipPath id="a"><path fill="#fff" d="M11 11h24v24H11z"/></clipPath></defs></svg>