<svg xmlns="http://www.w3.org/2000/svg" width="46" height="46" fill="none"><circle cx="23" cy="23" r="20" fill="#0180B2"/><circle cx="23" cy="23" r="22.5" stroke="#0180B2"/><path fill="#fff" fill-rule="evenodd" d="M11.472 11.116c-.175.085-.267.183-.358.385-.15.33-.15.378-.012.704a.72.72 0 0 0 .34.383c.214.116.333.126 1.49.126h1.257l.033.2c.017.109.045.322.061.474.047.434.255 2.133.405 3.308.075.59.191 1.514.257 2.053s.183 1.476.26 2.083.194 1.544.26 2.083c.188 1.546.564 4.532.747 5.943.066.505.142 1.131.17 1.391.06.558.168.807.418.97.166.109.294.12 1.373.12.655 0 1.19.016 1.19.035s-.04.169-.091.333c-.067.218-.086.461-.07.9.02.51.048.656.19.964.092.2.298.503.458.674.94 1.002 2.397 1.007 3.326.014.361-.387.584-.862.652-1.388.054-.411-.001-1.078-.106-1.286a.5.5 0 0 1-.058-.18c0-.045.541-.066 1.72-.066.947 0 1.721.015 1.721.032s-.055.26-.122.536c-.109.45-.114.546-.053.902.188 1.09.867 1.881 1.82 2.12 1.206.303 2.395-.444 2.773-1.743.163-.562.144-.949-.083-1.709l-.041-.138h.941c.885 0 .953-.008 1.136-.14.27-.194.348-.38.322-.774-.02-.288-.05-.358-.231-.536l-.21-.204h-7.713c-4.243 0-7.714-.016-7.714-.035 0-.04-.213-1.595-.262-1.91l-.03-.2h1.716c1.556 0 1.729-.01 1.842-.107l.125-.109-.061-2.296a586 586 0 0 0-.118-3.89l-.116-3.366c-.038-1.09-.085-1.804-.123-1.853-.05-.064-.54-.08-2.38-.08-1.805 0-2.322-.017-2.337-.077-.011-.042-.09-.655-.176-1.363-.37-3.045-.377-3.074-.78-3.293-.174-.095-.388-.107-1.86-.106-1.498.001-1.686.013-1.898.116m11.155 4.855c-.05.1-.05.54-.001 1.792.036.913.09 2.666.12 3.896.031 1.23.085 3.008.12 3.952.06 1.598.071 1.723.18 1.822.104.097.276.108 1.768.108.91 0 1.717-.026 1.795-.058s.156-.108.174-.169c.017-.06.058-1.213.092-2.561s.086-3.057.116-3.799c.03-.74.073-2.17.094-3.176.033-1.54.026-1.836-.042-1.883-.045-.03-1.041-.055-2.215-.055-2.128-.001-2.135 0-2.2.13m6.178.005c-.062.106-.096.65-.147 2.344-.097 3.237-.174 5.683-.232 7.41-.032.956-.031 1.568.003 1.636.03.06.138.125.24.145s1.153.029 2.336.018c2.099-.018 2.155-.022 2.351-.153.356-.239.31-.02.772-3.665.077-.606.192-1.53.257-2.052.245-1.99.518-4.183.61-4.901.035-.272-.121-.595-.377-.781l-.19-.138h-5.542z" clip-rule="evenodd"/></svg>