<svg xmlns="http://www.w3.org/2000/svg" width="46" height="46" fill="none"><circle cx="23" cy="23" r="20" fill="#0180B2"/><circle cx="23" cy="23" r="22.5" stroke="#0180B2"/><g fill="#fff" clip-path="url(#a)"><path d="M27.156 26.981c.712-1.557 1.605-3.707 1.81-3.869.153-.083.379.678 1.634.688 1.62.013 1.693-.742 1.811-.653.244.182 1.789 3.702 1.789 4.075 0 .361-.38.74-.741.74-.289 0-.721-.343-.765-.606-.014-.08-.052 1.316-.086 3.102-.056 2.98-.079 3.265-.278 3.488-.294.328-.897.323-1.204-.01-.218-.237-.232-.397-.232-2.594 0-2.006-.025-2.343-.171-2.343s-.171.332-.171 2.291c0 2.143-.016 2.31-.237 2.595a.765.765 0 0 1-1.237 0c-.226-.291-.237-.444-.241-3.604l-.005-3.3-.385.713-.004.007c-.187.336-.275.492-.575.492-1.068 0-.94-.714-.712-1.212M11.956 26.981c.712-1.557 1.605-3.707 1.81-3.869.153-.083.379.678 1.634.688 1.62.013 1.693-.742 1.81-.653.245.182 1.79 3.702 1.79 4.075 0 .361-.38.74-.741.74-.29 0-.721-.343-.766-.606-.013-.08-.051 1.316-.085 3.102-.056 2.98-.08 3.265-.279 3.488-.293.328-.897.323-1.203-.01-.218-.237-.232-.397-.232-2.594 0-2.006-.025-2.343-.171-2.343s-.171.332-.171 2.291c0 2.143-.016 2.31-.237 2.595a.765.765 0 0 1-1.237 0c-.227-.291-.237-.444-.241-3.604l-.005-3.3-.386.713-.003.007c-.188.336-.275.492-.575.492-1.068 0-.94-.714-.712-1.212"/><circle cx="30.6" cy="21" r="2"/><circle cx="15.4" cy="21" r="2"/><circle cx="23" cy="14.2" r="3.2"/><path d="M15.8 12.98c0-.32.097-.54.357-.807.625-.641 1.565-.426 1.823.417.068.224.188.857.266 1.408.077.55.21 1.17.294 1.379.084.207.675.869 1.313 1.47l1.162 1.093s.74.903 1.985.903c1.354 0 2-.829 2-.829l1.146-1.167c.639-.601 1.23-1.263 1.314-1.47s.216-.828.294-1.38c.186-1.316.335-1.773.652-2.001.71-.511 1.794.084 1.794.984 0 .718-.487 3.09-.737 3.592-.127.256-1.027 1.245-2 2.197l-1.77 1.732-.035 6.51c0 1.572-.015 3.634 0 4.953.047 4.164-2.414 3.89-2.414.123V26.45h-.721l-.037 3.64v1.996s.003 2.883-1.352 2.883c-1.024 0-1.063-2.883-1.063-2.883v-5.175l-.061-6.692-1.624-1.596c-.893-.878-1.726-1.803-1.852-2.056-.248-.5-.734-2.874-.734-3.588"/></g><defs><clipPath id="a"><path fill="#fff" d="M11 11h24v24H11z"/></clipPath></defs></svg>