<svg xmlns="http://www.w3.org/2000/svg" width="185" height="233" fill="none"><mask id="a" width="185" height="233" x="0" y="0" fill="#000" maskUnits="userSpaceOnUse"><path fill="#fff" d="M0 0h185v233H0z"/><path fill-rule="evenodd" d="M103.141 1.379c-1.101.4-2.454 1.295-3.007 1.988l-1.005 1.259-1.434-1.579-1.435-1.58-4.324 1.722c-3.55 1.413-4.497 1.597-5.285 1.028-.837-.606-.891-.483-.423.967.634 1.96.66 4.201.066 5.56-.39.892-.56.865-1.991-.316-1.45-1.195-1.624-1.22-2.35-.348-.862 1.033-7.152 1.732-7.764.862-.193-.273-1.354-.496-2.58-.496-1.7 0-2.309.263-2.56 1.107-.395 1.324-.703 1.367-2.065.286-.848-.675-1.39-.704-3.014-.166-1.675.555-2.164.51-3.167-.287-.653-.518-1.306-.853-1.451-.743s-1.045.365-2 .566c-2.277.48-2.296-.606-.037-2.187l1.698-1.189-3.355-.755c-2.764-.622-3.62-1.122-4.853-2.836-.823-1.145-1.497-2.336-1.497-2.647 0-.803-.677-.7-1.931.297-.904.718-.974 1.177-.417 2.768.751 2.15.31 2.952-1.072 1.945-.51-.371-1.581-.593-2.381-.494-1.311.163-1.434.43-1.251 2.696.178 2.202.009 2.608-1.359 3.25-.86.404-1.874.566-2.254.36q-.69-.376-.691 2.073c0 1.876.434 2.928 1.852 4.495 1.018 1.125 1.994 2.343 2.169 2.707.219.457.593.362 1.214-.308 1.22-1.318 2.096-1.22 3.716.415 1.962 1.982 4.224 1.848 4.708-.277.287-1.26.74-1.676 1.877-1.723a819 819 0 0 0 2.918-.125c1.271-.058 1.436.223 1.584 2.692.288 4.806.539 5.263 2.682 4.887 2.4-.421 2.538.738.308 2.577-1.633 1.347-1.992 2.997-.963 4.426.474.658.755.686 1.378.138 1.348-1.183 2.628-.847 2.127.559-.243.685-.428 1.744-.409 2.353.018.61-.592 1.527-1.355 2.04-1.253.839-1.39 1.431-1.399 6.045-.007 3.593-.245 5.184-.799 5.346-.433.127-.788.689-.788 1.25 0 .676-.756 1.236-2.252 1.67-1.575.457-2.144.899-1.893 1.473.198.451.36.93.36 1.066 0 .135.71.482 1.577.771 1.673.559 2.168 2.583.904 3.693-.478.419-.392.686.295.918.532.179 1.136.087 1.341-.204.673-.955 2.191-.555 2.191.578 0 1.168.918 1.49 1.578.554.662-.94 2.834-.63 2.906.415.037.533.13 1.343.207 1.8.078.457.19 1.295.249 1.861.09.87.455.974 2.316.668 1.942-.32 2.208-.227 2.208.776 0 .628-.329 1.603-.73 2.167-1.293 1.818-.257 2.879 2.445 2.504 3.193-.444 3.332-.556 3.332-2.675 0-1.687.188-1.86 2.35-2.168 1.294-.184 2.544-.154 2.779.066s.847 2.225 1.36 4.454l.936 4.054-1.547.516c-1.055.352-1.447.824-1.234 1.485.31.962 1.285 6.555 1.328 7.614.012.305-1.213.679-2.723.831l-2.744.277 1.397 1.552c1.277 1.42 1.489 1.479 2.478.692 1.79-1.422 3.191-1.084 3.191.77 0 .896.284 1.782.631 1.97.908.493.779 1.965-.158 1.8-.528-.092-.85.776-.973 2.631-.12 1.799-.563 3.03-1.262 3.515-.943.654-.822.7.973.372 1.613-.295 2.05-.192 2.05.48 0 1.189 2.446 2.292 3.34 1.507 1.04-.911 2.97.917 2.97 2.814 0 2.093 1.365 2.489 4.416 1.281 3.093-1.224 4.529-.81 4.284 1.237-.17 1.422-.035 1.52 1.868 1.358 2.072-.175 2.334.112 2.076 2.284-.064.551.17 1.307.522 1.679.714.756.564 7.852-.199 9.371-.27.538-.304 2.069-.075 3.404.635 3.719-.035 5.313-2.235 5.313-1.004 0-1.824.206-1.824.457 0 .738 2.735 2.738 4.033 2.949.657.107 1.437.629 1.735 1.163.297.532.754 1.359 1.014 1.837.708 1.3 3.266 2.356 6.624 2.737 3.538.401 3.862 1.317 1.082 3.055-1.581.988-2.084 1.074-2.88.493-.789-.574-1.287-.536-2.723.208-1.448.751-2.101.798-3.7.268-2.293-.759-5.585.182-4.804 1.373.248.379.219.505-.065.28-.284-.226-.951-.102-1.484.276-.719.511-.85.516-.51.019.286-.419-.257-.993-1.456-1.537-1.095-.497-1.914-1.312-1.914-1.903 0-.569-.458-1.189-1.017-1.377-.649-.219-.899-.745-.689-1.451.215-.721-.076-1.299-.83-1.654-.954-.448-1.198-.322-1.363.7-.165 1.02-.572 1.23-2.252 1.163-2.35-.093-2.63.753-1.103 3.324 1.265 2.13.781 2.573-2.815 2.573-2.824 0-3.154-.147-4.36-1.943-.72-1.069-2.049-2.24-2.955-2.602-1.306-.523-1.597-.971-1.4-2.154.194-1.158-.128-1.689-1.439-2.369-1.566-.812-1.765-.802-2.735.139-.576.558-.872 1.413-.66 1.899.213.487.192 1.162-.047 1.501-.647.919-2.833-1.024-2.833-2.52 0-.677-.39-1.516-.869-1.864-1.035-.754-1.632.671-1.645 3.927-.01 2.053-.84 3.168-1.58 2.118-.687-.975-1.545-.614-1.955.822-.41 1.43-1.227 1.707-2.672.903-.849-.473-.495-4.125.517-5.334.76-.907 1.138-3.603.549-3.922-.3-.163-.546-.995-.546-1.849 0-1.347-.204-1.518-1.542-1.293-.976.164-1.614.695-1.735 1.446-.176 1.081-.515 1.171-3.761 1.002-3.161-.165-3.616-.055-3.986.969-.23.635-.792 1.155-1.249 1.155s-1.296.623-1.865 1.385c-.568.761-1.453 1.384-1.965 1.384-1.267 0-1.163 1.992.245 4.713 1.628 3.146 2.114 5.976 1.335 7.775-.613 1.415-.446 1.748 1.946 3.887l2.617 2.341-1.487 1.84a48 48 0 0 1-3.201 3.507l-1.715 1.668 1.65 1.51 1.648 1.511-1.302 2.641c-1.302 2.639-1.307 2.643-6.455 3.872-2.834.677-5.554 1.523-6.046 1.881-1.164.848-1.138 3.91.054 6.415 1.302 2.735 1.245 2.908-1.262 3.827-1.653.607-2.208 1.144-2.208 2.139 0 1.118-.4 1.387-2.52 1.702-1.386.205-2.684.605-2.883.888-.2.283-.618.376-.931.206-.313-.169-.755.344-.983 1.141-.33 1.155-.697 1.388-1.8 1.145-1.139-.251-1.627.111-2.744 2.034-1.07 1.841-1.175 2.376-.491 2.508.477.093 1.058 1.09 1.29 2.216.233 1.126.575 2.601.76 3.279.253.928-.044 1.385-1.205 1.849-1.466.586-1.51.74-.878 3.159.504 1.935.479 2.597-.105 2.768-.421.123-.65.39-.507.592.143.203-.905.34-2.33.306-1.982-.048-2.729-.336-3.182-1.227-.677-1.333-5.947-3.092-7.598-2.536-.588.198-1.497 1.259-2.02 2.359-.92 1.932-.9 2.03.593 2.985.917.586 1.437 1.379 1.28 1.95-.145.529.687 2.458 1.85 4.285 2.001 3.145 2.449 3.477 8.37 6.192 4.654 2.133 6.982 2.882 9.094 2.925 1.562.031 3.39.422 4.064.87 2.24 1.488 7.335.629 5.552-.936-1.181-1.037-.942-2.568.509-3.25.803-.377 1.166-.961.96-1.542-1.01-2.854 3.492-2.546 6.348.434 2.005 2.092 2.97 1.926 3.387-.583.27-1.627.76-2.082 3.47-3.222 1.735-.731 4.654-1.479 6.486-1.662s3.362-.583 3.4-.887c.056-.443 1.213-2.298 2.205-3.536.094-.117 1.03.099 2.08.481 1.594.579 2.151.555 3.37-.145 1.027-.592 1.782-.681 2.55-.304.601.295 1.926.376 2.945.179 1.227-.236 2.333-.062 3.272.515.78.479 2.326.871 3.437.871 1.227 0 2.746.537 3.872 1.369 1.02.754 2.035 1.252 2.257 1.108s.256-.091.076.118c-.179.208.514 1.143 1.542 2.076 1.562 1.42 1.892 2.206 2.008 4.789.076 1.7-.031 3.331-.239 3.626-.739 1.049.56 1.942 2.276 1.564 1.353-.298 1.602-.607 1.312-1.623-.198-.691.073-2.533.601-4.095.863-2.55.861-3.134-.017-5.728-.681-2.015-.766-2.951-.281-3.092.383-.112.696-.806.696-1.542 0-1.028-.337-1.339-1.451-1.339-.798 0-1.792.299-2.208.665-.589.517-.757.493-.757-.106 0-.522-.304-.423-.939.305-.918 1.051-.966 1.045-2.194-.31-.69-.761-1.262-1.611-1.27-1.888-.018-.655 4.936-6.417 5.527-6.428.25-.005 1.447-.772 2.661-1.705l3.785-2.904c.868-.663 7.468-5.53 14.669-10.815 7.2-5.285 13.096-9.769 13.101-9.964s1.123-1.472 2.485-2.837c1.361-1.364 2.39-2.554 2.286-2.645-.103-.091.792-1.093 1.991-2.228 1.198-1.134 3.391-3.557 4.874-5.385 2.698-3.326 3.518-4.546 9.296-13.845 1.703-2.742 3.99-5.795 5.081-6.785s1.733-1.8 1.425-1.8-.111-.311.436-.692c1.484-1.03 2.024-4.524.834-5.391-1.589-1.158-1.233-5.021.624-6.78.899-.851 1.978-1.365 2.498-1.19q1.619.545 9.485-2.563c7.537-2.978 8.585-3.322 10.115-3.322.856 0 1.556-.249 1.556-.553s.463-.554 1.027-.554c.87 0 .947-.359.499-2.354-.29-1.295-.539-3.624-.554-5.176-.013-1.552-.412-3.231-.885-3.731-.517-.548-.701-1.462-.461-2.301.346-1.211.191-1.392-1.191-1.392-1.344 0-1.589-.255-1.589-1.654 0-1.17-.64-2.183-2.186-3.461-1.203-.994-2.361-2.466-2.575-3.271-.362-1.362-.16-1.53 2.891-2.42 2.112-.616 3.422-.758 3.679-.398.219.307 1.464.684 2.765.836 2.261.265 2.366.207 2.366-1.323 0-1.46.193-1.6 2.208-1.6h2.208v-2.77c0-1.523.276-2.769.613-2.769.702 0 .183-4.195-.703-5.67-.83-1.383-3.535-1.809-6.497-1.022-1.408.375-3.362.764-4.34.865-1.678.174-1.72.128-.747-.817.691-.67.806-1.122.349-1.37-1.055-.572-.036-1.531 1.302-1.224.825.19 1.19-.019 1.19-.677 0-.522.417-1.433.927-2.025.509-.59.935-1.499.946-2.016.018-.859-.17-.871-2.168-.138-2.887 1.059-6.404 1.044-6.873-.028-.199-.457-.797-.831-1.329-.831s-.966-.277-.966-.615c0-.4-.747-.493-2.121-.267-1.508.248-2.351.106-2.916-.492-.438-.463-1.187-.842-1.665-.842-.506 0-.869-.577-.869-1.384 0-.836.36-1.385.909-1.385.79 0 .791-.198.004-1.523-1.211-2.037-1.176-4.015.07-4.015.541 0 .809-.25.594-.554-.214-.304-.91-.554-1.547-.554-.983 0-1.13-.392-.981-2.63.097-1.447.384-3.579.639-4.736.379-1.716.246-2.248-.716-2.876-.649-.423-1.748-.657-2.442-.52-.694.138-1.623.043-2.065-.211-.922-.53-1.653-3.072-.741-2.578.329.179.598-.168.598-.77 0-.601.355-1.205.788-1.341s.597-.43.361-.652c-.694-.658-4.304.272-4.304 1.108 0 .835-1.892 1.914-3.355 1.914-.503 0-1.054-.47-1.226-1.046-.238-.8-1.034-1.1-3.386-1.278-1.69-.127-4.067-.038-5.282.199-1.501.292-2.41.214-2.839-.245-.347-.372-1.199-.676-1.893-.676-.986 0-1.346-.483-1.65-2.215-.213-1.218-.6-3.249-.859-4.512-.417-2.04-.321-2.339.862-2.668.75-.21 1.332-.839 1.332-1.441 0-.59.319-1.071.708-1.071.489 0 .465-.257-.077-.83-.432-.458-1.739-.831-2.904-.831-1.796 0-2.179-.233-2.512-1.523-.217-.838-.804-2.978-1.306-4.756-.677-2.398-.73-3.426-.207-3.978.537-.569.394-1.018-.6-1.89-.717-.63-1.555-1.145-1.861-1.145-.832 0-1.303-2.895-.647-3.971.855-1.403-1.29-3.075-3.476-2.71-.32.053-.214-.291.234-.765.449-.474 1.294-.862 1.879-.862.586 0 1.615-.366 2.289-.813.673-.447 1.727-.821 2.341-.83.896-.015 1.034-.32.699-1.541-.228-.838-.454-1.572-.501-1.63-.248-.31-10.406-.267-10.984.047-1.288.699-3.895-.303-4.278-1.643-.205-.717-.913-1.454-1.572-1.638-.66-.183-1.204-.753-1.209-1.266-.019-1.806-.812-2.188-2.939-1.414" clip-rule="evenodd"/></mask><path fill="#fff" fill-opacity=".8" fill-rule="evenodd" d="M103.141 1.379c-1.101.4-2.454 1.295-3.007 1.988l-1.005 1.259-1.434-1.579-1.435-1.58-4.324 1.722c-3.55 1.413-4.497 1.597-5.285 1.028-.837-.606-.891-.483-.423.967.634 1.96.66 4.201.066 5.56-.39.892-.56.865-1.991-.316-1.45-1.195-1.624-1.22-2.35-.348-.862 1.033-7.152 1.732-7.764.862-.193-.273-1.354-.496-2.58-.496-1.7 0-2.309.263-2.56 1.107-.395 1.324-.703 1.367-2.065.286-.848-.675-1.39-.704-3.014-.166-1.675.555-2.164.51-3.167-.287-.653-.518-1.306-.853-1.451-.743s-1.045.365-2 .566c-2.277.48-2.296-.606-.037-2.187l1.698-1.189-3.355-.755c-2.764-.622-3.62-1.122-4.853-2.836-.823-1.145-1.497-2.336-1.497-2.647 0-.803-.677-.7-1.931.297-.904.718-.974 1.177-.417 2.768.751 2.15.31 2.952-1.072 1.945-.51-.371-1.581-.593-2.381-.494-1.311.163-1.434.43-1.251 2.696.178 2.202.009 2.608-1.359 3.25-.86.404-1.874.566-2.254.36q-.69-.376-.691 2.073c0 1.876.434 2.928 1.852 4.495 1.018 1.125 1.994 2.343 2.169 2.707.219.457.593.362 1.214-.308 1.22-1.318 2.096-1.22 3.716.415 1.962 1.982 4.224 1.848 4.708-.277.287-1.26.74-1.676 1.877-1.723a819 819 0 0 0 2.918-.125c1.271-.058 1.436.223 1.584 2.692.288 4.806.539 5.263 2.682 4.887 2.4-.421 2.538.738.308 2.577-1.633 1.347-1.992 2.997-.963 4.426.474.658.755.686 1.378.138 1.348-1.183 2.628-.847 2.127.559-.243.685-.428 1.744-.409 2.353.018.61-.592 1.527-1.355 2.04-1.253.839-1.39 1.431-1.399 6.045-.007 3.593-.245 5.184-.799 5.346-.433.127-.788.689-.788 1.25 0 .676-.756 1.236-2.252 1.67-1.575.457-2.144.899-1.893 1.473.198.451.36.93.36 1.066 0 .135.71.482 1.577.771 1.673.559 2.168 2.583.904 3.693-.478.419-.392.686.295.918.532.179 1.136.087 1.341-.204.673-.955 2.191-.555 2.191.578 0 1.168.918 1.49 1.578.554.662-.94 2.834-.63 2.906.415.037.533.13 1.343.207 1.8.078.457.19 1.295.249 1.861.09.87.455.974 2.316.668 1.942-.32 2.208-.227 2.208.776 0 .628-.329 1.603-.73 2.167-1.293 1.818-.257 2.879 2.445 2.504 3.193-.444 3.332-.556 3.332-2.675 0-1.687.188-1.86 2.35-2.168 1.294-.184 2.544-.154 2.779.066s.847 2.225 1.36 4.454l.936 4.054-1.547.516c-1.055.352-1.447.824-1.234 1.485.31.962 1.285 6.555 1.328 7.614.012.305-1.213.679-2.723.831l-2.744.277 1.397 1.552c1.277 1.42 1.489 1.479 2.478.692 1.79-1.422 3.191-1.084 3.191.77 0 .896.284 1.782.631 1.97.908.493.779 1.965-.158 1.8-.528-.092-.85.776-.973 2.631-.12 1.799-.563 3.03-1.262 3.515-.943.654-.822.7.973.372 1.613-.295 2.05-.192 2.05.48 0 1.189 2.446 2.292 3.34 1.507 1.04-.911 2.97.917 2.97 2.814 0 2.093 1.365 2.489 4.416 1.281 3.093-1.224 4.529-.81 4.284 1.237-.17 1.422-.035 1.52 1.868 1.358 2.072-.175 2.334.112 2.076 2.284-.064.551.17 1.307.522 1.679.714.756.564 7.852-.199 9.371-.27.538-.304 2.069-.075 3.404.635 3.719-.035 5.313-2.235 5.313-1.004 0-1.824.206-1.824.457 0 .738 2.735 2.738 4.033 2.949.657.107 1.437.629 1.735 1.163.297.532.754 1.359 1.014 1.837.708 1.3 3.266 2.356 6.624 2.737 3.538.401 3.862 1.317 1.082 3.055-1.581.988-2.084 1.074-2.88.493-.789-.574-1.287-.536-2.723.208-1.448.751-2.101.798-3.7.268-2.293-.759-5.585.182-4.804 1.373.248.379.219.505-.065.28-.284-.226-.951-.102-1.484.276-.719.511-.85.516-.51.019.286-.419-.257-.993-1.456-1.537-1.095-.497-1.914-1.312-1.914-1.903 0-.569-.458-1.189-1.017-1.377-.649-.219-.899-.745-.689-1.451.215-.721-.076-1.299-.83-1.654-.954-.448-1.198-.322-1.363.7-.165 1.02-.572 1.23-2.252 1.163-2.35-.093-2.63.753-1.103 3.324 1.265 2.13.781 2.573-2.815 2.573-2.824 0-3.154-.147-4.36-1.943-.72-1.069-2.049-2.24-2.955-2.602-1.306-.523-1.597-.971-1.4-2.154.194-1.158-.128-1.689-1.439-2.369-1.566-.812-1.765-.802-2.735.139-.576.558-.872 1.413-.66 1.899.213.487.192 1.162-.047 1.501-.647.919-2.833-1.024-2.833-2.52 0-.677-.39-1.516-.869-1.864-1.035-.754-1.632.671-1.645 3.927-.01 2.053-.84 3.168-1.58 2.118-.687-.975-1.545-.614-1.955.822-.41 1.43-1.227 1.707-2.672.903-.849-.473-.495-4.125.517-5.334.76-.907 1.138-3.603.549-3.922-.3-.163-.546-.995-.546-1.849 0-1.347-.204-1.518-1.542-1.293-.976.164-1.614.695-1.735 1.446-.176 1.081-.515 1.171-3.761 1.002-3.161-.165-3.616-.055-3.986.969-.23.635-.792 1.155-1.249 1.155s-1.296.623-1.865 1.385c-.568.761-1.453 1.384-1.965 1.384-1.267 0-1.163 1.992.245 4.713 1.628 3.146 2.114 5.976 1.335 7.775-.613 1.415-.446 1.748 1.946 3.887l2.617 2.341-1.487 1.84a48 48 0 0 1-3.201 3.507l-1.715 1.668 1.65 1.51 1.648 1.511-1.302 2.641c-1.302 2.639-1.307 2.643-6.455 3.872-2.834.677-5.554 1.523-6.046 1.881-1.164.848-1.138 3.91.054 6.415 1.302 2.735 1.245 2.908-1.262 3.827-1.653.607-2.208 1.144-2.208 2.139 0 1.118-.4 1.387-2.52 1.702-1.386.205-2.684.605-2.883.888-.2.283-.618.376-.931.206-.313-.169-.755.344-.983 1.141-.33 1.155-.697 1.388-1.8 1.145-1.139-.251-1.627.111-2.744 2.034-1.07 1.841-1.175 2.376-.491 2.508.477.093 1.058 1.09 1.29 2.216.233 1.126.575 2.601.76 3.279.253.928-.044 1.385-1.205 1.849-1.466.586-1.51.74-.878 3.159.504 1.935.479 2.597-.105 2.768-.421.123-.65.39-.507.592.143.203-.905.34-2.33.306-1.982-.048-2.729-.336-3.182-1.227-.677-1.333-5.947-3.092-7.598-2.536-.588.198-1.497 1.259-2.02 2.359-.92 1.932-.9 2.03.593 2.985.917.586 1.437 1.379 1.28 1.95-.145.529.687 2.458 1.85 4.285 2.001 3.145 2.449 3.477 8.37 6.192 4.654 2.133 6.982 2.882 9.094 2.925 1.562.031 3.39.422 4.064.87 2.24 1.488 7.335.629 5.552-.936-1.181-1.037-.942-2.568.509-3.25.803-.377 1.166-.961.96-1.542-1.01-2.854 3.492-2.546 6.348.434 2.005 2.092 2.97 1.926 3.387-.583.27-1.627.76-2.082 3.47-3.222 1.735-.731 4.654-1.479 6.486-1.662s3.362-.583 3.4-.887c.056-.443 1.213-2.298 2.205-3.536.094-.117 1.03.099 2.08.481 1.594.579 2.151.555 3.37-.145 1.027-.592 1.782-.681 2.55-.304.601.295 1.926.376 2.945.179 1.227-.236 2.333-.062 3.272.515.78.479 2.326.871 3.437.871 1.227 0 2.746.537 3.872 1.369 1.02.754 2.035 1.252 2.257 1.108s.256-.091.076.118c-.179.208.514 1.143 1.542 2.076 1.562 1.42 1.892 2.206 2.008 4.789.076 1.7-.031 3.331-.239 3.626-.739 1.049.56 1.942 2.276 1.564 1.353-.298 1.602-.607 1.312-1.623-.198-.691.073-2.533.601-4.095.863-2.55.861-3.134-.017-5.728-.681-2.015-.766-2.951-.281-3.092.383-.112.696-.806.696-1.542 0-1.028-.337-1.339-1.451-1.339-.798 0-1.792.299-2.208.665-.589.517-.757.493-.757-.106 0-.522-.304-.423-.939.305-.918 1.051-.966 1.045-2.194-.31-.69-.761-1.262-1.611-1.27-1.888-.018-.655 4.936-6.417 5.527-6.428.25-.005 1.447-.772 2.661-1.705l3.785-2.904c.868-.663 7.468-5.53 14.669-10.815 7.2-5.285 13.096-9.769 13.101-9.964s1.123-1.472 2.485-2.837c1.361-1.364 2.39-2.554 2.286-2.645-.103-.091.792-1.093 1.991-2.228 1.198-1.134 3.391-3.557 4.874-5.385 2.698-3.326 3.518-4.546 9.296-13.845 1.703-2.742 3.99-5.795 5.081-6.785s1.733-1.8 1.425-1.8-.111-.311.436-.692c1.484-1.03 2.024-4.524.834-5.391-1.589-1.158-1.233-5.021.624-6.78.899-.851 1.978-1.365 2.498-1.19q1.619.545 9.485-2.563c7.537-2.978 8.585-3.322 10.115-3.322.856 0 1.556-.249 1.556-.553s.463-.554 1.027-.554c.87 0 .947-.359.499-2.354-.29-1.295-.539-3.624-.554-5.176-.013-1.552-.412-3.231-.885-3.731-.517-.548-.701-1.462-.461-2.301.346-1.211.191-1.392-1.191-1.392-1.344 0-1.589-.255-1.589-1.654 0-1.17-.64-2.183-2.186-3.461-1.203-.994-2.361-2.466-2.575-3.271-.362-1.362-.16-1.53 2.891-2.42 2.112-.616 3.422-.758 3.679-.398.219.307 1.464.684 2.765.836 2.261.265 2.366.207 2.366-1.323 0-1.46.193-1.6 2.208-1.6h2.208v-2.77c0-1.523.276-2.769.613-2.769.702 0 .183-4.195-.703-5.67-.83-1.383-3.535-1.809-6.497-1.022-1.408.375-3.362.764-4.34.865-1.678.174-1.72.128-.747-.817.691-.67.806-1.122.349-1.37-1.055-.572-.036-1.531 1.302-1.224.825.19 1.19-.019 1.19-.677 0-.522.417-1.433.927-2.025.509-.59.935-1.499.946-2.016.018-.859-.17-.871-2.168-.138-2.887 1.059-6.404 1.044-6.873-.028-.199-.457-.797-.831-1.329-.831s-.966-.277-.966-.615c0-.4-.747-.493-2.121-.267-1.508.248-2.351.106-2.916-.492-.438-.463-1.187-.842-1.665-.842-.506 0-.869-.577-.869-1.384 0-.836.36-1.385.909-1.385.79 0 .791-.198.004-1.523-1.211-2.037-1.176-4.015.07-4.015.541 0 .809-.25.594-.554-.214-.304-.91-.554-1.547-.554-.983 0-1.13-.392-.981-2.63.097-1.447.384-3.579.639-4.736.379-1.716.246-2.248-.716-2.876-.649-.423-1.748-.657-2.442-.52-.694.138-1.623.043-2.065-.211-.922-.53-1.653-3.072-.741-2.578.329.179.598-.168.598-.77 0-.601.355-1.205.788-1.341s.597-.43.361-.652c-.694-.658-4.304.272-4.304 1.108 0 .835-1.892 1.914-3.355 1.914-.503 0-1.054-.47-1.226-1.046-.238-.8-1.034-1.1-3.386-1.278-1.69-.127-4.067-.038-5.282.199-1.501.292-2.41.214-2.839-.245-.347-.372-1.199-.676-1.893-.676-.986 0-1.346-.483-1.65-2.215-.213-1.218-.6-3.249-.859-4.512-.417-2.04-.321-2.339.862-2.668.75-.21 1.332-.839 1.332-1.441 0-.59.319-1.071.708-1.071.489 0 .465-.257-.077-.83-.432-.458-1.739-.831-2.904-.831-1.796 0-2.179-.233-2.512-1.523-.217-.838-.804-2.978-1.306-4.756-.677-2.398-.73-3.426-.207-3.978.537-.569.394-1.018-.6-1.89-.717-.63-1.555-1.145-1.861-1.145-.832 0-1.303-2.895-.647-3.971.855-1.403-1.29-3.075-3.476-2.71-.32.053-.214-.291.234-.765.449-.474 1.294-.862 1.879-.862.586 0 1.615-.366 2.289-.813.673-.447 1.727-.821 2.341-.83.896-.015 1.034-.32.699-1.541-.228-.838-.454-1.572-.501-1.63-.248-.31-10.406-.267-10.984.047-1.288.699-3.895-.303-4.278-1.643-.205-.717-.913-1.454-1.572-1.638-.66-.183-1.204-.753-1.209-1.266-.019-1.806-.812-2.188-2.939-1.414" clip-rule="evenodd"/><path stroke="#315177" stroke-opacity=".8" stroke-width="2" d="M103.141 1.379c-1.101.4-2.454 1.295-3.007 1.988l-1.005 1.259-1.434-1.579-1.435-1.58-4.324 1.722c-3.55 1.413-4.497 1.597-5.285 1.028-.837-.606-.891-.483-.423.967.634 1.96.66 4.201.066 5.56-.39.892-.56.865-1.991-.316-1.45-1.195-1.624-1.22-2.35-.348-.862 1.033-7.152 1.732-7.764.862-.193-.273-1.354-.496-2.58-.496-1.7 0-2.309.263-2.56 1.107-.395 1.324-.703 1.367-2.065.286-.848-.675-1.39-.704-3.014-.166-1.675.555-2.164.51-3.167-.287-.653-.518-1.306-.853-1.451-.743s-1.045.365-2 .566c-2.277.48-2.296-.606-.037-2.187l1.698-1.189-3.355-.755c-2.764-.622-3.62-1.122-4.853-2.836-.823-1.145-1.497-2.336-1.497-2.647 0-.803-.677-.7-1.931.297-.904.718-.974 1.177-.417 2.768.751 2.15.31 2.952-1.072 1.945-.51-.371-1.581-.593-2.381-.494-1.311.163-1.434.43-1.251 2.696.178 2.202.009 2.608-1.359 3.25-.86.404-1.874.566-2.254.36q-.69-.376-.691 2.073c0 1.876.434 2.928 1.852 4.495 1.018 1.125 1.994 2.343 2.169 2.707.219.457.593.362 1.214-.308 1.22-1.318 2.096-1.22 3.716.415 1.962 1.982 4.224 1.848 4.708-.277.287-1.26.74-1.676 1.877-1.723a819 819 0 0 0 2.918-.125c1.271-.058 1.436.223 1.584 2.692.288 4.806.539 5.263 2.682 4.887 2.4-.421 2.538.738.308 2.577-1.633 1.347-1.992 2.997-.963 4.426.474.658.755.686 1.378.138 1.348-1.183 2.628-.847 2.127.559-.243.685-.428 1.744-.409 2.353.018.61-.592 1.527-1.355 2.04-1.253.839-1.39 1.431-1.399 6.045-.007 3.593-.245 5.184-.799 5.346-.433.127-.788.689-.788 1.25 0 .676-.756 1.236-2.252 1.67-1.575.457-2.144.899-1.893 1.473.198.451.36.93.36 1.066 0 .135.71.482 1.577.771 1.673.559 2.168 2.583.904 3.693-.478.419-.392.686.295.918.532.179 1.136.087 1.341-.204.673-.955 2.191-.555 2.191.578 0 1.168.918 1.49 1.578.554.662-.94 2.834-.63 2.906.415.037.533.13 1.343.207 1.8.078.457.19 1.295.249 1.861.09.87.455.974 2.316.668 1.942-.32 2.208-.227 2.208.776 0 .628-.329 1.603-.73 2.167-1.293 1.818-.257 2.879 2.445 2.504 3.193-.444 3.332-.556 3.332-2.675 0-1.687.188-1.86 2.35-2.168 1.294-.184 2.544-.154 2.779.066s.847 2.225 1.36 4.454l.936 4.054-1.547.516c-1.055.352-1.447.824-1.234 1.485.31.962 1.285 6.555 1.328 7.614.012.305-1.213.679-2.723.831l-2.744.277 1.397 1.552c1.277 1.42 1.489 1.479 2.478.692 1.79-1.422 3.191-1.084 3.191.77 0 .896.284 1.782.631 1.97.908.493.779 1.965-.158 1.8-.528-.092-.85.776-.973 2.631-.12 1.799-.563 3.03-1.262 3.515-.943.654-.822.7.973.372 1.613-.295 2.05-.192 2.05.48 0 1.189 2.446 2.292 3.34 1.507 1.04-.911 2.97.917 2.97 2.814 0 2.093 1.365 2.489 4.416 1.281 3.093-1.224 4.529-.81 4.284 1.237-.17 1.422-.035 1.52 1.868 1.358 2.072-.175 2.334.112 2.076 2.284-.064.551.17 1.307.522 1.679.714.756.564 7.852-.199 9.371-.27.538-.304 2.069-.075 3.404.635 3.719-.035 5.313-2.235 5.313-1.004 0-1.824.206-1.824.457 0 .738 2.735 2.738 4.033 2.949.657.107 1.437.629 1.735 1.163.297.532.754 1.359 1.014 1.837.708 1.3 3.266 2.356 6.624 2.737 3.538.401 3.862 1.317 1.082 3.055-1.581.988-2.084 1.074-2.88.493-.789-.574-1.287-.536-2.723.208-1.448.751-2.101.798-3.7.268-2.293-.759-5.585.182-4.804 1.373.248.379.219.505-.065.28-.284-.226-.951-.102-1.484.276-.719.511-.85.516-.51.019.286-.419-.257-.993-1.456-1.537-1.095-.497-1.914-1.312-1.914-1.903 0-.569-.458-1.189-1.017-1.377-.649-.219-.899-.745-.689-1.451.215-.721-.076-1.299-.83-1.654-.954-.448-1.198-.322-1.363.7-.165 1.02-.572 1.23-2.252 1.163-2.35-.093-2.63.753-1.103 3.324 1.265 2.13.781 2.573-2.815 2.573-2.824 0-3.154-.147-4.36-1.943-.72-1.069-2.049-2.24-2.955-2.602-1.306-.523-1.597-.971-1.4-2.154.194-1.158-.128-1.689-1.439-2.369-1.566-.812-1.765-.802-2.735.139-.576.558-.872 1.413-.66 1.899.213.487.192 1.162-.047 1.501-.647.919-2.833-1.024-2.833-2.52 0-.677-.39-1.516-.869-1.864-1.035-.754-1.632.671-1.645 3.927-.01 2.053-.84 3.168-1.58 2.118-.687-.975-1.545-.614-1.955.822-.41 1.43-1.227 1.707-2.672.903-.849-.473-.495-4.125.517-5.334.76-.907 1.138-3.603.549-3.922-.3-.163-.546-.995-.546-1.849 0-1.347-.204-1.518-1.542-1.293-.976.164-1.614.695-1.735 1.446-.176 1.081-.515 1.171-3.761 1.002-3.161-.165-3.616-.055-3.986.969-.23.635-.792 1.155-1.249 1.155s-1.296.623-1.865 1.385c-.568.761-1.453 1.384-1.965 1.384-1.267 0-1.163 1.992.245 4.713 1.628 3.146 2.114 5.976 1.335 7.775-.613 1.415-.446 1.748 1.946 3.887l2.617 2.341-1.487 1.84a48 48 0 0 1-3.201 3.507l-1.715 1.668 1.65 1.51 1.648 1.511-1.302 2.641c-1.302 2.639-1.307 2.643-6.455 3.872-2.834.677-5.554 1.523-6.046 1.881-1.164.848-1.138 3.91.054 6.415 1.302 2.735 1.245 2.908-1.262 3.827-1.653.607-2.208 1.144-2.208 2.139 0 1.118-.4 1.387-2.52 1.702-1.386.205-2.684.605-2.883.888-.2.283-.618.376-.931.206-.313-.169-.755.344-.983 1.141-.33 1.155-.697 1.388-1.8 1.145-1.139-.251-1.627.111-2.744 2.034-1.07 1.841-1.175 2.376-.491 2.508.477.093 1.058 1.09 1.29 2.216.233 1.126.575 2.601.76 3.279.253.928-.044 1.385-1.205 1.849-1.466.586-1.51.74-.878 3.159.504 1.935.479 2.597-.105 2.768-.421.123-.65.39-.507.592.143.203-.905.34-2.33.306-1.982-.048-2.729-.336-3.182-1.227-.677-1.333-5.947-3.092-7.598-2.536-.588.198-1.497 1.259-2.02 2.359-.92 1.932-.9 2.03.593 2.985.917.586 1.437 1.379 1.28 1.95-.145.529.687 2.458 1.85 4.285 2.001 3.145 2.449 3.477 8.37 6.192 4.654 2.133 6.982 2.882 9.094 2.925 1.562.031 3.39.422 4.064.87 2.24 1.488 7.335.629 5.552-.936-1.181-1.037-.942-2.568.509-3.25.803-.377 1.166-.961.96-1.542-1.01-2.854 3.492-2.546 6.348.434 2.005 2.092 2.97 1.926 3.387-.583.27-1.627.76-2.082 3.47-3.222 1.735-.731 4.654-1.479 6.486-1.662s3.362-.583 3.4-.887c.056-.443 1.213-2.298 2.205-3.536.094-.117 1.03.099 2.08.481 1.594.579 2.151.555 3.37-.145 1.027-.592 1.782-.681 2.55-.304.601.295 1.926.376 2.945.179 1.227-.236 2.333-.062 3.272.515.78.479 2.326.871 3.437.871 1.227 0 2.746.537 3.872 1.369 1.02.754 2.035 1.252 2.257 1.108s.256-.091.076.118c-.179.208.514 1.143 1.542 2.076 1.562 1.42 1.892 2.206 2.008 4.789.076 1.7-.031 3.331-.239 3.626-.739 1.049.56 1.942 2.276 1.564 1.353-.298 1.602-.607 1.312-1.623-.198-.691.073-2.533.601-4.095.863-2.55.861-3.134-.017-5.728-.681-2.015-.766-2.951-.281-3.092.383-.112.696-.806.696-1.542 0-1.028-.337-1.339-1.451-1.339-.798 0-1.792.299-2.208.665-.589.517-.757.493-.757-.106 0-.522-.304-.423-.939.305-.918 1.051-.966 1.045-2.194-.31-.69-.761-1.262-1.611-1.27-1.888-.018-.655 4.936-6.417 5.527-6.428.25-.005 1.447-.772 2.661-1.705l3.785-2.904c.868-.663 7.468-5.53 14.669-10.815 7.2-5.285 13.096-9.769 13.101-9.964s1.123-1.472 2.485-2.837c1.361-1.364 2.39-2.554 2.286-2.645-.103-.091.792-1.093 1.991-2.228 1.198-1.134 3.391-3.557 4.874-5.385 2.698-3.326 3.518-4.546 9.296-13.845 1.703-2.742 3.99-5.795 5.081-6.785s1.733-1.8 1.425-1.8-.111-.311.436-.692c1.484-1.03 2.024-4.524.834-5.391-1.589-1.158-1.233-5.021.624-6.78.899-.851 1.978-1.365 2.498-1.19q1.619.545 9.485-2.563c7.537-2.978 8.585-3.322 10.115-3.322.856 0 1.556-.249 1.556-.553s.463-.554 1.027-.554c.87 0 .947-.359.499-2.354-.29-1.295-.539-3.624-.554-5.176-.013-1.552-.412-3.231-.885-3.731-.517-.548-.701-1.462-.461-2.301.346-1.211.191-1.392-1.191-1.392-1.344 0-1.589-.255-1.589-1.654 0-1.17-.64-2.183-2.186-3.461-1.203-.994-2.361-2.466-2.575-3.271-.362-1.362-.16-1.53 2.891-2.42 2.112-.616 3.422-.758 3.679-.398.219.307 1.464.684 2.765.836 2.261.265 2.366.207 2.366-1.323 0-1.46.193-1.6 2.208-1.6h2.208v-2.77c0-1.523.276-2.769.613-2.769.702 0 .183-4.195-.703-5.67-.83-1.383-3.535-1.809-6.497-1.022-1.408.375-3.362.764-4.34.865-1.678.174-1.72.128-.747-.817.691-.67.806-1.122.349-1.37-1.055-.572-.036-1.531 1.302-1.224.825.19 1.19-.019 1.19-.677 0-.522.417-1.433.927-2.025.509-.59.935-1.499.946-2.016.018-.859-.17-.871-2.168-.138-2.887 1.059-6.404 1.044-6.873-.028-.199-.457-.797-.831-1.329-.831s-.966-.277-.966-.615c0-.4-.747-.493-2.121-.267-1.508.248-2.351.106-2.916-.492-.438-.463-1.187-.842-1.665-.842-.506 0-.869-.577-.869-1.384 0-.836.36-1.385.909-1.385.79 0 .791-.198.004-1.523-1.211-2.037-1.176-4.015.07-4.015.541 0 .809-.25.594-.554-.214-.304-.91-.554-1.547-.554-.983 0-1.13-.392-.981-2.63.097-1.447.384-3.579.639-4.736.379-1.716.246-2.248-.716-2.876-.649-.423-1.748-.657-2.442-.52-.694.138-1.623.043-2.065-.211-.922-.53-1.653-3.072-.741-2.578.329.179.598-.168.598-.77 0-.601.355-1.205.788-1.341s.597-.43.361-.652c-.694-.658-4.304.272-4.304 1.108 0 .835-1.892 1.914-3.355 1.914-.503 0-1.054-.47-1.226-1.046-.238-.8-1.034-1.1-3.386-1.278-1.69-.127-4.067-.038-5.282.199-1.501.292-2.41.214-2.839-.245-.347-.372-1.199-.676-1.893-.676-.986 0-1.346-.483-1.65-2.215-.213-1.218-.6-3.249-.859-4.512-.417-2.04-.321-2.339.862-2.668.75-.21 1.332-.839 1.332-1.441 0-.59.319-1.071.708-1.071.489 0 .465-.257-.077-.83-.432-.458-1.739-.831-2.904-.831-1.796 0-2.179-.233-2.512-1.523-.217-.838-.804-2.978-1.306-4.756-.677-2.398-.73-3.426-.207-3.978.537-.569.394-1.018-.6-1.89-.717-.63-1.555-1.145-1.861-1.145-.832 0-1.303-2.895-.647-3.971.855-1.403-1.29-3.075-3.476-2.71-.32.053-.214-.291.234-.765.449-.474 1.294-.862 1.879-.862.586 0 1.615-.366 2.289-.813.673-.447 1.727-.821 2.341-.83.896-.015 1.034-.32.699-1.541-.228-.838-.454-1.572-.501-1.63-.248-.31-10.406-.267-10.984.047-1.288.699-3.895-.303-4.278-1.643-.205-.717-.913-1.454-1.572-1.638-.66-.183-1.204-.753-1.209-1.266-.019-1.806-.812-2.188-2.939-1.414Z" clip-rule="evenodd" mask="url(#a)"/><path stroke="#556F8D" d="m19.102 204.273 4.33 1.078v10.953l6.296-2.334v-4.31l-.984-9.158 2.952-.718 5.903.718 3.739-1.975v-2.155c.656.24 1.968.575 1.968 0s-.788-2.873-1.181-3.95c1.18.598 3.542 1.616 3.542.897v-2.693l2.558-1.257 1.574-2.335 1.377-1.975h3.542l.984 4.31 1.575 4.669 4.132-1.616 1.18-1.078m0 0v2.694h6.1l.788 2.334h2.36l.985 3.412h2.164l1.378-1.257h2.951v3.053l-.984 2.693 2.558 2.155 3.346 3.232m-21.646-18.316c2.23.06 6.573 0 6.1-.718-.472-.718-.196-2.694 0-3.592l4.33.539-2.755-6.105 2.754-3.951h6.297c.525-.359 1.417-1.185.787-1.616-.787-.539-1.77-.539-1.77-1.975 0-1.149-.657-4.31-.984-5.746h-.984l.983-4.669v-2.694l-2.951-1.077.59-4.13 5.903.898 1.575-1.976v-5.028h-5.117c-.983 0-1.77-.718-2.36-1.077-.473-.287-3.346-1.197-4.723-1.616l4.132-3.232-1.378-2.874-1.967-2.514m43.88 1.796c.787-1.197 2.637-3.232 3.739-1.796s1.377 3.712 1.377 4.669l1.968 1.616.591 2.874-1.378 2.154-1.181 3.592 3.542 1.436 4.329 3.771 3.346 1.437 5.312 1.077h1.771m-34.829-37.171 10.626 1.078c.525-1.078 1.417-3.304.787-3.592-.629-.287 5.51-1.317 8.658-1.795l1.181 1.795-1.181 1.796-.983.718 3.345 1.078 1.967 1.436v-3.232h1.771v-3.591l-3.738-1.078v-2.155h7.084l1.574-.718c.262-.898.629-2.837 0-3.412-.63-.574-.263-1.915 0-2.514m0 0 3.738 2.514 1.181 1.616h5.116v-5.925c-.328-1.078-.629-3.161.787-2.874 1.417.288 3.608 1.557 4.526 2.155v5.028l-.984 2.335-1.967 1.077v1.796l2.951 1.077c.656.718 2.047 1.94 2.361 1.078s3.149-1.796 4.526-2.155v-2.873l7.478-2.335-1.968-5.028 3.542-3.232 3.148-.718m-34.435 6.464h-4.92c-1.416-1.436-1.771-3.711-1.771-4.669l-1.967-2.693v-3.053l-2.362-.898-2.361.898V96.89l-5.706.898-1.378-7.9 4.526-2.515-1.377-5.746-2.362-5.208.591-2.693-3.149.898v-3.412h-4.919l-3.936.898-1.771-2.873.591-4.49 2.558-1.077 1.377-.718m0 0-1.377-2.335-1.378-.718-3.541-.718-.788-2.335v-1.975l-11.61 1.975-2.95 1.437v.898l2.36 1.795v1.976l-2.36.718v2.155l-3.74 2.155m25.384-5.028 4.723-.719 3.935.719.591-.719c.852-.299 2.4-1.041 1.771-1.616-.63-.574-1.837-2.274-2.362-3.052h3.739l-1.377-1.976h3.935l3.542-2.514 1.771.539 9.642-1.257-.787-4.49" opacity=".2"/></svg>