<svg xmlns="http://www.w3.org/2000/svg" width="344" height="234" fill="none"><mask id="a" fill="#fff"><path d="m294.635 125.811 13.904 9.153 17.67 5.879 3.213 17.543-1.73 13.59-9.637 1.977-12.867-.529 3.011 10.379-1.207 10.475s7.229 34.222-.678 36.012c-2.637.597-4.814 3.71-4.814 3.71l-2.599-3.71s-5.224 1.834-7.515 0c-2.863-2.291 0-9.389 0-9.389l-.311-1.483 7.826-12.863-6.049-10.858 3.026-5.839 2.261-7.714-5.287-2.68-5.629 2.68-1.16 7.93L284 210s-8.555 4.18-13.881 1.194C265.062 208.359 268 196.5 268 196.5l7.937-8.42-4.677-5.737-12.26-2.879-3.212 18.704-12.355-4.62-10.13-1.203-7.66-13.976h-11.614l-6.424-3.871-8.868 3.871-2.745 11.217-7.166 3.34-4.201 5.242v5.436l-8.509 2.951-11.999-15.179-8.896 2.172 1.483-9.961-7.485 5.999-20.684-.172-3.212 4.134-6.177 1.408-2.718-2.611h-2.965c-1.318 1.118-4.053 3.352-4.448 3.352-.494 0-5.189-2.149-5.93-2.149-.593 0-5.024 3.08-7.166 4.62l22.733 5.436 6.671-3.706.989 2.965h3.212c.494-.494 1.383-1.552.988-1.829s1.483.115 2.471.346l1.73 3.213h9.389c.659.494 2.026 1.532 2.224 1.729s-.412 1.73-.741 2.471l-1.977 2.224-10.863-1.236-21.506-4.447-15.32-4.3-14.578-3.789-15.666-4.319-5.142-1.55-11.806-3.296-11.613-2.761-13.837-2.976S9.773 180.549 4.989 174.2c-3.828-5.081-5.77-20.71-4.695-17.543 2.224 6.548 10.3 33.893 26.439 1.976 2.624-5.189 2.338-17.553 2.338-17.553l11.951-10.96 10.669 6.274 13.984 6.228 5.886-1.25 1.351-4.978 1.375-2.607-1.375-3.667-12.379 1.787L47.2 121.35l-2.334-6.181 16.64-1.515 2.926-6.143 3.39-3.579 8.562 5.888 1.566-7.097 12.097-1.542 3.776-5.81h8.452l4.359 8.537 15.062-2.619v-9.065l11.05-2.04v-8.812l5.967-.964-2.56-9.147-11.786-6.665 4.604-8.85 11.382-3.588 3.458-4.548-.953-18.928-3.866-3.159-2.281-3.974 7.821-.82-.773-15.66-4.938-3.519 5.176-.826 12.955 4.055 4.298 8.651L177.61 0l11.138 10.978 20.708-3.273 17.916 7.368 11.542-5.961 6.051 8.166v13.874l19.196 7.372 5.502-8.073 4.58 6.739v16.057l8.522 13.51-1.197 9.853 13.8 4.94 5.914 11.465-14.407 17.074 12.228 4.26z"/><path d="M323.986 189.586c.164-1.34.642-3.97 1.235-3.772l6.424-.989 4.942-1.022 3.212-4.339 1.977-6.04H344c-.824 2.482-2.422 7.702-2.224 8.72s-2.553 4.382-3.953 5.936l-8.401 5.468-7.66 2.149v-4.695z"/></mask><path fill="#fff" fill-opacity=".8" d="m294.635 125.811 13.904 9.153 17.67 5.879 3.213 17.543-1.73 13.59-9.637 1.977-12.867-.529 3.011 10.379-1.207 10.475s7.229 34.222-.678 36.012c-2.637.597-4.814 3.71-4.814 3.71l-2.599-3.71s-5.224 1.834-7.515 0c-2.863-2.291 0-9.389 0-9.389l-.311-1.483 7.826-12.863-6.049-10.858 3.026-5.839 2.261-7.714-5.287-2.68-5.629 2.68-1.16 7.93L284 210s-8.555 4.18-13.881 1.194C265.062 208.359 268 196.5 268 196.5l7.937-8.42-4.677-5.737-12.26-2.879-3.212 18.704-12.355-4.62-10.13-1.203-7.66-13.976h-11.614l-6.424-3.871-8.868 3.871-2.745 11.217-7.166 3.34-4.201 5.242v5.436l-8.509 2.951-11.999-15.179-8.896 2.172 1.483-9.961-7.485 5.999-20.684-.172-3.212 4.134-6.177 1.408-2.718-2.611h-2.965c-1.318 1.118-4.053 3.352-4.448 3.352-.494 0-5.189-2.149-5.93-2.149-.593 0-5.024 3.08-7.166 4.62l22.733 5.436 6.671-3.706.989 2.965h3.212c.494-.494 1.383-1.552.988-1.829s1.483.115 2.471.346l1.73 3.213h9.389c.659.494 2.026 1.532 2.224 1.729s-.412 1.73-.741 2.471l-1.977 2.224-10.863-1.236-21.506-4.447-15.32-4.3-14.578-3.789-15.666-4.319-5.142-1.55-11.806-3.296-11.613-2.761-13.837-2.976S9.773 180.549 4.989 174.2c-3.828-5.081-5.77-20.71-4.695-17.543 2.224 6.548 10.3 33.893 26.439 1.976 2.624-5.189 2.338-17.553 2.338-17.553l11.951-10.96 10.669 6.274 13.984 6.228 5.886-1.25 1.351-4.978 1.375-2.607-1.375-3.667-12.379 1.787L47.2 121.35l-2.334-6.181 16.64-1.515 2.926-6.143 3.39-3.579 8.562 5.888 1.566-7.097 12.097-1.542 3.776-5.81h8.452l4.359 8.537 15.062-2.619v-9.065l11.05-2.04v-8.812l5.967-.964-2.56-9.147-11.786-6.665 4.604-8.85 11.382-3.588 3.458-4.548-.953-18.928-3.866-3.159-2.281-3.974 7.821-.82-.773-15.66-4.938-3.519 5.176-.826 12.955 4.055 4.298 8.651L177.61 0l11.138 10.978 20.708-3.273 17.916 7.368 11.542-5.961 6.051 8.166v13.874l19.196 7.372 5.502-8.073 4.58 6.739v16.057l8.522 13.51-1.197 9.853 13.8 4.94 5.914 11.465-14.407 17.074 12.228 4.26z"/><path fill="#fff" fill-opacity=".8" d="M323.986 189.586c.164-1.34.642-3.97 1.235-3.772l6.424-.989 4.942-1.022 3.212-4.339 1.977-6.04H344c-.824 2.482-2.422 7.702-2.224 8.72s-2.553 4.382-3.953 5.936l-8.401 5.468-7.66 2.149v-4.695z"/><path stroke="#315177" stroke-opacity=".8" stroke-width="2" d="m294.635 125.811 13.904 9.153 17.67 5.879 3.213 17.543-1.73 13.59-9.637 1.977-12.867-.529 3.011 10.379-1.207 10.475s7.229 34.222-.678 36.012c-2.637.597-4.814 3.71-4.814 3.71l-2.599-3.71s-5.224 1.834-7.515 0c-2.863-2.291 0-9.389 0-9.389l-.311-1.483 7.826-12.863-6.049-10.858 3.026-5.839 2.261-7.714-5.287-2.68-5.629 2.68-1.16 7.93L284 210s-8.555 4.18-13.881 1.194C265.062 208.359 268 196.5 268 196.5l7.937-8.42-4.677-5.737-12.26-2.879-3.212 18.704-12.355-4.62-10.13-1.203-7.66-13.976h-11.614l-6.424-3.871-8.868 3.871-2.745 11.217-7.166 3.34-4.201 5.242v5.436l-8.509 2.951-11.999-15.179-8.896 2.172 1.483-9.961-7.485 5.999-20.684-.172-3.212 4.134-6.177 1.408-2.718-2.611h-2.965c-1.318 1.118-4.053 3.352-4.448 3.352-.494 0-5.189-2.149-5.93-2.149-.593 0-5.024 3.08-7.166 4.62l22.733 5.436 6.671-3.706.989 2.965h3.212c.494-.494 1.383-1.552.988-1.829s1.483.115 2.471.346l1.73 3.213h9.389c.659.494 2.026 1.532 2.224 1.729s-.412 1.73-.741 2.471l-1.977 2.224-10.863-1.236-21.506-4.447-15.32-4.3-14.578-3.789-15.666-4.319-5.142-1.55-11.806-3.296-11.613-2.761-13.837-2.976S9.773 180.549 4.989 174.2c-3.828-5.081-5.77-20.71-4.695-17.543 2.224 6.548 10.3 33.893 26.439 1.976 2.624-5.189 2.338-17.553 2.338-17.553l11.951-10.96 10.669 6.274 13.984 6.228 5.886-1.25 1.351-4.978 1.375-2.607-1.375-3.667-12.379 1.787L47.2 121.35l-2.334-6.181 16.64-1.515 2.926-6.143 3.39-3.579 8.562 5.888 1.566-7.097 12.097-1.542 3.776-5.81h8.452l4.359 8.537 15.062-2.619v-9.065l11.05-2.04v-8.812l5.967-.964-2.56-9.147-11.786-6.665 4.604-8.85 11.382-3.588 3.458-4.548-.953-18.928-3.866-3.159-2.281-3.974 7.821-.82-.773-15.66-4.938-3.519 5.176-.826 12.955 4.055 4.298 8.651L177.61 0l11.138 10.978 20.708-3.273 17.916 7.368 11.542-5.961 6.051 8.166v13.874l19.196 7.372 5.502-8.073 4.58 6.739v16.057l8.522 13.51-1.197 9.853 13.8 4.94 5.914 11.465-14.407 17.074 12.228 4.26z" mask="url(#a)"/><path stroke="#315177" stroke-opacity=".8" stroke-width="2" d="M323.986 189.586c.164-1.34.642-3.97 1.235-3.772l6.424-.989 4.942-1.022 3.212-4.339 1.977-6.04H344c-.824 2.482-2.422 7.702-2.224 8.72s-2.553 4.382-3.953 5.936l-8.401 5.468-7.66 2.149v-4.695z" mask="url(#a)"/><path stroke="#315177" d="m70.962 142.819 8.896-4.2L89 134.665h5.93l7.413-3.459 2.471 3.459 3.954 3.954h6.671v6.424l3.954 4.695v2.224l4.2 10.625v8.154h16.308v-8.154l16.493-4.878m41.821 20.692c-3.163-2.372-6.013-6.342-4.695-7.66l-2.224-6.425h-3.459l-1.235 3.46h-8.401l-2.718-5.189h-6.425v-5.189h-11.613l-1.051.311m0 0 1.051-5.747c1.565.741 4.695 1.779 4.695 0v-9.143l11.119-4.2 2.224-11.119-6.425.988-5.683-.988v-2.965l-1.235-1.977v-1.73c0-.741-3.645 0-4.695 0h-3.212l-1.73 3.707h-3.706l-1.236-3.707 1.236-1.977 1.482-1.976h2.224v-2.965l-2.224-.989v-2.224l-1.482-2.471-2.718-1.976-.495.197m-6.671-26.39c.741 0 2.421.199 3.212.99.988.988 0 5.435 0 6.424 0 .988-3.212 1.235-4.201 1.235-.79 0 .33 3.789.989 5.683h-3.212v3.707h4.2l1.236 7.165v2.965l4.447-1.779m0 0 3.213-2.174h3.706l3.953 2.174c1.071.264 3.361.841 3.954 1.038.741.247 3.212.741 3.953.741h2.965l-1.482-2.965-1.483-2.223 2.224-1.236c-.412-.741-1.285-2.372-1.482-2.965s-.577-2.06-.742-2.718h2.965c.989.412 3.015 1.384 3.213 1.977.247.741 2.965 3.706 3.953 3.706h1.977c.906-.576 2.668-1.779 2.471-1.977-.198-.197 1.235-1.235 1.977-1.73l3.212-1.976c.329.659 1.087 1.977 1.482 1.977.396 0 2.471-.33 3.46-.495.411-.247 1.284-.889 1.482-1.482s1.73-2.389 2.471-3.212v-6.919c.741-1.153 2.422-3.508 3.212-3.706.989-.247 1.977-4.448 2.471-5.436.396-.791.989-4.448 1.236-6.178l4.2-1.976 2.965-3.954c1.236-.576 3.756-1.828 3.954-2.224.198-.395 1.071-4.283 1.482-6.177l-.494-2.965c2.883-2.06 8.747-6.177 9.143-6.177.395 0 2.635-3.79 3.706-5.684l1.483-7.165V15.072m0 163.329v-15.814c-.495-.659-1.483-2.619-1.483-5.189s.988-4.695 1.483-5.436l6.424-2.224h5.436l2.224 2.224-2.224-6.919v-6.424l-4.201-3.212h-2.965l-2.471 3.212-2.223-3.954 2.223-3.459-2.223-2.718-1.483-3.953h1.483l4.694-1.977h2.965l-1.235-5.683-1.73-6.178v-7.659c0-1.071.939-3.213 4.695-3.213h9.39v-6.918c.247-2.306.988-6.919 1.976-6.919 1.236 0 5.436-10.13 7.907-10.872 1.977-.593 4.777-4.53 5.931-6.424l3.706-6.178 4.2-1.976h9.637" opacity=".2"/></svg>