<svg xmlns="http://www.w3.org/2000/svg" width="251" height="232" fill="none"><path fill="#fff" fill-opacity=".8" d="m1 94.142 4.625-1.028 6.68-8.222h8.737l10.791-6.424 9.507 4.368 10.792 6.68 7.451 5.91 11.306-5.91 14.132-3.34 4.625-7.708-4.625-12.076 3.083-7.452-5.91 2.57-4.11-6.167-8.994 14.132s-.77-7.965 5.91-15.93c3.323-3.962 1.799-13.105-2.055-22.098-2.016-4.703.513-12.076.513-12.076l-2.57-3.083v-3.34L69.09 9.863 80.396 3.44S75.87.342 72.174 1.128c-4.262.906-7.926 4.145-10.021 7.965 1.028 4.368 4.927 5.597 6.167 10.278 1.316 4.97-1.337 7.132 0 12.076.75 2.774 2.569 7.709 2.569 7.709s3.309 5.954 2.57 10.791c-.716 4.68-5.653 11.563-5.653 11.563s.265 13.579-5.653 14.132c-3.44.321-7.965-3.855-7.965-3.855s2.948-2 1.798-5.91c-1.285-4.367 4.064-7.882 2.056-12.332-.967-2.144-3.35-2.658-4.111-4.882-1.098-3.203 2.055-8.223 2.055-8.223l-4.368-2.312-3.083 2.312-3.34-2.312.256-11.306s5.14 3.084 7.195 0-4.882-8.993-4.882-8.993l-.77-14.389h2.569l2.569 6.424s6.107-.27 10.02-.77c2.096-3.82 5.76-7.06 10.022-7.966 3.695-.786 8.222 2.312 8.222 2.312h4.625l2.055-1.027 18.5 7.45 11.82-8.221 2.826 4.882 6.167-2.056V8.58h10.792v4.368l10.02-4.368c1.028.857 2.518 3.957 1.285 5.396s-2.826 1.799-3.597 2.313c0 0 7.711 2.692 9.25 6.937.957 2.641 0 7.194 0 7.194h-5.396v5.396h19.271v3.34h2.826v-3.597l15.674.257v-3.34h7.965l3.597 1.799-6.423 1.541 7.965 4.625 3.34 4.368v6.938h7.452l-1.285 1.798-3.34 1.8 2.055 5.138 8.736-1.542 5.396 8.736c.343-1.284 2.159-3.854 3.597-2.826s3.598 2.398 4.882 2.826h2.313l10.021 10.792 2.312-2.826h4.882l-1.798 13.875-1.542 1.541s-1.516-4.465-4.368-3.854c-3.566.764 0 8.222 0 8.222s-4.535 2.121-7.965 2.57c-3.622.473-7.195-3.597-10.021-2.57-4.946 1.799 5.396 12.077 4.368 14.903-.892 2.452-6.681 0-6.681 0l6.681 6.167 4.111 3.854v3.854l3.854 3.084 5.653-2.57 2.826 2.57v5.395s2.252 1.008 2.827 2.313c1.077 2.445-3.855 5.653-3.855 5.653l-3.083-2.313-5.653 5.653s3.359 2.137 3.598 4.368c.567 5.314-7.281 3.548-10.792 8.222-2.938 3.912-5.033 7.831-6.167 12.59-.77 3.235 1.051 5.245-.771 8.48-1.707 3.031-4.625 6.68-6.68 5.909-1.824-.684-.63-4.315 0-4.882 2.569-2.312 3.246-2.705 3.854-5.138.815-3.264 1.399-5.801-2.569-8.223-6.44-3.93-22.612 2.827-22.612 2.827s-6.461 1.748-10.791 6.937c-5.98 7.167-6.556 21.017-13.104 25.695-1.799 1.284-4.882 2.569-6.424 2.569-1.917 0-2.23-3.166-.514-4.882 2.57-2.569 5.751-2.021 8.222-4.368 2.637-2.504 4.111-5.91 4.111-5.91l1.285-6.166s-2.247 2.264-3.34 2.569c-2.068.578.099-2.768-3.34-4.368-9.261-4.309-30.063 3.34-30.063 3.34l-19.785 18.5-9.507 7.966c-.513.428-1.747 1.027-2.569 0-.822-1.028.514-4.026 1.285-5.396 0 0-2.389 2.548-4.368 2.569-2.768.03-4.302-1.568-5.14-4.882-.466-1.848-.513-6.68-.513-6.68l-1.799-7.452-2.312-4.111-1.799 1.285.771 11.819c2.007 6.422 2.724 10.165 5.139 16.445 1.285 3.34 5.653-2.57 7.451-1.799s-8.736 14.132-8.736 14.132l-1.028-2.312s-2.806.391-4.368-1.285c-2.961-3.178.257-10.535.257-10.535h-4.11s-1.029-5.653-3.084-4.625c-3.34 1.67 3.128 5.892 1.799 9.764-1.038 3.021-1.458 6.321-4.625 5.91-1.336-.174-3.084-1.542-3.084-1.542v-6.166h-2.055v10.277h2.055s.43 2.227-.257 3.341c-1.034 1.678-2.38 3.298-4.882 1.284-2.077-1.671-2.312-6.423-2.312-6.423s1.438-1.364 1.798-3.854c.587-4.053-3.083-10.021-3.083-10.021h-2.312l-.257-2.57-8.223-2.569v-6.167l-6.937 2.313-5.653-4.882-3.083.771-1.542-3.341 3.083-3.854v-4.111l-5.91-2.056-2.569-.77v-3.855l6.68-2.826.258-2.826 2.312-.771s-3.083-5.139-2.57-6.167c.62-1.237 6.81-1.606 4.883-2.569-2.056-1.028-1.416-7.729-4.882-10.792-2.765-2.443-7.709 0-8.736-3.597l-.023-.081c-.648-2.268-1.804-6.315-3.06-5.058-1.028 1.028-2.385-6.088-4.369-9.764-1.626-3.014-4.625-.771-4.625-7.451 0-3.995-1.798-10.278-1.798-10.278l3.854-1.285v-3.34l-3.854-1.542v-4.882h-3.598v4.882H6.653L1 99.795l2.57-2.57z"/><path stroke="#315177" stroke-opacity=".8" d="M80.396 3.44 69.09 9.864l1.799 3.083v3.34l2.57 3.084s-2.53 7.373-.514 12.076C76.799 40.44 78.323 49.583 75 53.545c-6.68 7.965-5.91 15.93-5.91 15.93l8.993-14.132 4.112 6.167 5.91-2.57-3.084 7.452 4.625 12.076-4.625 7.708-14.132 3.34-11.306 5.91-7.451-5.91-10.792-6.68-9.507-4.368-10.791 6.424h-8.736l-6.681 8.222L1 94.142l2.57 3.083L1 99.795l5.653 10.534h10.791v-4.882h3.598v4.882l3.854 1.542v3.34l-3.854 1.285s1.798 6.283 1.798 10.278c0 6.68 3 4.437 4.625 7.451 1.984 3.676 3.34 10.792 4.368 9.764 1.272-1.272 2.44 2.888 3.084 5.139 1.027 3.597 5.97 1.154 8.736 3.597 3.466 3.063 2.826 9.764 4.882 10.792 1.927.963-4.263 1.332-4.882 2.569-.514 1.028 2.57 6.167 2.57 6.167l-2.313.771-.257 2.826-6.68 2.826v3.855l2.569.77 5.91 2.056v4.111l-3.084 3.854 1.542 3.341 3.083-.771 5.653 4.882 6.937-2.313v6.167l8.223 2.569.257 2.57h2.312s3.67 5.968 3.083 10.021c-.36 2.49-1.798 3.854-1.798 3.854s.235 4.752 2.312 6.423c2.502 2.014 3.848.394 4.882-1.284.686-1.114.257-3.341.257-3.341h-2.055v-10.277h2.055v6.166s1.748 1.368 3.084 1.542c3.167.411 3.587-2.889 4.625-5.91 1.329-3.872-5.14-8.094-1.8-9.764 2.056-1.028 3.084 4.625 3.084 4.625h4.111s-3.218 7.357-.257 10.535c1.562 1.676 4.368 1.285 4.368 1.285l1.028 2.312s10.535-13.361 8.736-14.132-6.166 5.139-7.451 1.799c-2.415-6.28-3.132-10.023-5.139-16.445l-.77-11.819 1.798-1.285 2.312 4.111 1.799 7.452s.047 4.832.514 6.68c.837 3.314 2.371 4.912 5.139 4.882 1.979-.021 4.368-2.569 4.368-2.569-.771 1.37-2.107 4.368-1.285 5.396s2.056.428 2.569 0l9.507-7.966 19.785-18.5s20.802-7.649 30.063-3.34c3.439 1.6 1.272 4.946 3.34 4.368 1.093-.305 3.34-2.569 3.34-2.569l-1.285 6.166s-1.474 3.406-4.111 5.91c-2.471 2.347-5.652 1.799-8.222 4.368-1.716 1.716-1.403 4.882.514 4.882 1.542 0 4.625-1.285 6.424-2.569 6.548-4.678 7.124-18.528 13.104-25.695 4.33-5.189 10.791-6.937 10.791-6.937s16.172-6.757 22.612-2.827c3.968 2.422 3.384 4.959 2.569 8.223-.608 2.433-1.285 2.826-3.854 5.138-.63.567-1.824 4.198 0 4.882 2.055.771 4.973-2.878 6.68-5.909 1.822-3.235.001-5.245.771-8.48 1.134-4.759 3.229-8.678 6.167-12.59 3.511-4.674 11.359-2.908 10.792-8.222-.239-2.231-3.598-4.368-3.598-4.368l5.653-5.653 3.083 2.313s4.932-3.208 3.855-5.653c-.575-1.305-2.827-2.313-2.827-2.313v-5.395l-2.826-2.57-5.653 2.57-3.854-3.084v-3.854l-4.111-3.854-6.681-6.167s5.789 2.452 6.681 0c1.028-2.826-9.314-13.104-4.368-14.903 2.826-1.027 6.399 3.043 10.021 2.57 3.43-.449 7.965-2.57 7.965-2.57s-3.566-7.458 0-8.222c2.852-.61 4.368 3.854 4.368 3.854l1.542-1.541 1.798-13.875h-4.882l-2.312 2.826-10.021-10.792h-2.313c-1.284-.428-3.443-1.798-4.882-2.826s-3.254 1.542-3.597 2.826l-5.396-8.736-8.736 1.542-2.055-5.139 3.34-1.799 1.285-1.798h-7.452v-6.938l-3.34-4.368-7.965-4.625 6.423-1.541-3.597-1.799h-7.965v3.34l-15.674-.257v3.598h-2.826v-3.34h-19.271v-5.397h5.396s.957-4.553 0-7.194c-1.539-4.245-9.25-6.937-9.25-6.937.771-.514 2.364-.874 3.597-2.313s-.257-4.54-1.285-5.396l-10.02 4.368V8.58h-10.792V4.47l-6.167 2.055-2.826-4.882-11.82 8.222-18.5-7.451-2.055 1.027zm0 0S75.87.342 72.174 1.128c-4.262.906-7.926 4.145-10.021 7.965m0 0c1.028 4.368 4.927 5.597 6.167 10.278 1.316 4.97-1.337 7.132 0 12.076.75 2.774 2.569 7.709 2.569 7.709s3.309 5.954 2.57 10.791c-.716 4.68-5.653 11.563-5.653 11.563s.265 13.579-5.653 14.132c-3.44.321-7.965-3.855-7.965-3.855s2.948-2 1.798-5.91c-1.285-4.367 4.064-7.882 2.056-12.332-.967-2.144-3.35-2.658-4.111-4.882-1.098-3.203 2.055-8.223 2.055-8.223l-4.368-2.312-3.083 2.312-3.34-2.312.256-11.306s5.14 3.084 7.195 0-4.882-8.993-4.882-8.993l-.77-14.389h2.569l2.569 6.424s6.107-.27 10.02-.77Z"/><path stroke="#315177" d="M25.924 132.299v-5.139h3.34v2.826l18.5-2.826 2.312-2.313 4.625 5.139h6.424v6.167h8.736c1.644 0 2.398-1.542 2.57-2.313l4.11 2.313 1.8-3.854 2.055-2.313v-2.826h3.854l2.826 2.826 2.313-5.139h2.826l2.056-4.111 4.11 4.111 1.543-4.111 3.083 1.542 1.799 2.569m0 0 2.312 2.313h2.056l-2.056 2.826 2.056 2.313h10.277l2.313 1.541c.342-.171 1.13.052 1.542 2.313.411 2.261 1.712 5.909 2.312 7.451v1.542l2.056 1.798 4.111-1.798h5.652l2.57-1.542 1.542 1.542 2.826-1.542c.856.257 2.312.36 1.285-1.285-1.028-1.644-.429-3.426 0-4.111v-4.368l2.826 2.313h4.111l-1.541 2.055v8.736l3.34-1.798 5.139 1.798m-54.729-22.097c1.85 0 3.682-1.713 4.368-2.569l-2.056-4.368 2.056-2.313v-2.826l3.34-2.57h3.597v-2.055l3.34-2.827-3.34-2.569v-3.597l7.195-8.993h-7.195l-2.984-18.757m46.408 75.541v4.112l-1.542 4.368h-5.396v4.882h3.34l4.882-1.285 2.57 1.285h3.597l-3.597 3.083-2.57 3.083-3.854 1.285-1.028 1.798 1.028 5.139-4.368 1.542-1.541 2.826m8.479-32.118 3.854 2.313 3.597-2.313 1.542-1.798v-2.827l2.826-1.798v-2.313l3.597-4.368c.771-.514 2.878-1.541 5.139-1.541s5.91-1.542 7.452-2.313h2.569l1.542 3.854 3.083-1.541-3.083-5.139 1.798-1.285 2.827 1.285 14.389-4.882v-6.681H227.5M87.076 63.437l7.195-2.826h2.57v2.826h4.367v3.084l3.598-.771v1.799h7.708l.613 3.854m0 0 12.491-5.653 3.854 1.799 2.313-6.938v-5.396c0-1.798-2.313-5.139-2.313-7.965v-5.653l2.313-2.57h3.083v4.112l2.569 2.055 4.112 2.056c1.37-.514 4.111-1.233 4.111 0s1.884 3.255 2.826 4.111c.857.857 2.57 2.056 2.57 0v-6.167c2.398-.685 7.708-2.055 9.763-2.055 2.056 0 4.112-1.713 4.882-2.57l1.285-3.597" opacity=".2"/></svg>