<svg xmlns="http://www.w3.org/2000/svg" width="259" height="233" fill="none"><mask id="a" fill="#fff"><path fill-rule="evenodd" d="m174.481 185.583 5.142-5.426 7.201 4.939 1.128-5.101 12.641-1.614 3.874-5.924h11.32l4.188 8.175 11.04-1.912v-8.981l10.991-2.013 6.983-5.498L259 144.26l-4.107-2.054-9.115 10.571-12.944-7.309 6.197-11.907 11.552-3.633 2.393-3.128-.858-16.725-3.325-2.706-4.454-7.746 9.271-.98-.582-11.892-6.582-4.678-7.267-8.692-1.327-6.393 8.47-8.03 1.688-16.546-5.157-6.28 1.084-11.87-7.282-2.378-11.485 11.058-7.227-2.891-2.335 10.36-.714 12.804-13.471 5.896-13.578-4.155-12.084-2.549-10.8 11.762-7.926-9.38-19.417.944 3.552-15.91-14.696-11.933 5.515-4.754 1.457-7.848-10.62-.95-13.388 11.842.842-10.632-6.085-1.657-15.076 3.06-6.848-15.358L72.371 0l-8.005 8.033-13.185 5.728-4.634-8.607-3.579.321-7.516 8.94-8.053-4.4-14.902-.849-6.253 5.505 2.41 2.731L0 22.333l4.333 9.885 6.585 4.95-1.564 14.836 9.661 7.197-2.202 17.156 11.64 3.016 12.182-2.582 3.279 4.647 4.445-6.008 11.514 14.864-3.729 12.86-.864 12.246 6.652 9.986 9.432 1.805 5.186-4.256 8.973 5.794-6.105 6.982 10.112 4.374 7.143 8.642-4.975 15.716-14.87-.231-4.189 3.108.91 5.487 13.333 10.65v12.407l-5.328 9.5h8.716l6.68 5.122 6.753-6.418 4.107 1.296 6.402 2.006 6.432-5.735 1.284 2.433 3.08 1.296 2.576-3.729 14.934 7.701 7.695-7.344 5.998-.357 7.3-2.7-1.283-8.201h9.796z" clip-rule="evenodd"/></mask><path fill="#fff" fill-opacity=".8" fill-rule="evenodd" stroke="#315177" stroke-opacity=".8" stroke-width="2" d="m174.481 185.583 5.142-5.426 7.201 4.939 1.128-5.101 12.641-1.614 3.874-5.924h11.32l4.188 8.175 11.04-1.912v-8.981l10.991-2.013 6.983-5.498L259 144.26l-4.107-2.054-9.115 10.571-12.944-7.309 6.197-11.907 11.552-3.633 2.393-3.128-.858-16.725-3.325-2.706-4.454-7.746 9.271-.98-.582-11.892-6.582-4.678-7.267-8.692-1.327-6.393 8.47-8.03 1.688-16.546-5.157-6.28 1.084-11.87-7.282-2.378-11.485 11.058-7.227-2.891-2.335 10.36-.714 12.804-13.471 5.896-13.578-4.155-12.084-2.549-10.8 11.762-7.926-9.38-19.417.944 3.552-15.91-14.696-11.933 5.515-4.754 1.457-7.848-10.62-.95-13.388 11.842.842-10.632-6.085-1.657-15.076 3.06-6.848-15.358L72.371 0l-8.005 8.033-13.185 5.728-4.634-8.607-3.579.321-7.516 8.94-8.053-4.4-14.902-.849-6.253 5.505 2.41 2.731L0 22.333l4.333 9.885 6.585 4.95-1.564 14.836 9.661 7.197-2.202 17.156 11.64 3.016 12.182-2.582 3.279 4.647 4.445-6.008 11.514 14.864-3.729 12.86-.864 12.246 6.652 9.986 9.432 1.805 5.186-4.256 8.973 5.794-6.105 6.982 10.112 4.374 7.143 8.642-4.975 15.716-14.87-.231-4.189 3.108.91 5.487 13.333 10.65v12.407l-5.328 9.5h8.716l6.68 5.122 6.753-6.418 4.107 1.296 6.402 2.006 6.432-5.735 1.284 2.433 3.08 1.296 2.576-3.729 14.934 7.701 7.695-7.344 5.998-.357 7.3-2.7-1.283-8.201h9.796z" clip-rule="evenodd" mask="url(#a)"/><path fill="#fff" fill-opacity=".8" d="m129.885 231.534-10.011-11.037-3.466-4.492 8.6 1.155 3.337-1.027h6.417c.684.428 2.515 1.591 4.363 2.823 1.849 1.233 4.364 1.541 5.391 1.541l-1.54 2.823-1.797-1.54-2.054 2.567c-1.454-.171-4.825-.411-6.673 0-1.849.411-2.482 4.963-2.567 7.187"/><path stroke="#556F8D" stroke-opacity=".8" d="m112.943 211.512 3.465 4.493m0 0 3.466 4.492 10.011 11.037c.085-2.224.718-6.776 2.567-7.187 1.848-.411 5.219-.171 6.673 0l2.054-2.567 1.797 1.54 1.54-2.823c-1.027 0-3.542-.308-5.391-1.541a202 202 0 0 0-4.363-2.823h-6.417l-3.337 1.027z"/><path stroke="#556F8D" d="m48.77 74.953 2.054-1.797-2.053-4.62a47 47 0 0 0 .77-2.053c.205-.617.94-1.797 1.283-2.31l3.08-1.284-1.027-2.824-2.053-1.283v-2.054l2.053-2.053-2.053-2.054 7.957-2.31 2.31-2.567h5.647l2.311-2.053h6.417c0-.514.206-1.54 1.027-1.54h3.85c-.428-1.113-1.026-3.286 0-3.08s4.877.085 6.674 0h6.16v7.7l3.338 1.54.77 1.027-3.08 2.567v4.877l3.08 3.08h4.877l2.824-4.364 2.566 1.284h2.567V50.31h3.081l-3.081-19.508-1.54-1.027-1.797-2.054c-.256-.427-.616-1.386 0-1.796s.257-2.567 0-3.594v-2.567l-1.796-1.797 5.133-1.797M94.718 145.286l-2.053-15.658 13.091-3.593v-5.134h7.701c1.437 0 2.652 1.711 3.08 2.567.77.171 2.361.205 2.567-1.027s.085-2.909 0-3.594l8.214-3.08-4.877-3.85-3.337-1.284 3.337-1.54v-3.08c-.342-1.027-.822-3.08 0-3.08h10.524000000000001v-3.85l2.054-2.31v-4.108l5.133-1.797-2.31-5.39 3.337.513h5.134l2.567 2.054h3.337l4.107 1.54 1.027 2.053 9.754-2.053V85.99m0 0 2.053-2.567h1.54v-2.567l3.081 2.567h3.337v-2.567l-3.337-1.54-1.027-8.727 4.364-2.31v-5.134l1.54-2.824v-3.85l-2.824-3.594m-8.727 33.113 3.593 2.054v2.823l-1.54 3.08-2.053 1.54-3.851 1.284c-.684-.428-2.053-1.027-2.053 0s1.369 5.562 2.053 7.701l4.878 3.337 1.026 5.647-1.026 2.31-2.054 1.797 1.027 4.877-1.027 2.054v12.834h4.62l7.188-.77-.77.77-1.284 4.107h4.621l5.904-1.797-1.027 1.797h4.364l2.31 2.054 12.321-3.851 2.31 5.647 2.567 3.337v1.797c0 .822.684 3.936 1.027 5.391l-1.027 2.823-3.85 1.284-2.054-2.824-1.027 1.54 2.054 6.418-2.054 2.053v2.054h5.648l-1.284 3.08" opacity=".2"/></svg>