<svg xmlns="http://www.w3.org/2000/svg" width="40" height="40" fill="none"><circle cx="20" cy="20" r="17" fill="#0180B2"/><circle cx="20" cy="20" r="19.5" stroke="#0180B2"/><path fill="#fff" fill-rule="evenodd" d="M18.127 10.051c3.474.631 5.93 3.51 5.93 6.951 0 1.564-.385 2.8-1.28 4.105l-.35.511.639.63.639.631 1.215.091c.668.05 1.266.107 1.328.127.074.023-.445.594-1.487 1.636-.88.88-1.623 1.574-1.65 1.542-.028-.031-.095-.626-.15-1.32l-.099-1.265-.644-.64-.644-.64-.25.21c-.418.352-1.418.884-2.044 1.088-.823.268-1.396.357-2.295.357-3.16 0-5.822-2.017-6.772-5.132-.192-.629-.214-.818-.213-1.874 0-.96.032-1.288.172-1.8.678-2.486 2.61-4.414 5.067-5.054.705-.184 2.265-.267 2.888-.154m-2.328 2.396c-1.622.418-2.959 1.776-3.38 3.435-.155.606-.152 1.732.005 2.34.322 1.248 1.324 2.485 2.462 3.041 3.584 1.752 7.597-1.338 6.78-5.222-.352-1.676-1.75-3.146-3.415-3.593-.578-.156-1.85-.156-2.452 0m12.674 12.706c1.265 1.281 1.458 1.585 1.52 2.391.106 1.356-1.094 2.555-2.452 2.45-.808-.063-1.111-.255-2.394-1.52-.643-.631-1.168-1.187-1.168-1.233 0-.11 3.15-3.254 3.26-3.254.045 0 .6.525 1.234 1.166" clip-rule="evenodd"/><path fill="#fff" d="m16.334 16.373.004-.914c.002-.502 0-1.057 0-1.057h1.531l.004.986.004.985.985.004.986.004v1.527l-.986.004-.985.004-.004.947-.005.947h-1.526l-.004-.947-.004-.947-.947-.004-.947-.005v-1.526l.947-.004z"/></svg>